<?xml version="1.0" encoding="utf-8"?>
<!-- Generator: Adobe Illustrator 27.5.0, SVG Export Plug-In . SVG Version: 6.00 Build 0)  -->
<svg version="1.1" xmlns="http://www.w3.org/2000/svg" xmlns:xlink="http://www.w3.org/1999/xlink" x="0px" y="0px"
	 viewBox="0 0 1100 800" style="enable-background:new 0 0 1100 800;" xml:space="preserve">
<g id="background">
	<rect style="fill:#D67086;" width="1100" height="800"/>
</g>
<g id="object">
	<path style="opacity:0.16;fill:#272525;" d="M295.211,535.699c-19.862,0.445-39.723,0.784-59.578,0.867
		c-35.383,0.149-81.762-7.248-108.172,20.919c-13.298,14.182-8.922,42.465,12.172,47.479c5.969,1.419,12.396,1.263,17.995,3.679
		c5.6,2.416,10.037,8.994,6.929,14.017c-1.589,2.568-4.647,3.944-7.579,5.023c-18.543,6.823-39.095,7.688-57.542,14.739
		c-43.832,16.752-36.264,50.424,3.583,61.292c35.834,9.773,75.684,8.422,112.628,9.083c216.219,3.872,433.021,8.472,648.041-4.583
		c46.372-2.816,92.475-6.371,138.648-9.687c21.131-1.515,47.578-5.467,47.662-14.324c0.058-6.167-13.892-10.766-27.642-13.172
		c-24.081-4.215-55.517-7.883-50.966-21.673c1.66-5.03,9.498-9.646,20.386-12.004c8.409-1.821,18.081-2.303,27.198-3.399
		c9.117-1.096,18.463-3.11,22.297-6.698c10.322-9.663-15.673-15.413-33.971-16.295c-21.916-1.056-39.784-7.848-32.229-18.095
		c5.263-7.137,22.391-11.965,27.599-19.11c2.095-2.873,2.092-5.964,0.699-8.909c-13.91-29.423-86.578-26.9-113.659-29.102
		c-50.101-4.075-100.427-4.853-150.685-5.218c-114.01-0.828-228.023,0.554-342.009,2.701
		C363.095,533.869,329.152,534.939,295.211,535.699z"/>
	<g>
		<path style="fill:#FFFFFF;" d="M913.016,297.785c1.018-1.982,30.849-43.011,30.849-43.011l8.891,7.07l-18.244,50.652
			l-15.765-0.999L913.016,297.785z"/>
		<g>
			<g>
				<path style="fill:#3B455A;" d="M970.099,291.385l-25.12-16.059c-0.484-0.309-0.633-1.046-0.335-1.647l22.727-45.816
					c0.3-0.604,0.977-0.93,1.516-0.728l27.966,10.508c0.674,0.253,0.949,1.01,0.61,1.69l-25.657,51.53
					C971.47,291.54,970.704,291.772,970.099,291.385z"/>
				<polygon style="fill:#3B3387;" points="972.046,286.077 947.576,271.09 968.032,229.86 994.846,240.275 				"/>
				<polygon style="fill:#FFFFFF;" points="959.253,281.945 956.348,280.119 956.737,279.337 959.646,281.153 				"/>
			</g>
			<polygon style="fill:#FFFFFF;" points="970.839,247.902 965.645,258.69 976.555,256.937 			"/>
		</g>
		<path style="fill:#FFFFFF;" d="M256.747,392.844l-21.839,72.562l-45.087,34.52l9.863,11.976l57.064-29.589l24.657-64.108
			c0,0-0.704-30.997-2.113-30.293S256.747,392.844,256.747,392.844z"/>
		<polygon style="fill:#292949;" points="65.83,562.625 49.627,545.718 41.173,551.353 53.15,576.715 65.527,576.715 		"/>
		<polygon style="fill:#292949;" points="246.179,510.493 164.885,476.619 105.282,557.694 132.052,560.512 175.731,516.129 
			227.863,554.171 		"/>
		<g>
			<g>
				<path style="fill:#474EBB;" d="M918.713,402.035c-30.826-53.869-93.63-78.996-150.534-62.229
					c-0.106,0.031-0.211,0.038-0.317,0.058c-17.482,6.925-32.022,20.209-38.161,41.031c-1.349,4.575-8.143,2.679-6.784-1.928
					c6.579-22.317,21.631-36.926,39.95-44.899c-20.628-67.109-82.173-114.25-149.333-108.387
					c-66.092,5.77-119.396,59.627-131.634,128.243c5.568,1.356,11.042,3.255,16.35,5.772c21.113,10.014,37.578,27.447,49.367,48.39
					c2.332,4.142-3.707,7.949-6.031,3.82c-3.879-6.891-8.376-13.396-13.467-19.331c-18.896-22.03-45.754-35.023-73.944-33.448
					c-28.483,1.592-59.061,18.039-78.066,40.35c-21.779,25.568-33.36,59.996-30.151,94.556c3.15,33.921,20.008,65.433,45.906,85.622
					c24.021,18.725,51.853,27.096,81.364,28.044c19.353,0.622,38.722,0.752,58.081,0.869c55.337,0.336,110.678,0.102,166.015-0.207
					c24.311-0.136,48.622-0.3,72.933-0.486c19.97-0.153,41,1.369,60.641-2.828c64.228-13.728,112.42-76.879,105.442-147.55
					C934.403,437.898,928.346,418.87,918.713,402.035z"/>
			</g>
			<path style="opacity:0.1;" d="M932.153,458.307c-0.118-1.201-0.253-2.399-0.403-3.595c-1.621,34.466-17.763,66.203-49.461,82.428
				c-32.569,16.671-67.657,30.222-103.172,34.704c-93.244,11.767-192.491,14.556-286.498,16.611
				c-30.005,0.682-58.135-0.787-94.603-2.644c-0.297-0.015-0.519,0.322-0.782,0.5c18.628,11.868,39.342,18.692,61.263,21.529
				c3.488,0.332,7.003,0.556,10.542,0.67c19.353,0.622,38.722,0.752,58.082,0.869c54.313,0.329,108.629,0.11,162.941-0.191
				c6.814-0.058,13.629-0.112,20.443-0.172c25.173-0.224,50.346-0.473,75.519-0.742c7.355-0.079,14.851,0.032,22.37,0.035
				c6.188-0.425,12.317-1.17,18.316-2.452C890.939,592.129,939.131,528.978,932.153,458.307z"/>
		</g>
		<g>
			<polygon style="fill:#292949;" points="983.778,397.775 1001.39,442.862 1026.752,585.873 1011.253,587.987 971.097,456.952 
				933.055,412.569 			"/>
			<path style="fill:#292949;" d="M947.145,406.229c2.114,1.409,14.09,59.177,14.09,59.177l5.636,125.399l-16.203,2.114
				l-25.361-121.876l-26.066-26.771L947.145,406.229z"/>
			<path style="fill:#FFFFFF;" d="M894.292,237.415c-10.427-8.081-27.493-7.675-39.435-4.491
				c-21.134,5.636-15.499,78.197-22.543,116.24c-5.222,28.201-7.22,63.966,19.373,82.306c25.714,17.733,22.896,40.276,48.257,26.891
				c25.362-13.385,89.47-9.158,91.583-52.837c0.818-16.903-52.401-54.349-59.177-74.676c-6.224-18.672-12.719-37.267-19.641-55.693
				C908.423,263.745,904.731,245.505,894.292,237.415z"/>
			<polygon style="fill:#FFFFFF;" points="861.197,253.355 911.92,316.759 971.802,281.534 980.256,294.92 911.92,347.756 
				859.084,309.01 845.698,270.967 			"/>
			<g>
				<path style="fill:#3B455A;" d="M886.379,194.578c8,2.791,13.899,10.778,14.215,19.244c4.741-3.844,7.454-10.061,7.049-16.151
					c-0.405-6.09-3.918-11.893-9.127-15.075c-5.239,2.335-9.485,6.812-11.539,12.167L886.379,194.578z"/>
				<path style="fill:#EAC5B0;" d="M887.952,237.298c6.609-1.677,11.702-7.339,14.086-13.727c2.384-6.388,2.394-13.427,1.588-20.198
					c-2.682-22.531-30.735-20.6-39.945-3.137C855.654,215.455,868.735,242.175,887.952,237.298z"/>
				<path style="fill:#292949;" d="M851.835,384.112c4.418-2.183,5.087-8.028,7-12.57c1.913-4.542,8.792-8.095,11.228-3.811
					c7.224-1.456,12.242-8.521,13.621-15.76c1.379-7.239-0.135-14.68-1.644-21.893c-3.345-15.983-6.242-32.139-10.05-48.017
					c-3.599-15.01-3.149-30.673-2.832-45.848c0.159-7.605,3.381-14.888,7.792-21.086c4.41-6.198,9.984-11.458,15.478-16.718
					c2.285-2.188,4.656-4.533,5.517-7.577c0.953-3.367-0.165-7.067-2.235-9.888c-3.185-4.342-7.159-6.666-12.387-7.152
					c-18.349-1.703-32.913,8.218-39.362,25.807c-5.452,14.871-4.491,31.188-4.59,47.026c-0.15,23.816-6.899,50.894-22.151,69.483
					c-6.215,7.575-12.956,15.14-15.915,24.48c-2.959,9.341-0.909,21.126,7.467,26.209c3.273,1.986,7.263,2.833,10.051,5.457
					c2.929,2.757,2.863,7.139-0.125,9.664c3.533,7.263,8.348,2.48,13.513,1.493C838.51,382.212,846.182,386.905,851.835,384.112z"/>
			</g>
			<polygon style="fill:#292949;" points="966.87,590.805 980.256,602.781 980.256,609.121 951.372,602.781 951.372,592.918 			"/>
			<polygon style="fill:#292949;" points="1026.752,585.873 1042.955,590.805 1042.955,598.554 1011.958,598.554 1011.958,587.987 
							"/>
		</g>
		<path style="fill:#292949;" d="M213.068,536.559c-2.113,2.113-35.224,2.818-35.224,2.818l-112.718,20.43v21.135l104.969-7.045
			L311.697,590.1l40.86-14.794l7.397-32.759L213.068,536.559z"/>
		<g>
			<g>
				<g>
					<path style="fill:#EAC5B0;" d="M284.883,372.08c4.717,0.477,9.434,0.954,14.151,1.431c0.795-3.697,1.293-7.457,1.49-11.233
						c4.128-0.575,8.993-1.707,10.48-5.601c0.468-1.227,0.511-2.568,0.549-3.881c0.155-5.425,0.309-10.851,0.464-16.276
						c0.053-1.876,0.098-3.81-0.574-5.563c-1.179-3.076-4.295-4.948-7.365-6.144c-7.833-3.051-17.034-3.082-24.404,0.961
						c-1.961,1.076-3.82,2.471-4.976,4.386c-1.783,2.953-1.641,6.637-1.444,10.08c0.182,3.179,0.364,6.357,0.546,9.536
						c0.209,3.656,0.727,7.869,3.809,9.847c1.636,1.05,3.774,1.273,5.175,2.621C285.254,364.622,284.019,368.762,284.883,372.08z"/>
					<path style="fill:#292949;" d="M248.608,310.322c-0.532-1.471-1.136-2.908-1.857-4.287c-1.563-2.987-3.682-5.706-4.781-8.893
						c-1.099-3.187-0.907-7.168,1.634-9.384c1.639-1.43,3.915-1.851,6.083-2.039c7.142-0.62,14.445,0.717,20.904,3.828
						c6.152,2.963,11.404,6.871,18.426,5.754c6.598-1.05,10.84,0.78,16.789,4.364c6.438,3.879,15.634,6.348,21.207,11.113
						c2.327,1.99,3.959,4.694,5.08,7.543c3.886,9.872,1.482,21.914-5.896,29.538c-1.655,1.71-3.523,3.202-5.452,4.597
						c-3.992,2.888-8.794,6.48-13.563,6.885c0.708-4.05,6.946-16.009,4.521-19.937c-3.85-6.232-15.32-6.65-21.671-6.592
						c-6.928,0.063-13.801,3.57-20.59,3.243c-4.885-0.235-10.464-3.783-13.999-7.048
						C251.082,324.976,250.551,315.689,248.608,310.322z"/>
				</g>
				<g>
					<path style="fill:#FFFFFF;" d="M351.405,459.763c-0.35-10.014-0.344-20.047-0.573-30.062
						c-0.085-3.736-2.092-30.517-7.434-30.517c-0.294,0,0,0.603,0.72-0.781c-10.51-16.777-9.927-18.87-50.614-19.28
						c-18.688-0.189-21.487,11.818-34.709,26.969c-1.304,1.494-0.186,9.198-0.255,11.288c-0.121,3.679-0.285,7.358-0.547,11.032
						c-1.413,19.832-4.193,42.324-11.425,60.902c-5.281,13.566-14.808,24.266-26.348,32.859c-3.543,2.638-11.741,6.14-13.762,9.893
						c-2.669,4.958,7.325,8.565,10.93,9.753c10.008,3.299,20.529,4.956,30.983,6.771c0.017,0.008,69.668,33.058,99.253,32.354
						c2.578-0.061,4.999-0.219,7.286-0.456c15.899-8.056,12.47-31.098,9.912-45.33c-3.285-18.28-9.783-35.63-11.924-54.14
						C352.081,473.95,351.653,466.861,351.405,459.763z"/>
				</g>
				<g>
					<polygon style="fill:#3B3387;" points="280.036,365.428 256.747,392.844 338.467,414.683 345.512,389.321 					"/>
					<polygon style="fill:#3B3387;" points="312.387,371.361 292.544,374.882 259.586,393.984 239.839,510.493 289.153,528.105 
						295.863,412.045 326.908,398.814 338.467,382.276 					"/>
				</g>
			</g>
		</g>
		<path style="fill:#FFFFFF;" d="M316.872,334.527c-0.953-2.152-3.947-4.663-4.406-7.252c1.957-6.935,5.711-24.547-3.575-33.214
			c-7.095-6.45-16.78-2.947-20.911-0.195c-0.545,0.363-0.878,1.155-0.941,1.758c4.139-0.579,6.753-0.655,8.232-0.419
			c0.244-0.069,0.491-0.136,0.745-0.196c4.018-0.954,7.394-0.22,10.011,2.16c7.051,6.581,4.475,20.843,2.693,27.714
			c-0.267,0.661-0.778,1.968-0.802,1.989c-2.385,2.07-6.097,1.046-8.892,3.473c-1.984,1.723-3.335,4.081-4.234,6.55
			c-0.791,2.175-1.258,4.467-1.381,6.778c-0.38,7.181,4.178,16.625,12.595,14.371c5.845-1.565,11.427-7.978,12.227-13.97
			C318.657,340.919,318.164,337.443,316.872,334.527z"/>
		<path style="fill:#FFFFFF;" d="M857.624,208.902c0.857-1.935,3.549-4.193,3.961-6.52c-1.76-6.235-5.135-22.07,3.214-29.862
			c6.379-5.799,15.087-2.65,18.8-0.175c0.49,0.327,0.79,1.039,0.846,1.581c-3.722-0.521-6.071-0.589-7.401-0.377
			c-0.219-0.062-0.441-0.122-0.67-0.176c-3.612-0.857-6.647-0.197-9.001,1.942c-6.339,5.916-4.023,18.739-2.422,24.917
			c0.24,0.595,0.7,1.77,0.721,1.788c2.144,1.861,5.482,0.94,7.994,3.122c1.784,1.549,2.998,3.669,3.807,5.889
			c0.711,1.955,1.131,4.016,1.241,6.094c0.341,6.457-3.756,14.947-11.324,12.92c-5.255-1.408-10.274-7.173-10.993-12.56
			C856.019,214.649,856.462,211.524,857.624,208.902z"/>
		<g>
			<path style="fill:#FFFFFF;" d="M540.557,423.635c13.415-27.386,41.574-46.29,74.07-46.29c37.695,0,69.551,25.438,79.326,60.047
				h-19.455l29.242,50.648l29.242-50.648h-17.236c-10.255-46.382-51.696-81.182-101.118-81.182c-40.883,0-76.305,23.815-93.132,58.3
				c-0.052,0.107-0.107,0.211-0.158,0.318l19.054,9.142C540.444,423.858,540.502,423.747,540.557,423.635z"/>
			<path style="fill:#FFFFFF;" d="M689.005,495.273c-13.289,27.727-41.633,46.922-74.378,46.922
				c-37.388,0-69.034-25.025-79.087-59.202h19.216l-29.242-50.648l-29.242,50.648h17.433
				c10.571,45.957,51.801,80.336,100.921,80.336c41.126,0,76.728-24.098,93.431-58.915c0.017-0.035,0.033-0.071,0.05-0.106
				c-5.935-2.865-12.313-5.943-19.033-9.185C689.051,495.173,689.028,495.224,689.005,495.273z"/>
		</g>
		<g>
			<path style="fill:#5D66D3;" d="M287.676,523.81c0,0-66.638,22.45-66.222,20.43l-86.364-28.567l67.343-19.338L287.676,523.81z"/>
		</g>
		<polygon style="fill:#FFFFFF;" points="324.377,394.253 313.81,408.342 301.129,481.609 237.021,510.493 241.333,523.526 
			327.9,505.562 345.512,416.796 346.217,402.002 341.99,394.253 		"/>
		<path style="fill:#EAC5B0;" d="M237.418,511.691l-15.734-1.958l-13.546,14.85l4.227,5.636c0,0,13.385-7.045,14.09-7.045
			s14.88-1.125,14.88-1.125L237.418,511.691z"/>
		<polygon style="fill:#5D66D3;" points="207.364,444.203 118.366,432.495 133.38,516.823 221.454,544.24 		"/>
		<path style="fill:#EAC5B0;" d="M973.203,283.753l0.008-7.854l1.409-9.158h3.522l1.034,9.322l7.794-15.653l3.149,7.739
			c0,0-0.704,16.203-1.409,16.908c-0.704,0.704-10.568,6.516-10.568,6.516L973.203,283.753z"/>
		<polygon style="fill:#EAC5B0;" points="944.491,255.272 947.849,243.492 955.599,240.674 966.87,242.788 964.757,245.606 
			957.712,245.606 956.303,254.764 950.953,260.41 		"/>
		<path style="fill:#353A85;" d="M370.411,165.999v21.813v42.141c-2.111-0.541-4.415-0.842-6.832-0.842
			c-10.063,0-18.22,5.166-18.22,11.54c0,6.373,8.157,11.539,18.22,11.539c0.844,0,1.689-0.036,2.53-0.11
			c3.701-0.326,7.457-1.363,10.585-3.419c1.284-0.844,2.467-1.871,3.385-3.11c0.704-0.951,1.721-2.58,1.721-3.797
			c0-2.68,0-5.36,0-8.04c0-4.56,0-9.119,0-13.679c0-5.018,0-10.035,0-15.053c0-4.054,0-8.108,0-12.162c0-1.669,0-3.339,0-5.008
			h42.753v42.141c-1.94-0.541-4.058-0.842-6.279-0.842c-9.248,0-16.744,5.166-16.744,11.54c0,6.373,7.497,11.539,16.744,11.539
			c0.786,0,1.572-0.037,2.354-0.113c6.876-0.667,14.391-4.611,14.391-12.307c0-1.557,0-3.115,0-4.672c0-4.558,0-9.116,0-13.674
			c0-5.184,0-10.368,0-15.553c0-4.254,0-8.508,0-12.761c0-1.766,0-3.532,0-5.298v-21.813H370.411z"/>
		<path style="fill:#EED5D5;" d="M240.582,97.925l14.371,14.344l27.764,27.712c-1.744,1.035-3.458,2.356-5.048,3.948
			c-6.617,6.63-8.578,15.402-4.379,19.592c4.199,4.191,12.967,2.214,19.584-4.416c0.555-0.556,1.086-1.137,1.591-1.739
			c2.22-2.653,4.006-5.81,4.708-9.222c0.288-1.401,0.39-2.856,0.177-4.275c-0.163-1.089-0.568-2.831-1.37-3.631
			c-1.766-1.762-3.531-3.525-5.297-5.287c-3.004-2.999-6.008-5.997-9.012-8.995c-3.306-3.299-6.612-6.599-9.917-9.898
			c-2.671-2.666-5.342-5.332-8.013-7.998c-1.1-1.098-2.199-2.195-3.299-3.293l21.635-21.677l-14.358-14.358L240.582,97.925z"/>
	</g>
</g>
</svg>
