<?xml version="1.0" encoding="utf-8"?>
<!-- Generator: Adobe Illustrator 27.5.0, SVG Export Plug-In . SVG Version: 6.00 Build 0)  -->
<svg version="1.1" xmlns="http://www.w3.org/2000/svg" xmlns:xlink="http://www.w3.org/1999/xlink" x="0px" y="0px"
	 viewBox="0 0 750 500" style="enable-background:new 0 0 750 500;" xml:space="preserve">
<g id="BACKGROUND">
</g>
<g id="OBJECTS">
	<g>
		<g>
			<path style="fill:#E1F0FF;" d="M538.516,437.741c-19.946-19.946-29.504-43.71-28.644-71.302
				c0.85-27.582,11.46-51.558,31.835-71.934c20.785-20.785,43.813-30.861,69.069-30.235c25.256,0.647,47.217,10.289,65.888,28.96
				c12.734,12.734,21.743,27.909,27.054,45.518c5.305,17.614,6.051,35.332,2.233,53.159c-3.828,17.816-12.102,33.094-24.836,45.829
				c-19.096,19.096-42.534,28.981-70.344,29.603C582.972,467.991,558.886,458.112,538.516,437.741z"/>
		</g>
		<g>
			<defs>
				<path id="SVGID_1_" d="M538.516,437.741c-19.946-19.946-29.504-43.71-28.644-71.302c0.85-27.582,11.46-51.558,31.835-71.934
					c20.785-20.785,43.813-30.861,69.069-30.235c25.256,0.647,47.217,10.289,65.888,28.96
					c12.734,12.734,21.743,27.909,27.054,45.518c5.305,17.614,6.051,35.332,2.233,53.159c-3.828,17.816-12.102,33.094-24.836,45.829
					c-19.096,19.096-42.534,28.981-70.344,29.603C582.972,467.991,558.886,458.112,538.516,437.741z"/>
			</defs>
			<clipPath id="SVGID_00000010278159618543990390000009750800436542867590_">
				<use xlink:href="#SVGID_1_"  style="overflow:visible;"/>
			</clipPath>
			<g style="clip-path:url(#SVGID_00000010278159618543990390000009750800436542867590_);">
				<g>
					<g>
						<path style="fill:#2C2429;" d="M568.592,360.871c0,0-20.054-2.228-15.04,13.369c0,0-11.141-1.114-2.785,8.356
							c0,0-12.255-1.114-10.584,13.926c1.671,15.04,16.154,7.799,16.154,7.799s-10.584,5.57-7.242,16.711
							s18.383,16.154,28.409-0.557c10.027-16.711,22.282,5.57,22.282,5.57l6.685-40.107L568.592,360.871z"/>
						<path style="fill:#2C2429;" d="M647.536,360.871c0,0,20.054-2.228,15.04,13.369c0,0,11.141-1.114,2.785,8.356
							c0,0,12.255-1.114,10.584,13.926c-1.671,15.04-16.154,7.799-16.154,7.799s10.584,5.57,7.242,16.711
							c-3.342,11.141-18.383,16.154-28.409-0.557c-10.027-16.711-22.282,5.57-22.282,5.57l-6.685-40.107L647.536,360.871z"/>
					</g>
					<g>
						<g>
							<path style="fill:#FFB899;" d="M588.566,410.295c6.464-5.295,0.462-35.622,0.462-35.622h36.628
								c0,0-6.002,30.327,0.462,35.622c6.464,5.295,48.912,4.656,45.013,57.993H546.572
								C541.756,414.812,582.102,415.591,588.566,410.295z"/>
							<path style="fill:#EFA084;" d="M590.432,407.267c3.197-9.336-1.405-32.593-1.405-32.593h36.628
								c0,0-2.471,12.504-2.531,22.857C613.902,404.496,602.316,407.254,590.432,407.267z"/>
							<path style="fill:#EFA084;" d="M597.487,440.807c23.403,0,46.913-0.571,70.365-0.454c1.722,4.488,2.917,9.737,3.346,15.937
								c-19.061,5.936-68.149,17.431-124.985,1.184c0.188-6.502,1.175-11.993,2.72-16.666H597.487z"/>
						</g>
						<g>
							<path style="fill:#86C1E2;" d="M563.578,419.224c3.935-1.845,8.59-4.392,14.106-5.255c0,0,5.399,16.71,29.857,16.842
								c24.458-0.132,29.857-16.842,29.857-16.842c6.088,0.845,11.173,3.46,15.417,5.434c-2.099,7.054-5.923,24.251,0.823,49.093
								l-45.81,0.346v0.004l-0.287-0.002l-0.287,0.002v-0.004l-44.447-0.342C569.611,443.446,565.664,426.146,563.578,419.224z"/>
							<g>
								<path style="fill:#86C1E2;" d="M640.399,439.415l-3.001-25.446c0,0,25.561-2.685,40.323,32.966
									c0,0-12.534,10.862-34.258,12.534L640.399,439.415z"/>
								<path style="fill:#86C1E2;" d="M574.452,439.415l3.001-25.446c0,0-25.561-2.685-40.323,32.966
									c0,0,12.534,10.862,34.258,12.534L574.452,439.415z"/>
							</g>
						</g>
					</g>
				</g>
				<g>
					<g>
						<g>
							<path style="fill:#EFA084;" d="M648.019,362.691c-1.796,6.572-6.852,12.399-10.827,11.313
								c-3.975-1.086-5.364-8.675-3.568-15.247c1.796-6.572,6.097-9.638,10.072-8.552
								C647.671,351.291,649.815,356.119,648.019,362.691z"/>
							<path style="fill:#EFA084;" d="M567.064,362.691c1.796,6.572,6.852,12.399,10.827,11.313
								c3.975-1.086,5.364-8.675,3.568-15.247c-1.796-6.572-6.097-9.638-10.072-8.552
								C567.411,351.291,565.268,356.119,567.064,362.691z"/>
							<path style="fill:#FFB899;" d="M640.505,350.909c0,24.06-14.871,48.619-33.215,48.619c-18.344,0-33.215-24.559-33.215-48.619
								c0-24.06,14.871-38.51,33.215-38.51C625.635,312.399,640.505,326.849,640.505,350.909z"/>
						</g>
						<g>
							<path style="fill:#2C2429;" d="M608.701,301.268c0,0,2.784,38.993-30.082,46.792c0,0-1.116,13.366-3.344,14.48
								c-2.228,1.114-3.889-12.335-3.889-12.335s-4.466,1.754-4.466,7.881c0,0-5.568-19.497,5.573-40.107
								C583.635,297.368,608.701,301.268,608.701,301.268z"/>
							<path style="fill:#2C2429;" d="M607.056,301.268c0,0-2.784,38.993,30.082,46.792c0,0,1.116,14.481,3.344,15.595
								c2.228,1.114,3.889-13.45,3.889-13.45s4.465,1.754,4.465,7.881c0,0,5.568-19.497-5.573-40.107
								C632.122,297.368,607.056,301.268,607.056,301.268z"/>
						</g>
					</g>
					<g>
						<g>
							<g>
								<g>
									<path style="fill:#F77B59;" d="M605.355,360.597c0.029,0.452,0.036,0.9,0.036,1.346c-0.043,0.445-0.068,0.903-0.132,1.356
										c-0.089,0.441-0.158,0.894-0.268,1.335l-0.404,1.312l-0.553,1.267c-0.215,0.411-0.453,0.81-0.687,1.213l-0.832,1.129
										c-0.322,0.342-0.637,0.691-0.968,1.023l-0.14-1.457c0.523,0.359,1.025,0.748,1.534,1.128
										c0.514,0.372,0.997,0.79,1.494,1.189c0.972,0.828,1.928,1.681,2.798,2.665c-1.246-0.415-2.405-0.961-3.547-1.532
										c-0.561-0.301-1.135-0.582-1.679-0.91c-0.549-0.319-1.104-0.629-1.639-0.97l-0.886-0.564l0.746-0.893
										c0.26-0.312,0.537-0.606,0.807-0.908l0.744-0.967c0.227-0.341,0.446-0.686,0.69-1.019l0.63-1.073l0.597-1.113
										c0.166-0.388,0.374-0.764,0.561-1.153c0.159-0.392,0.358-0.78,0.538-1.18C604.971,361.411,605.152,361.002,605.355,360.597
										z"/>
								</g>
								<g>
									<path style="fill:#F77B59;" d="M616.86,379.76c0,0-0.851,1.345-2.701,2.851c-0.477,0.351-0.97,0.78-1.57,1.115
										c-0.294,0.179-0.597,0.362-0.906,0.55c-0.322,0.168-0.662,0.318-1.004,0.48c-0.338,0.172-0.699,0.308-1.073,0.431
										c-0.371,0.129-0.745,0.267-1.132,0.376c-0.796,0.135-1.59,0.385-2.425,0.374l-1.24,0.04
										c-0.412-0.033-0.821-0.1-1.225-0.151c-0.822-0.049-1.571-0.377-2.306-0.604l-0.543-0.181
										c-0.168-0.085-0.333-0.175-0.494-0.267c-0.321-0.181-0.634-0.358-0.94-0.53c-0.635-0.299-1.1-0.782-1.565-1.159
										c-0.451-0.396-0.893-0.718-1.176-1.12c-0.312-0.37-0.567-0.704-0.778-0.975c-0.418-0.545-0.636-0.863-0.636-0.863
										s0.341,0.21,0.902,0.587c0.279,0.191,0.619,0.416,0.989,0.689c0.353,0.297,0.853,0.488,1.33,0.773
										c0.499,0.252,0.991,0.602,1.596,0.791c0.291,0.112,0.59,0.227,0.896,0.345c0.153,0.057,0.304,0.12,0.456,0.185l0.488,0.112
										c0.656,0.145,1.316,0.348,2.019,0.363c0.346,0.032,0.696,0.063,1.046,0.095l1.062-0.053l0.532-0.015
										c0.176-0.022,0.352-0.059,0.527-0.087c0.352-0.055,0.703-0.11,1.052-0.164c0.678-0.207,1.382-0.303,2.018-0.566
										c0.323-0.116,0.637-0.238,0.956-0.338c0.307-0.13,0.608-0.258,0.901-0.382c0.594-0.238,1.123-0.537,1.64-0.771
										c0.49-0.277,0.961-0.508,1.361-0.744c0.397-0.239,0.759-0.434,1.04-0.618C616.534,379.982,616.86,379.76,616.86,379.76z"/>
								</g>
								<ellipse style="fill:#161114;" cx="621.74" cy="360.26" rx="1.617" ry="4.734"/>
								<path style="fill:#161114;" d="M591.907,359.618c0,2.614,0.724,4.734,1.617,4.734c0.893,0,1.617-2.119,1.617-4.734
									c0-2.614-0.724-4.733-1.617-4.733C592.631,354.885,591.907,357.004,591.907,359.618z"/>
							</g>
						</g>
						<g>
							
								<ellipse transform="matrix(0.3523 -0.9359 0.9359 0.3523 46.0067 783.4868)" style="fill:none;stroke:#3897C1;stroke-width:2.3941;stroke-miterlimit:10;" cx="589.063" cy="358.504" rx="14.065" ry="14.065"/>
							
								<ellipse transform="matrix(0.4967 -0.8679 0.8679 0.4967 4.0959 724.0716)" style="fill:none;stroke:#3897C1;stroke-width:2.3941;stroke-miterlimit:10;" cx="626.388" cy="358.504" rx="14.065" ry="14.065"/>
							<path style="fill:none;stroke:#3897C1;stroke-width:2.3941;stroke-miterlimit:10;" d="M603.129,359.757
								c0,0,4.178-5.013,8.913,0.279"/>
							
								<line style="fill:none;stroke:#3897C1;stroke-width:2.3941;stroke-miterlimit:10;" x1="572.213" y1="358.643" x2="574.998" y2="358.504"/>
							
								<line style="fill:none;stroke:#3897C1;stroke-width:2.3941;stroke-miterlimit:10;" x1="640.544" y1="358.643" x2="643.329" y2="358.504"/>
						</g>
					</g>
				</g>
			</g>
		</g>
	</g>
	<g>
		<g style="opacity:0.2;">
			<path style="fill:#C1DB4D;" d="M311.886,294.84c20.058-20.059,43.957-29.671,71.705-28.806
				c27.738,0.854,51.85,11.524,72.341,32.015c20.902,20.902,31.036,44.061,30.405,69.46c-0.651,25.399-10.347,47.484-29.124,66.261
				c-12.806,12.806-28.066,21.867-45.775,27.207c-17.714,5.335-35.532,6.085-53.46,2.246c-17.917-3.85-33.281-12.171-46.088-24.977
				c-19.204-19.204-29.145-42.774-29.77-70.741C281.465,339.547,291.401,315.326,311.886,294.84z"/>
		</g>
		<g>
			<defs>
				<path id="SVGID_00000073710712813551004280000004461634071944040592_" d="M311.886,294.84
					c20.058-20.059,43.957-29.671,71.705-28.806c27.738,0.854,51.85,11.524,72.341,32.015c20.902,20.902,31.036,44.061,30.405,69.46
					c-0.651,25.399-10.347,47.484-29.124,66.261c-12.806,12.806-28.066,21.867-45.775,27.207
					c-17.714,5.335-35.532,6.085-53.46,2.246c-17.917-3.85-33.281-12.171-46.088-24.977c-19.204-19.204-29.145-42.774-29.77-70.741
					C281.465,339.547,291.401,315.326,311.886,294.84z"/>
			</defs>
			<clipPath id="SVGID_00000053539911782568164960000001521770398093847987_">
				<use xlink:href="#SVGID_00000073710712813551004280000004461634071944040592_"  style="overflow:visible;"/>
			</clipPath>
			<g style="clip-path:url(#SVGID_00000053539911782568164960000001521770398093847987_);">
				<g>
					<g>
						<path style="fill:#723021;" d="M364.311,408.987c6.903-5.679,0.493-38.205,0.493-38.205h39.118c0,0-6.41,32.526,0.493,38.205
							c6.903,5.679,59.168,5.163,54.238,59.888h-148.58C305.143,414.15,357.408,414.667,364.311,408.987z"/>
					</g>
					<g>
						<g>
							<polygon style="fill:#E9EDD6;" points="377.463,417.428 381.804,429.078 383.044,428.481 387.695,416.532 394.206,427.286 
								390.796,430.871 371.572,430.572 							"/>
							<g>
								<path style="fill:#C1DB4D;" d="M353.781,410.536c0,0,5.53,17.921,30.583,18.063c25.053-0.142,30.583-18.063,30.583-18.063
									c56.691,12.907,44.543,58.34,44.543,58.34l-74.832,0.512v0.004l-0.293-0.002l-0.294,0.002v-0.004l-74.832-0.512
									C309.238,468.876,297.09,423.443,353.781,410.536z"/>
								<path style="fill:#ADC133;" d="M382.503,433.64c30.371-0.172,37.1-21.872,37.115-21.92
									c-1.505-0.419-3.057-0.816-4.672-1.184c0,0-5.53,17.921-30.583,18.063c-25.053-0.142-30.583-18.063-30.583-18.063
									c-2.845,0.648-5.509,1.381-8.018,2.183C347.52,416.983,356.027,433.49,382.503,433.64z"/>
							</g>
						</g>
						<g>
							<polygon style="fill:#FFFFFF;" points="345.838,409.363 367.232,435.053 377.463,420.714 381.804,429.078 378.704,416.532 
								354.52,400.401 							"/>
							<polygon style="fill:#FFFFFF;" points="419.01,408.765 397.617,434.754 387.075,420.117 383.044,428.481 386.145,415.935 
								410.329,399.804 							"/>
						</g>
					</g>
				</g>
				<g>
					<g>
						<g>
							<path style="fill:#723021;" d="M426.458,359.242c-1.868,6.834-7.125,12.895-11.259,11.765
								c-4.134-1.13-5.578-9.022-3.711-15.856c1.868-6.834,6.341-10.023,10.474-8.893
								C426.096,347.388,428.326,352.408,426.458,359.242z"/>
							<path style="fill:#723021;" d="M342.269,359.242c1.868,6.834,7.125,12.895,11.259,11.765
								c4.134-1.13,5.578-9.022,3.711-15.856c-1.868-6.834-6.341-10.023-10.474-8.893
								C342.63,347.388,340.401,352.408,342.269,359.242z"/>
							<path style="fill:#8E3E30;" d="M419.004,346.357c-2.755,26.68-14.452,54.454-34.901,54.454
								c-20.449,0-32.091-26.12-33.412-52.909c-1.577-31.963,12.963-44.22,33.412-44.22
								C404.552,303.682,422.087,316.495,419.004,346.357z"/>
						</g>
						<path style="fill:#2C2429;" d="M415.02,345.529c-1.115,11.772-4.246,36.372-8.724,37.643
							c-7.881,2.238,1.41-13.666-11.192-13.837c-14.289-0.193-25.883-5.28-26.607,8.189c-0.64,11.895-12.929-8.991-14.731-31.918
							c-1.338,0.068-2.675,0.131-4.013,0.18c0.242,3.58,1.689,22.453,2.234,31.303c1.159,18.827,8.545,27.951,34.613,28.096
							c23.348,0.129,33.929-10.081,32.405-58.829C417.054,345.798,415.765,345.849,415.02,345.529z M393.261,390.703
							c-3.586-0.664-4.345-5.938-4.345-5.938l-6.228-0.434c0,0-0.26,6.148-5.214,5.938c-6.807-0.29-4.924-15.641-4.924-15.641
							c7.82,1.593,13.469-0.869,13.469-0.869c7.676,3.476,13.034,1.738,13.034,1.738
							C399.923,386.648,397.171,391.428,393.261,390.703z"/>
					</g>
					<g>
						<g>
							<g>
								<path style="fill:#5E1D12;" d="M425.664,356.335c-0.24-0.86-0.505-1.7-0.807-2.493c-0.159-0.393-0.334-0.772-0.525-1.107
									c-0.19-0.325-0.452-0.608-0.616-0.651c-0.129-0.023-0.145,0-0.395,0.165c-0.038,0.04-0.148,0.117-0.129,0.119
									c-0.064,0.072-0.182,0.172-0.201,0.221c-0.03,0.057-0.053,0.091-0.097,0.154l-0.136,0.217
									c-0.356,0.627-0.604,1.413-0.839,2.202c-0.238,0.792-0.43,1.616-0.597,2.45c-0.192,0.829-0.358,1.67-0.506,2.517
									l-0.465,2.548l-0.449,2.556l-0.32-0.669c0.162,0.13,0.272,0.237,0.398,0.363c0.121,0.123,0.236,0.251,0.347,0.385
									c0.22,0.271,0.422,0.571,0.574,0.922c0.148,0.35,0.244,0.782,0.159,1.215c-0.092,0.434-0.349,0.785-0.625,1.021
									c-0.56,0.481-1.185,0.661-1.789,0.811c-0.607,0.146-1.22,0.198-1.826,0.236c0.572-0.207,1.131-0.442,1.658-0.7
									c0.261-0.133,0.516-0.277,0.741-0.44c0.231-0.155,0.438-0.333,0.578-0.524c0.295-0.399,0.244-0.698,0.017-1.077
									c-0.121-0.185-0.287-0.369-0.477-0.538c-0.096-0.084-0.197-0.166-0.301-0.243c-0.1-0.073-0.224-0.157-0.306-0.202
									l-0.324-0.176l0.004-0.494c0.007-0.9,0.013-1.782,0.073-2.67c0.068-0.885,0.132-1.773,0.254-2.656
									c0.126-0.882,0.271-1.765,0.447-2.648c0.203-0.878,0.436-1.754,0.729-2.631c0.298-0.876,0.684-1.739,1.267-2.594
									l0.245-0.318c0.089-0.111,0.218-0.235,0.33-0.345c0.122-0.119,0.185-0.146,0.281-0.224c0.182-0.145,0.268-0.171,0.407-0.259
									c0.278-0.134,0.582-0.27,0.979-0.285c0.386-0.024,0.809,0.105,1.102,0.318c0.574,0.448,0.757,0.967,0.928,1.429
									c0.155,0.47,0.231,0.933,0.276,1.391C425.824,354.546,425.79,355.448,425.664,356.335z"/>
							</g>
							<g>
								<path style="fill:#5E1D12;" d="M343.063,356.335c-0.126-0.887-0.161-1.789-0.064-2.701c0.045-0.458,0.121-0.921,0.276-1.391
									c0.171-0.462,0.354-0.981,0.928-1.429c0.293-0.213,0.716-0.342,1.102-0.318c0.397,0.015,0.701,0.151,0.979,0.285
									c0.139,0.087,0.226,0.114,0.408,0.259c0.095,0.078,0.159,0.105,0.28,0.224c0.112,0.109,0.241,0.233,0.331,0.345l0.245,0.318
									c0.583,0.855,0.969,1.719,1.267,2.594c0.293,0.877,0.526,1.753,0.729,2.631c0.176,0.883,0.321,1.766,0.447,2.648
									c0.122,0.883,0.185,1.771,0.254,2.656c0.06,0.888,0.066,1.77,0.073,2.67l0.004,0.494l-0.324,0.176
									c-0.082,0.045-0.206,0.128-0.306,0.202c-0.104,0.077-0.205,0.158-0.301,0.243c-0.19,0.169-0.356,0.353-0.477,0.538
									c-0.227,0.378-0.278,0.678,0.017,1.077c0.14,0.191,0.348,0.369,0.578,0.524c0.225,0.164,0.48,0.308,0.741,0.44
									c0.527,0.259,1.086,0.493,1.658,0.7c-0.606-0.038-1.219-0.09-1.826-0.236c-0.605-0.15-1.229-0.329-1.789-0.811
									c-0.275-0.236-0.533-0.587-0.625-1.021c-0.085-0.433,0.011-0.865,0.159-1.215c0.153-0.351,0.355-0.651,0.574-0.922
									c0.111-0.135,0.226-0.262,0.347-0.385c0.126-0.125,0.236-0.232,0.398-0.363l-0.32,0.669l-0.45-2.556l-0.464-2.548
									c-0.148-0.847-0.314-1.689-0.506-2.517c-0.167-0.833-0.359-1.658-0.597-2.45c-0.234-0.789-0.482-1.575-0.839-2.202
									l-0.136-0.217c-0.043-0.063-0.067-0.096-0.097-0.154c-0.019-0.049-0.137-0.149-0.201-0.221
									c0.02-0.002-0.09-0.079-0.129-0.119c-0.249-0.165-0.266-0.188-0.395-0.165c-0.165,0.043-0.427,0.326-0.616,0.651
									c-0.191,0.335-0.366,0.714-0.525,1.107C343.568,354.635,343.303,355.475,343.063,356.335z"/>
							</g>
						</g>
						<g>
							<g>
								<path style="fill:#5E1D12;" d="M382.252,347.55c-0.132,0.852-0.281,1.693-0.463,2.521c-0.162,0.836-0.378,1.651-0.56,2.477
									c-0.404,1.639-0.84,3.261-1.302,4.873l-0.707,2.409l-0.727,2.398c-0.22,0.803-0.515,1.593-0.739,2.389
									c-0.226,0.799-0.474,1.594-0.744,2.386l-0.615-0.999c0.73,0.234,1.461,0.461,2.185,0.716
									c0.725,0.252,1.453,0.49,2.175,0.754c1.444,0.525,2.887,1.056,4.308,1.668c-1.539-0.161-3.057-0.402-4.574-0.649
									c-0.759-0.122-1.511-0.271-2.266-0.405c-0.757-0.131-1.506-0.29-2.256-0.442l-0.742-0.151l0.127-0.848
									c0.126-0.845,0.275-1.689,0.446-2.528c0.143-0.849,0.372-1.664,0.59-2.488c0.224-0.821,0.416-1.652,0.701-2.452
									c0.268-0.805,0.522-1.616,0.801-2.416l0.914-2.374c0.331-0.782,0.671-1.559,1.022-2.332
									C380.547,350.519,381.322,349,382.252,347.55z"/>
							</g>
							<path style="fill:#FFFFFF;" d="M398.965,376.867c0,0-12.744,11.972-25.109-0.091"/>
							<g>
								<path style="fill:#161114;" d="M377.697,343.646c0,0-0.057-0.099-0.181-0.258c-0.12-0.144-0.326-0.332-0.59-0.571
									c-0.533-0.465-1.333-1.071-2.309-1.694c-0.968-0.624-2.108-1.283-3.321-1.773c-0.604-0.255-1.229-0.449-1.848-0.596
									c-0.622-0.147-1.242-0.231-1.853-0.224c-0.613-0.034-1.215,0.066-1.818,0.186c-0.599,0.136-1.198,0.338-1.781,0.594
									c-0.582,0.256-1.153,0.557-1.692,0.887c-0.284,0.142-0.529,0.338-0.789,0.501c-0.261,0.164-0.513,0.327-0.744,0.506
									c-0.473,0.342-0.936,0.65-1.321,0.961c-0.387,0.306-0.762,0.556-1.042,0.791c-0.579,0.453-0.96,0.699-0.96,0.699
									s0.072-0.431,0.285-1.162c0.1-0.369,0.248-0.807,0.467-1.287c0.194-0.497,0.463-1.035,0.804-1.604
									c0.336-0.57,0.762-1.163,1.278-1.753c0.518-0.587,1.134-1.172,1.868-1.687c0.368-0.259,0.751-0.513,1.183-0.716
									c0.413-0.233,0.867-0.411,1.337-0.565c0.936-0.314,1.96-0.482,2.976-0.464c1.015,0.021,2.022,0.187,2.931,0.516
									c0.916,0.307,1.753,0.735,2.477,1.233c1.467,0.979,2.528,2.186,3.263,3.303c0.729,1.127,1.144,2.173,1.315,2.946
									c0.101,0.374,0.109,0.706,0.113,0.922C377.732,343.54,377.691,343.645,377.697,343.646z"/>
							</g>
							<g>
								<path style="fill:#161114;" d="M410.568,344.267c0,0-0.368-0.259-1.011-0.713c-0.632-0.445-1.518-1.068-2.565-1.745
									c-2.083-1.345-4.852-2.959-7.513-3.154c-0.663-0.045-1.326-0.057-1.982,0.052c-0.658,0.082-1.307,0.265-1.952,0.466
									c-0.321,0.113-0.626,0.261-0.948,0.368c-0.311,0.148-0.616,0.292-0.913,0.432c-0.584,0.32-1.176,0.607-1.687,0.949
									c-0.53,0.315-1.029,0.617-1.457,0.915c-0.432,0.29-0.836,0.533-1.145,0.76c-0.637,0.437-1.05,0.67-1.05,0.67
									s0.12-0.442,0.413-1.185c0.141-0.376,0.333-0.823,0.613-1.301c0.135-0.246,0.279-0.507,0.43-0.783
									c0.171-0.264,0.366-0.531,0.566-0.818c0.392-0.578,0.921-1.134,1.5-1.717c0.307-0.277,0.631-0.553,0.973-0.832
									c0.361-0.259,0.742-0.509,1.14-0.757c0.825-0.449,1.738-0.873,2.749-1.086c0.997-0.271,2.072-0.291,3.117-0.232
									c1.046,0.109,2.057,0.362,2.986,0.733c0.916,0.384,1.764,0.851,2.495,1.391c1.476,1.065,2.56,2.312,3.342,3.447
									c0.772,1.148,1.259,2.182,1.537,2.932C410.486,343.809,410.568,344.267,410.568,344.267z"/>
							</g>
							<path style="fill:#161114;" d="M397.83,352.78c0,2.794,0.773,5.058,1.728,5.058c0.954,0,1.728-2.265,1.728-5.058
								c0-2.794-0.774-5.058-1.728-5.058C398.604,347.722,397.83,349.987,397.83,352.78z"/>
							<path style="fill:#161114;" d="M367.677,352.095c0,2.794,0.774,5.058,1.728,5.058c0.954,0,1.728-2.265,1.728-5.058
								s-0.774-5.059-1.728-5.059C368.451,347.036,367.677,349.301,367.677,352.095z"/>
						</g>
					</g>
				</g>
			</g>
		</g>
	</g>
	<g>
		<g style="opacity:0.1;">
			<path style="fill:#D84848;" d="M230.358,292.988c20.19,20.19,29.866,44.246,28.995,72.176c-0.86,27.92-11.6,52.191-32.226,72.816
				c-21.04,21.04-44.35,31.24-69.916,30.605c-25.566-0.655-47.796-10.415-66.696-29.315c-12.89-12.89-22.01-28.251-27.386-46.076
				c-5.37-17.83-6.125-35.766-2.26-53.811c3.876-18.035,12.251-33.5,25.141-46.391c19.33-19.33,43.055-29.336,71.206-29.966
				C185.357,262.367,209.737,272.368,230.358,292.988z"/>
		</g>
		<g>
			<defs>
				<path id="SVGID_00000139980919189644005880000007481457847683772590_" d="M230.358,292.988
					c20.19,20.19,29.866,44.246,28.995,72.176c-0.86,27.92-11.6,52.191-32.226,72.816c-21.04,21.04-44.35,31.24-69.916,30.605
					c-25.566-0.655-47.796-10.415-66.696-29.315c-12.89-12.89-22.01-28.251-27.386-46.076c-5.37-17.83-6.125-35.766-2.26-53.811
					c3.876-18.035,12.251-33.5,25.141-46.391c19.33-19.33,43.055-29.336,71.206-29.966
					C185.357,262.367,209.737,272.368,230.358,292.988z"/>
			</defs>
			<clipPath id="SVGID_00000124877681067140868800000012687125112303780763_">
				<use xlink:href="#SVGID_00000139980919189644005880000007481457847683772590_"  style="overflow:visible;"/>
			</clipPath>
			<g style="clip-path:url(#SVGID_00000124877681067140868800000012687125112303780763_);">
				<g>
					<g>
						<path style="fill:#F89B6A;" d="M139.79,411.335c6.739-5.295,0.481-35.622,0.481-35.622h38.19c0,0-6.258,30.327,0.481,35.622
							c6.739,5.295,57.765,4.814,52.951,55.839H86.839C82.025,416.149,133.051,416.63,139.79,411.335z"/>
						<path style="fill:#EF8050;" d="M141.736,408.307c3.334-9.336-1.465-32.593-1.465-32.593h38.19c0,0-2.577,12.505-2.638,22.857
							C166.207,405.536,154.127,408.294,141.736,408.307z"/>
					</g>
					<path style="fill:#D84848;" d="M183.855,410.757l-2.228-11.884l-44.936,1.115l-1.789,10.992
						c-59.717,12.551-48.879,56.195-48.879,56.195l73.057,0.478v0.004l0.287-0.002l0.287,0.002v-0.004l73.057-0.478
						C232.71,467.174,241.416,423.754,183.855,410.757z"/>
				</g>
				<g>
					<g>
						<path style="fill:#EF8050;" d="M199.844,361.501c-1.796,6.572-6.852,12.399-10.827,11.313
							c-3.975-1.086-5.364-8.675-3.568-15.247c1.796-6.572,6.097-9.638,10.072-8.552
							C199.496,350.101,201.64,354.929,199.844,361.501z"/>
						<path style="fill:#EF8050;" d="M118.889,361.501c1.796,6.572,6.852,12.399,10.827,11.313
							c3.975-1.086,5.364-8.675,3.568-15.247c-1.796-6.572-6.097-9.638-10.072-8.552
							C119.237,350.101,117.093,354.929,118.889,361.501z"/>
						<path style="fill:#F89B6A;" d="M192.331,349.719c0,24.06-14.871,48.619-33.215,48.619c-18.344,0-33.215-24.559-33.215-48.619
							c0-24.06,14.728-41.459,33.072-41.459C177.317,308.26,192.331,325.659,192.331,349.719z"/>
					</g>
					<g>
						<g>
							<g>
								<path style="fill:#DB5223;" d="M199.09,358.705c-0.176-0.831-0.385-1.648-0.645-2.429c-0.136-0.388-0.289-0.765-0.467-1.107
									c-0.18-0.333-0.42-0.641-0.64-0.743c-0.198-0.092-0.36-0.051-0.634,0.129c-0.052,0.046-0.154,0.112-0.166,0.136
									c-0.066,0.07-0.172,0.155-0.206,0.213c-0.076,0.104-0.176,0.243-0.275,0.401c-0.377,0.637-0.636,1.405-0.871,2.176
									c-0.237,0.774-0.428,1.575-0.594,2.383c-0.182,0.805-0.338,1.621-0.478,2.44c-0.292,1.636-0.557,3.294-0.79,4.942
									l-0.211-0.441c0.272,0.215,0.482,0.428,0.695,0.674c0.207,0.245,0.395,0.516,0.538,0.829
									c0.138,0.312,0.224,0.689,0.157,1.065c-0.074,0.377-0.292,0.69-0.537,0.91c-0.498,0.448-1.083,0.641-1.65,0.803
									c-0.571,0.158-1.153,0.235-1.73,0.297c0.555-0.174,1.101-0.372,1.62-0.604c0.507-0.241,1.021-0.519,1.34-0.904
									c0.334-0.388,0.326-0.8,0.084-1.21c-0.121-0.203-0.286-0.397-0.474-0.575c-0.184-0.174-0.407-0.35-0.605-0.473l-0.218-0.136
									l0.007-0.306c0.037-1.709,0.171-3.397,0.402-5.088c0.241-1.688,0.566-3.371,1.12-5.029c0.277-0.829,0.628-1.648,1.154-2.436
									c0.139-0.19,0.287-0.39,0.501-0.593c0.102-0.104,0.171-0.141,0.258-0.215c0.144-0.118,0.231-0.151,0.35-0.228
									c0.241-0.12,0.502-0.24,0.831-0.254c0.32-0.022,0.667,0.08,0.916,0.256c0.491,0.37,0.678,0.833,0.845,1.257
									c0.155,0.431,0.242,0.864,0.303,1.295C199.144,356.998,199.156,357.856,199.09,358.705z"/>
							</g>
							<g>
								<path style="fill:#DB5223;" d="M119.663,358.705c-0.066-0.849-0.054-1.707,0.07-2.566c0.061-0.431,0.148-0.863,0.303-1.295
									c0.167-0.424,0.355-0.887,0.846-1.257c0.249-0.176,0.595-0.278,0.915-0.256c0.329,0.014,0.59,0.134,0.831,0.254
									c0.119,0.077,0.205,0.11,0.35,0.228c0.087,0.074,0.156,0.111,0.258,0.215c0.215,0.203,0.363,0.403,0.502,0.593
									c0.526,0.788,0.877,1.607,1.154,2.436c0.554,1.658,0.879,3.341,1.12,5.029c0.232,1.691,0.365,3.379,0.403,5.088l0.007,0.306
									l-0.218,0.136c-0.198,0.123-0.42,0.299-0.605,0.473c-0.187,0.178-0.352,0.372-0.474,0.575
									c-0.242,0.41-0.25,0.822,0.084,1.21c0.319,0.385,0.833,0.663,1.34,0.904c0.519,0.232,1.065,0.43,1.62,0.604
									c-0.578-0.062-1.159-0.139-1.73-0.297c-0.567-0.162-1.152-0.354-1.65-0.803c-0.245-0.22-0.464-0.534-0.537-0.91
									c-0.067-0.377,0.019-0.753,0.157-1.065c0.142-0.313,0.331-0.584,0.538-0.829c0.213-0.246,0.424-0.458,0.695-0.674
									l-0.211,0.441c-0.233-1.648-0.498-3.306-0.79-4.942c-0.139-0.82-0.295-1.635-0.478-2.44
									c-0.166-0.808-0.357-1.608-0.594-2.383c-0.235-0.772-0.494-1.54-0.871-2.177c-0.099-0.158-0.2-0.297-0.275-0.401
									c-0.034-0.058-0.139-0.143-0.205-0.213c-0.012-0.024-0.114-0.09-0.166-0.136c-0.274-0.179-0.436-0.221-0.634-0.129
									c-0.22,0.102-0.46,0.41-0.64,0.743c-0.178,0.342-0.332,0.72-0.467,1.107C120.049,357.057,119.839,357.874,119.663,358.705z"
									/>
							</g>
						</g>
						<g>
							<g>
								<path style="fill:#DB5223;" d="M157.371,347.49c0.09,1.655-0.021,3.301-0.202,4.936c-0.189,1.635-0.491,3.252-0.861,4.857
									c-0.392,1.598-0.842,3.186-1.412,4.735c-0.266,0.781-0.575,1.547-0.912,2.302c-0.306,0.766-0.693,1.502-1.062,2.239
									l-0.265-0.897c1.024,0.751,2.022,1.539,3.021,2.328c0.99,0.802,1.976,1.609,2.924,2.474
									c-1.167-0.533-2.296-1.126-3.421-1.723c-1.117-0.61-2.233-1.22-3.325-1.868l-0.475-0.282l0.21-0.615l0.779-2.279
									l0.751-2.285c0.264-0.757,0.458-1.537,0.722-2.295c0.237-0.767,0.474-1.534,0.693-2.308c0.248-0.766,0.467-1.54,0.691-2.315
									l0.693-2.324l0.707-2.333C156.858,349.055,157.115,348.276,157.371,347.49z"/>
							</g>
							<g>
								<path style="fill:#DB5223;" d="M147.743,377.782c0,0,0.354,0.125,0.958,0.37c0.3,0.125,0.668,0.272,1.077,0.461
									c0.409,0.203,0.9,0.292,1.397,0.481c0.505,0.167,1.031,0.365,1.634,0.484c0.597,0.118,1.198,0.332,1.855,0.395
									c0.651,0.082,1.311,0.223,1.998,0.227c0.683,0.042,1.374,0.091,2.07,0.037c0.696,0.014,1.387-0.082,2.071-0.149
									c0.683-0.068,1.351-0.205,2.003-0.311c0.635-0.177,1.277-0.265,1.859-0.454c0.59-0.163,1.148-0.327,1.661-0.498
									c1.025-0.339,1.88-0.663,2.476-0.909c0.601-0.237,0.941-0.396,0.941-0.396s-0.243,0.29-0.739,0.721
									c-0.244,0.224-0.559,0.467-0.925,0.745c-0.378,0.255-0.795,0.576-1.293,0.844c-0.247,0.141-0.504,0.289-0.77,0.441
									c-0.273,0.139-0.564,0.264-0.86,0.403c-0.586,0.293-1.245,0.506-1.922,0.743c-0.694,0.171-1.403,0.421-2.156,0.518
									c-0.749,0.121-1.514,0.227-2.289,0.226c-0.387,0-0.773,0.032-1.158,0.005c-0.384-0.037-0.766-0.073-1.145-0.11
									c-0.763-0.034-1.483-0.283-2.188-0.432c-0.714-0.123-1.34-0.47-1.955-0.693c-0.62-0.21-1.16-0.555-1.654-0.851
									c-0.488-0.301-0.962-0.544-1.296-0.845c-0.351-0.283-0.646-0.547-0.892-0.76
									C148.013,378.044,147.743,377.782,147.743,377.782z"/>
							</g>
							<g>
								<path style="fill:#161114;" d="M155.926,345.565c0,0-0.086-0.067-0.247-0.193c-0.151-0.129-0.396-0.293-0.683-0.514
									c-0.277-0.226-0.668-0.452-1.047-0.744c-0.423-0.255-0.861-0.565-1.374-0.835c-0.485-0.308-1.049-0.553-1.607-0.834
									c-0.285-0.131-0.59-0.229-0.887-0.349c-0.15-0.057-0.3-0.115-0.448-0.181l-0.473-0.123c-0.32-0.07-0.625-0.193-0.948-0.256
									c-0.329-0.039-0.657-0.085-0.983-0.148c-0.321-0.092-0.667-0.038-1.001-0.065c-0.337,0.002-0.67-0.065-1.012-0.017
									l-1.027,0.098l-0.514,0.037l-0.512,0.119c-0.677,0.182-1.378,0.217-2.03,0.488c-0.653,0.237-1.332,0.363-1.943,0.617
									c-0.611,0.254-1.206,0.482-1.77,0.684c-0.577,0.18-1.076,0.422-1.534,0.618c-0.45,0.207-0.872,0.359-1.216,0.493
									c-0.692,0.263-1.126,0.386-1.126,0.386s0.212-0.376,0.649-0.985c0.22-0.302,0.485-0.68,0.821-1.081
									c0.33-0.409,0.691-0.892,1.191-1.302c0.482-0.432,1.02-0.892,1.608-1.364c0.591-0.467,1.324-0.823,2.053-1.237
									c0.713-0.445,1.59-0.674,2.448-0.954l0.653-0.201c0.228-0.043,0.461-0.069,0.693-0.098l1.403-0.164
									c0.469-0.042,0.953,0.038,1.426,0.057c0.475,0.039,0.948,0.058,1.402,0.201c0.458,0.113,0.907,0.242,1.345,0.375
									c0.432,0.151,0.835,0.364,1.232,0.556c0.197,0.099,0.391,0.197,0.585,0.294c0.177,0.122,0.353,0.243,0.527,0.362
									c0.337,0.251,0.688,0.461,0.978,0.73c0.58,0.537,1.107,1.047,1.503,1.594c0.432,0.511,0.717,1.064,0.99,1.519
									c0.247,0.478,0.439,0.898,0.562,1.264c0.14,0.351,0.206,0.653,0.256,0.85C155.917,345.455,155.926,345.565,155.926,345.565z
									"/>
							</g>
							<g>
								<path style="fill:#161114;" d="M185.772,345.565c0,0-0.086-0.067-0.247-0.193c-0.151-0.129-0.396-0.293-0.683-0.514
									c-0.277-0.226-0.667-0.452-1.047-0.744c-0.423-0.255-0.861-0.565-1.374-0.835c-0.485-0.308-1.049-0.553-1.607-0.834
									c-0.285-0.131-0.59-0.229-0.887-0.349c-0.15-0.057-0.3-0.115-0.448-0.181l-0.473-0.123c-0.32-0.07-0.625-0.193-0.948-0.256
									c-0.33-0.039-0.657-0.085-0.983-0.148c-0.321-0.092-0.667-0.038-1.001-0.065c-0.337,0.002-0.67-0.065-1.012-0.017
									l-1.027,0.098l-0.514,0.037l-0.512,0.119c-0.677,0.182-1.378,0.217-2.03,0.488c-0.653,0.237-1.332,0.363-1.943,0.617
									c-0.611,0.254-1.206,0.482-1.77,0.684c-0.577,0.18-1.076,0.422-1.534,0.618c-0.45,0.207-0.872,0.359-1.216,0.493
									c-0.693,0.263-1.126,0.386-1.126,0.386s0.212-0.376,0.649-0.985c0.22-0.302,0.485-0.68,0.821-1.081
									c0.33-0.409,0.691-0.892,1.191-1.302c0.482-0.432,1.02-0.892,1.608-1.364c0.591-0.467,1.324-0.823,2.053-1.237
									c0.713-0.445,1.59-0.674,2.448-0.954l0.653-0.201c0.228-0.043,0.461-0.069,0.693-0.098l1.403-0.164
									c0.469-0.042,0.953,0.038,1.426,0.057c0.475,0.039,0.948,0.058,1.402,0.201c0.458,0.113,0.907,0.242,1.346,0.375
									c0.432,0.151,0.835,0.364,1.232,0.556c0.197,0.099,0.391,0.197,0.585,0.294c0.177,0.122,0.353,0.243,0.527,0.362
									c0.337,0.251,0.688,0.461,0.978,0.73c0.58,0.537,1.107,1.047,1.503,1.594c0.432,0.511,0.717,1.064,0.99,1.519
									c0.247,0.478,0.439,0.898,0.562,1.264c0.14,0.351,0.206,0.653,0.256,0.85C185.762,345.455,185.772,345.565,185.772,345.565z
									"/>
							</g>
						</g>
						<g>
							<g>
								<path style="fill:#161114;" d="M150.581,352.073c0,0,0.096,0.322,0.193,0.904c0.092,0.581,0.192,1.423,0.139,2.449
									c-0.022,0.258-0.044,0.526-0.067,0.803c-0.044,0.278-0.097,0.564-0.158,0.86c-0.152,0.586-0.332,1.22-0.696,1.823
									c-0.173,0.307-0.369,0.61-0.634,0.885c-0.225,0.303-0.554,0.526-0.875,0.756c-0.328,0.213-0.713,0.354-1.081,0.496
									l-0.579,0.116l-0.291,0.054l-0.073,0.013l-0.018,0.003l-0.109,0.002l-0.031-0.001l-0.124-0.003
									c-0.352-0.035-0.595,0.023-1.077-0.126c-0.216-0.057-0.431-0.12-0.64-0.188c-0.181-0.092-0.353-0.194-0.527-0.294
									c-0.702-0.398-1.162-1.02-1.541-1.593c-0.705-1.195-0.969-2.398-1.109-3.408c-0.141-1.014-0.124-1.86-0.088-2.447
									c0.039-0.588,0.1-0.918,0.1-0.918s0.076,0.328,0.221,0.888c0.143,0.56,0.361,1.353,0.674,2.264
									c0.161,0.453,0.351,0.934,0.572,1.42c0.221,0.488,0.51,0.957,0.818,1.407c0.169,0.207,0.346,0.414,0.534,0.597
									c0.214,0.141,0.388,0.355,0.62,0.444l0.327,0.178c0.105,0.02,0.206,0.046,0.306,0.078c0.138,0.101,0.573,0.056,0.874,0.078
									l0.123,0.006l0.031,0.001l0.008,0c0.086-0.001-0.108,0.002-0.086,0.001l0.012-0.002l0.049-0.009l0.195-0.034l0.391-0.06
									c0.236-0.095,0.485-0.166,0.7-0.298c0.42-0.272,0.83-0.604,1.119-1.062c0.307-0.435,0.546-0.931,0.749-1.418
									c0.181-0.498,0.338-0.986,0.463-1.449c0.233-0.93,0.369-1.74,0.458-2.311C150.542,352.408,150.581,352.073,150.581,352.073z
									"/>
							</g>
							<g>
								<path style="fill:#161114;" d="M178.435,352.073c0,0,0.096,0.322,0.193,0.904c0.092,0.581,0.192,1.423,0.139,2.449
									c-0.022,0.258-0.044,0.526-0.067,0.803c-0.044,0.278-0.097,0.564-0.158,0.86c-0.152,0.586-0.332,1.22-0.696,1.823
									c-0.173,0.307-0.369,0.61-0.634,0.885c-0.225,0.303-0.554,0.526-0.875,0.756c-0.328,0.213-0.713,0.354-1.081,0.496
									l-0.579,0.116l-0.291,0.054l-0.073,0.013l-0.018,0.003l-0.109,0.002l-0.031-0.001l-0.123-0.003
									c-0.352-0.035-0.595,0.023-1.077-0.126c-0.216-0.057-0.431-0.12-0.64-0.188c-0.181-0.092-0.353-0.194-0.527-0.294
									c-0.702-0.398-1.162-1.02-1.541-1.594c-0.705-1.194-0.969-2.397-1.109-3.408c-0.141-1.014-0.125-1.86-0.088-2.447
									c0.039-0.588,0.1-0.918,0.1-0.918s0.076,0.328,0.221,0.888c0.143,0.56,0.361,1.353,0.674,2.264
									c0.161,0.453,0.351,0.934,0.572,1.42c0.221,0.488,0.51,0.957,0.817,1.407c0.17,0.207,0.346,0.414,0.534,0.597
									c0.214,0.141,0.388,0.355,0.621,0.444l0.327,0.178c0.105,0.02,0.206,0.046,0.306,0.078c0.138,0.101,0.573,0.056,0.874,0.078
									l0.123,0.006l0.031,0.001l0.008,0c0.086-0.001-0.108,0.002-0.086,0.001l0.012-0.002l0.049-0.009l0.195-0.034l0.391-0.06
									c0.236-0.095,0.485-0.166,0.7-0.298c0.42-0.272,0.83-0.604,1.119-1.062c0.307-0.435,0.546-0.931,0.749-1.418
									c0.181-0.498,0.338-0.986,0.463-1.449c0.233-0.93,0.369-1.74,0.458-2.311C178.396,352.408,178.435,352.073,178.435,352.073z
									"/>
							</g>
						</g>
					</g>
					<path style="fill:#723021;" d="M193.882,306.032c-29.932-23.452-43.709-7.419-47.512-1.326
						c-1.779-2.861-4.962-5.809-10.421-5.172c-11.073,1.292-25.619,17.816-12.121,48.829c0.858,20.153,6.286,52.796,33.66,53.853
						c34.735,1.342,35.731-34.841,35.291-45.955c0.802-3.817,2.078-7.224,4.065-6.782
						C196.844,349.478,212.97,320.988,193.882,306.032z M163.987,389.218c-2.414-0.371-2.785-4.828-2.785-4.828l-4.828,0.186
						c0,0,0.371,5.942-3.714,4.642c-6.155-1.958-4.456-12.069-4.456-12.069c5.942,0.928,9.655-2.414,9.655-2.414
						c5.942,3.899,11.884,2.785,11.884,2.785C171.228,387.361,166.4,389.589,163.987,389.218z M187.568,367.307
						c-1.982,9.574-5.803,19.189-9.841,18.568c-7.242-1.114-2.322-8.839-5.942-11.512c-6.035-4.456-29.071-6.74-27.852,5.013
						c1.272,12.267-15.765,2.106-14.4-32.279l0.276-5.292c0.005-0.101,0.239-4.579,0.239-4.579c2.494-0.767,3.492-4.138,3.794-7.914
						c0.709,1.396,1.995,2.813,4.335,3.458c0,0-1.485-24.139,7.427-15.597c0,0,7.242-6.87,8.17,2.971
						c0.928,9.841-1.857,13.369-1.857,13.369s6.87,2.971,9.656-12.069c0,0,2.971,10.77-2.785,15.04c0,0,9.828,0.457,11.187-10.077
						c-0.269,3.91-1.061,9.907-3.389,11.377c0,0,8.727-1.114,7.056-15.969c0,0,2.042,9.47,0.371,13.555c0,0,5.299-0.239,9.082-3.99
						c-0.472,1.99-1.076,3.749-1.841,4.733c0,0,4.724,0.141,7.772-2.685l-0.094,24.985
						C188.566,361.589,188.12,364.641,187.568,367.307z"/>
				</g>
			</g>
		</g>
	</g>
	<g>
		<g style="opacity:0.2;">
			<path style="fill:#C1DB4D;" d="M598.868,242.967c-28.932,0-53.1-10.303-72.488-30.939
				c-19.388-20.621-29.083-45.705-29.083-75.261c0-30.15,9.394-54.16,28.166-72.023c18.787-17.848,41.708-26.783,68.791-26.783
				c18.471,0,36.011,4.471,52.634,13.391c16.623,8.928,30.014,21.237,40.174,36.936c10.145,15.699,15.225,32.78,15.225,51.251
				c0,27.7-9.829,51.868-29.549,72.488C653.05,232.664,628.416,242.967,598.868,242.967z"/>
		</g>
		<g>
			<defs>
				<path id="SVGID_00000092442365936329515770000008685060479367943584_" d="M598.868,242.967c-28.932,0-53.1-10.303-72.488-30.939
					c-19.388-20.621-29.083-45.705-29.083-75.261c0-30.15,9.394-54.16,28.166-72.023c18.787-17.848,41.708-26.783,68.791-26.783
					c18.471,0,36.011,4.471,52.634,13.391c16.623,8.928,30.014,21.237,40.174,36.936c10.145,15.699,15.225,32.78,15.225,51.251
					c0,27.7-9.829,51.868-29.549,72.488C653.05,232.664,628.416,242.967,598.868,242.967z"/>
			</defs>
			<clipPath id="SVGID_00000150090587958808809950000003828452447058714516_">
				<use xlink:href="#SVGID_00000092442365936329515770000008685060479367943584_"  style="overflow:visible;"/>
			</clipPath>
			<g style="clip-path:url(#SVGID_00000150090587958808809950000003828452447058714516_);">
				<g>
					<g>
						<path style="fill:#FFB899;" d="M578.537,187.471c6.464-5.295,0.462-35.622,0.462-35.622h36.628c0,0-6.002,30.326,0.462,35.622
							c6.464,5.295,48.912,4.656,45.013,57.993H536.543C531.727,191.987,572.074,192.766,578.537,187.471z"/>
						<path style="fill:#EFA084;" d="M580.404,184.442c3.197-9.336-1.405-32.593-1.405-32.593h36.628c0,0-2.471,12.504-2.53,22.857
							C603.874,181.671,592.288,184.429,580.404,184.442z"/>
					</g>
					<g>
						<path style="fill:#86C1E2;" d="M666.076,233.487c-3.899-42.336-38.613-42.343-38.613-42.343l0,0.016
							c-0.031-0.005-0.06-0.012-0.092-0.016c0,0-5.399,16.71-29.857,16.842c-24.458-0.132-29.857-16.842-29.857-16.842
							s-34.714,0.007-38.613,42.343l25.495,4.668c-0.489,2.428-1.053,4.922-1.759,7.52l44.447,0.342v0.004l0.286-0.002l0.287,0.002
							v-0.004l45.81-0.346c-0.727-2.676-1.309-5.245-1.805-7.74L666.076,233.487z"/>
						<g>
							<defs>
								<path id="SVGID_00000057128254273671003580000000724636413275225007_" d="M666.076,233.487
									c-3.899-42.336-38.613-42.343-38.613-42.343l0,0.016c-0.031-0.005-0.06-0.012-0.092-0.016c0,0-5.399,16.71-29.857,16.842
									c-24.458-0.132-29.857-16.842-29.857-16.842s-34.714,0.007-38.613,42.343l25.495,4.668c-0.489,2.428-1.053,4.922-1.759,7.52
									l44.447,0.342v0.004l0.286-0.002l0.287,0.002v-0.004l45.81-0.346c-0.727-2.676-1.309-5.245-1.805-7.74L666.076,233.487z"/>
							</defs>
							<clipPath id="SVGID_00000139258589655841747840000005128829650648710532_">
								<use xlink:href="#SVGID_00000057128254273671003580000000724636413275225007_"  style="overflow:visible;"/>
							</clipPath>
							<g style="clip-path:url(#SVGID_00000139258589655841747840000005128829650648710532_);">
								<rect x="507.473" y="195.272" style="fill:#FFFFFF;" width="171.57" height="2.716"/>
								<rect x="507.473" y="204.004" style="fill:#FFFFFF;" width="171.57" height="2.716"/>
								<rect x="507.473" y="212.735" style="fill:#FFFFFF;" width="171.57" height="2.716"/>
								<rect x="507.473" y="221.467" style="fill:#FFFFFF;" width="171.57" height="2.716"/>
								<rect x="507.473" y="238.93" style="fill:#FFFFFF;" width="171.57" height="2.716"/>
								<rect x="507.473" y="230.198" style="fill:#FFFFFF;" width="171.57" height="2.716"/>
							</g>
						</g>
					</g>
				</g>
				<g>
					<g>
						<g>
							<path style="fill:#EFA084;" d="M637.99,139.866c-1.796,6.572-6.852,12.399-10.827,11.313
								c-3.975-1.086-5.364-8.675-3.568-15.247c1.796-6.572,6.097-9.638,10.072-8.552
								C637.642,128.466,639.786,133.294,637.99,139.866z"/>
							<path style="fill:#EFA084;" d="M557.035,139.866c1.796,6.572,6.852,12.399,10.827,11.313
								c3.975-1.086,5.364-8.675,3.568-15.247c-1.796-6.572-6.097-9.638-10.072-8.552
								C557.383,128.466,555.239,133.294,557.035,139.866z"/>
							<path style="fill:#FFB899;" d="M630.477,128.084c0,24.06-14.871,48.619-33.215,48.619c-18.344,0-33.215-24.559-33.215-48.619
								s14.871-38.51,33.215-38.51C615.606,89.574,630.477,104.024,630.477,128.084z"/>
						</g>
						<g>
							<g>
								<path style="fill:#723021;" d="M597.192,79.743c0,0-41.783,0.743-38.07,49.02c0,0,2.414-2.6,4.925-0.678
									c0,0-3.439,44.499,11.787,51.184c0,0-10.398-23.396-0.371-70.559L597.192,79.743z"/>
								<path style="fill:#723021;" d="M598.116,79.743c0,0,43.078,0.743,38.431,49.02c0,0-2.414-2.6-4.925-0.678
									c0,0,3.439,44.499-11.787,51.184c0,0,10.398-23.396,0.371-70.559L598.116,79.743z"/>
							</g>
							<path style="fill:#723021;" d="M598.116,79.743c0,0-27.295,5.385-24.324,40.664c0,0,1.621,0.29,4.567,0.629
								c-0.455-3.805-1.006-13.034,2.861-21.054c0,0-3.241,10.477-0.526,21.301c3.54,0.347,8.325,0.683,14.08,0.779v-19.295
								l1.009,19.311c2.305,0.026,4.764,0.01,7.347-0.057v-9.413l1.156,9.381c3.608-0.115,7.456-0.335,11.504-0.7
								c0.193-3.85,0-9.689-2.262-14.438c0,0,3.071,4.515,4.029,14.268c1.06-0.105,2.128-0.216,3.213-0.342
								C620.769,120.778,624.107,84.199,598.116,79.743z"/>
						</g>
					</g>
					<g>
						<g>
							<g>
								<path style="fill:#F77B59;" d="M637.237,137.07c-0.176-0.831-0.385-1.648-0.645-2.429c-0.136-0.388-0.289-0.765-0.467-1.107
									c-0.18-0.333-0.42-0.641-0.64-0.743c-0.198-0.092-0.36-0.051-0.634,0.129c-0.052,0.046-0.154,0.112-0.166,0.136
									c-0.066,0.07-0.172,0.155-0.206,0.213c-0.076,0.104-0.176,0.243-0.275,0.401c-0.377,0.637-0.636,1.405-0.871,2.177
									c-0.237,0.774-0.428,1.575-0.594,2.383c-0.182,0.805-0.338,1.621-0.478,2.44c-0.292,1.636-0.557,3.294-0.79,4.941
									l-0.211-0.441c0.272,0.215,0.482,0.427,0.695,0.674c0.207,0.245,0.395,0.516,0.538,0.829
									c0.138,0.312,0.224,0.689,0.157,1.065c-0.073,0.377-0.292,0.69-0.537,0.91c-0.498,0.448-1.082,0.641-1.65,0.803
									c-0.571,0.158-1.153,0.235-1.73,0.297c0.555-0.174,1.101-0.372,1.62-0.603c0.507-0.242,1.021-0.519,1.34-0.904
									c0.334-0.388,0.326-0.8,0.084-1.21c-0.121-0.203-0.286-0.397-0.474-0.575c-0.184-0.174-0.407-0.35-0.605-0.473l-0.218-0.136
									l0.007-0.306c0.037-1.709,0.171-3.397,0.403-5.088c0.241-1.688,0.566-3.371,1.12-5.029c0.277-0.829,0.628-1.648,1.154-2.436
									c0.139-0.19,0.287-0.39,0.501-0.593c0.102-0.104,0.171-0.141,0.258-0.215c0.144-0.118,0.231-0.151,0.35-0.228
									c0.241-0.12,0.502-0.24,0.831-0.254c0.32-0.022,0.667,0.08,0.916,0.256c0.49,0.37,0.678,0.833,0.846,1.257
									c0.155,0.431,0.242,0.864,0.303,1.295C637.291,135.363,637.303,136.221,637.237,137.07z"/>
							</g>
							<g>
								<path style="fill:#F77B59;" d="M557.809,137.07c-0.066-0.849-0.054-1.707,0.07-2.566c0.061-0.431,0.148-0.863,0.303-1.295
									c0.167-0.424,0.355-0.887,0.846-1.257c0.249-0.176,0.595-0.278,0.916-0.256c0.329,0.014,0.59,0.134,0.831,0.254
									c0.119,0.077,0.205,0.11,0.35,0.228c0.087,0.074,0.156,0.111,0.258,0.215c0.215,0.202,0.363,0.403,0.501,0.593
									c0.526,0.788,0.876,1.607,1.153,2.436c0.554,1.658,0.879,3.341,1.12,5.029c0.232,1.691,0.365,3.379,0.402,5.088l0.007,0.306
									l-0.218,0.136c-0.198,0.123-0.42,0.299-0.605,0.473c-0.187,0.178-0.352,0.372-0.474,0.575
									c-0.242,0.41-0.25,0.822,0.084,1.21c0.319,0.385,0.833,0.662,1.34,0.904c0.519,0.232,1.065,0.43,1.62,0.603
									c-0.578-0.062-1.159-0.139-1.73-0.297c-0.567-0.162-1.152-0.354-1.65-0.803c-0.245-0.22-0.464-0.534-0.537-0.91
									c-0.067-0.377,0.019-0.753,0.157-1.065c0.142-0.313,0.331-0.584,0.538-0.829c0.213-0.246,0.424-0.458,0.695-0.674
									l-0.211,0.441c-0.233-1.648-0.498-3.306-0.79-4.941c-0.139-0.82-0.295-1.635-0.478-2.44
									c-0.166-0.808-0.357-1.609-0.594-2.383c-0.235-0.772-0.494-1.54-0.871-2.177c-0.099-0.158-0.2-0.297-0.275-0.401
									c-0.034-0.058-0.139-0.143-0.205-0.213c-0.012-0.024-0.114-0.09-0.166-0.136c-0.274-0.179-0.436-0.221-0.634-0.129
									c-0.22,0.102-0.46,0.41-0.64,0.743c-0.178,0.342-0.332,0.72-0.467,1.107C558.195,135.422,557.985,136.239,557.809,137.07z"
									/>
							</g>
						</g>
						<g>
							<g>
								<path style="fill:#F77B59;" d="M593.934,138.051c0.029,0.452,0.036,0.9,0.036,1.346c-0.043,0.445-0.068,0.903-0.132,1.356
									c-0.089,0.441-0.158,0.894-0.268,1.335l-0.404,1.311l-0.553,1.267c-0.215,0.411-0.453,0.81-0.687,1.213l-0.832,1.129
									c-0.322,0.342-0.637,0.691-0.968,1.023l-0.14-1.457c0.523,0.359,1.026,0.748,1.534,1.128
									c0.514,0.372,0.997,0.79,1.494,1.189c0.972,0.829,1.928,1.681,2.798,2.665c-1.245-0.415-2.405-0.961-3.547-1.532
									c-0.561-0.301-1.135-0.582-1.678-0.91c-0.549-0.319-1.104-0.63-1.639-0.97l-0.886-0.564l0.746-0.893
									c0.26-0.312,0.537-0.606,0.807-0.908l0.745-0.967c0.227-0.341,0.446-0.686,0.69-1.019l0.63-1.073l0.596-1.113
									c0.166-0.388,0.374-0.764,0.561-1.153c0.159-0.392,0.358-0.78,0.538-1.18C593.549,138.865,593.731,138.456,593.934,138.051z
									"/>
							</g>
							<g>
								<path style="fill:#F77B59;" d="M607.946,156.657c0,0-0.183,0.344-0.605,0.878c-0.203,0.276-0.481,0.578-0.804,0.931
									c-0.346,0.322-0.711,0.731-1.186,1.077c-0.233,0.182-0.476,0.373-0.728,0.569c-0.27,0.172-0.55,0.35-0.837,0.532
									c-0.578,0.362-1.235,0.679-1.929,0.966c-0.714,0.237-1.441,0.545-2.236,0.655c-0.394,0.061-0.784,0.185-1.19,0.193
									l-1.217,0.056c-0.813,0.038-1.619-0.132-2.41-0.21c-0.775-0.176-1.519-0.427-2.237-0.639
									c-0.686-0.302-1.333-0.627-1.941-0.928c-0.597-0.322-1.099-0.73-1.581-1.062c-0.237-0.171-0.464-0.335-0.679-0.491
									c-0.208-0.165-0.379-0.357-0.553-0.518c-0.344-0.327-0.629-0.626-0.864-0.868c-0.468-0.488-0.718-0.777-0.718-0.777
									s0.357,0.166,0.951,0.473c0.295,0.156,0.655,0.339,1.051,0.567c0.387,0.242,0.864,0.442,1.376,0.663
									c0.516,0.211,1.046,0.489,1.63,0.713c0.599,0.19,1.225,0.383,1.856,0.617c0.654,0.132,1.33,0.269,2.017,0.408
									c0.346,0.028,0.695,0.056,1.045,0.084c0.349,0.034,0.699,0.082,1.05,0.044c0.703-0.017,1.406-0.026,2.09-0.161
									c0.693-0.069,1.355-0.258,2.006-0.417c0.63-0.217,1.265-0.393,1.834-0.645c0.573-0.246,1.12-0.481,1.607-0.743
									c0.501-0.238,0.927-0.518,1.334-0.731c0.375-0.253,0.736-0.444,1.002-0.637
									C607.639,156.896,607.946,156.657,607.946,156.657z"/>
							</g>
							<g>
								<path style="fill:#161114;" d="M623.183,130.991c0,0-0.332-0.243-0.913-0.667c-0.581-0.407-1.39-0.982-2.38-1.566
									c-0.979-0.596-2.134-1.201-3.374-1.675c-1.247-0.455-2.576-0.783-3.919-0.813c-0.671-0.053-1.344,0.025-2.013,0.085
									c-0.335,0.058-0.667,0.116-0.995,0.173c-0.33,0.081-0.656,0.162-0.977,0.241c-0.323,0.099-0.64,0.197-0.95,0.292
									c-0.312,0.113-0.617,0.224-0.914,0.332c-0.584,0.254-1.168,0.465-1.681,0.728c-0.528,0.237-1.02,0.464-1.447,0.689
									c-0.431,0.219-0.826,0.398-1.134,0.571c-0.631,0.329-1.027,0.497-1.027,0.497s0.189-0.373,0.581-0.99
									c0.192-0.313,0.441-0.682,0.77-1.068c0.161-0.2,0.332-0.412,0.513-0.635c0.201-0.206,0.412-0.423,0.632-0.65
									c0.438-0.462,0.987-0.886,1.571-1.341c0.312-0.204,0.632-0.414,0.96-0.629c0.336-0.206,0.707-0.374,1.074-0.567
									c0.753-0.349,1.578-0.641,2.452-0.834c0.879-0.173,1.798-0.278,2.719-0.232c0.92,0.033,1.835,0.196,2.693,0.457
									c0.865,0.247,1.657,0.63,2.385,1.036c1.441,0.847,2.56,1.897,3.361,2.891c0.806,0.994,1.311,1.925,1.615,2.593
									C623.086,130.577,623.183,130.991,623.183,130.991z"/>
							</g>
							<g>
								<path style="fill:#161114;" d="M592.824,130.991c0,0-0.332-0.243-0.913-0.667c-0.581-0.407-1.39-0.982-2.38-1.566
									c-0.979-0.596-2.134-1.201-3.374-1.675c-1.247-0.455-2.576-0.783-3.919-0.813c-0.671-0.053-1.344,0.025-2.013,0.085
									c-0.335,0.058-0.667,0.116-0.995,0.173c-0.33,0.081-0.656,0.162-0.977,0.241c-0.323,0.099-0.64,0.197-0.95,0.292
									c-0.312,0.113-0.617,0.224-0.914,0.332c-0.584,0.254-1.168,0.465-1.682,0.728c-0.528,0.237-1.02,0.464-1.447,0.689
									c-0.431,0.219-0.826,0.398-1.134,0.571c-0.631,0.329-1.027,0.497-1.027,0.497s0.189-0.373,0.581-0.99
									c0.192-0.313,0.441-0.682,0.77-1.068c0.161-0.2,0.332-0.412,0.512-0.635c0.201-0.206,0.412-0.423,0.632-0.65
									c0.438-0.462,0.987-0.886,1.571-1.341c0.312-0.204,0.632-0.414,0.96-0.629c0.336-0.206,0.707-0.374,1.074-0.567
									c0.753-0.349,1.578-0.641,2.453-0.834c0.878-0.173,1.797-0.278,2.719-0.232c0.921,0.033,1.835,0.196,2.693,0.457
									c0.865,0.247,1.657,0.63,2.384,1.036c1.441,0.847,2.56,1.897,3.361,2.891c0.806,0.994,1.311,1.925,1.615,2.593
									C592.727,130.577,592.824,130.991,592.824,130.991z"/>
							</g>
							<ellipse style="fill:#161114;" cx="611.711" cy="139.663" rx="1.617" ry="4.734"/>
							<ellipse style="fill:#161114;" cx="583.495" cy="139.022" rx="1.617" ry="4.734"/>
						</g>
					</g>
				</g>
			</g>
		</g>
	</g>
	<g>
		<g style="opacity:0.1;">
			<path style="fill:#D84848;" d="M450.231,213.099c-20.53,20.53-44.991,30.369-73.392,29.484
				c-28.39-0.875-53.069-11.796-74.042-32.768c-21.394-21.394-31.766-45.097-31.121-71.093c0.667-25.996,10.59-48.601,29.809-67.819
				c13.107-13.107,28.727-22.381,46.852-27.847c18.131-5.46,36.368-6.229,54.717-2.298c18.339,3.941,34.064,12.457,47.172,25.564
				c19.656,19.656,29.83,43.78,30.47,72.405C481.368,167.341,471.199,192.132,450.231,213.099z"/>
		</g>
		<g>
			<defs>
				<path id="SVGID_00000145021109529719133600000008791479197106966675_" d="M450.231,213.099
					c-20.53,20.53-44.991,30.369-73.392,29.484c-28.39-0.875-53.069-11.796-74.042-32.768
					c-21.394-21.394-31.766-45.097-31.121-71.093c0.667-25.996,10.59-48.601,29.809-67.819
					c13.107-13.107,28.727-22.381,46.852-27.847c18.131-5.46,36.368-6.229,54.717-2.298c18.339,3.941,34.064,12.457,47.172,25.564
					c19.656,19.656,29.83,43.78,30.47,72.405C481.368,167.341,471.199,192.132,450.231,213.099z"/>
			</defs>
			<clipPath id="SVGID_00000031912462165511634650000010052529637143775130_">
				<use xlink:href="#SVGID_00000145021109529719133600000008791479197106966675_"  style="overflow:visible;"/>
			</clipPath>
			<g style="clip-path:url(#SVGID_00000031912462165511634650000010052529637143775130_);">
				<g>
					<g>
						<path style="fill:#FFB899;" d="M352.452,187.347c6.739-5.295,0.481-35.622,0.481-35.622h38.19c0,0-6.258,30.327,0.481,35.622
							c6.739,5.295,57.765,4.814,52.951,55.839H299.501C294.688,192.161,345.713,192.642,352.452,187.347z"/>
						<path style="fill:#EFA084;" d="M354.399,184.319c3.334-9.336-1.465-32.593-1.465-32.593h38.19c0,0-2.577,12.505-2.638,22.857
							C378.87,181.548,366.789,184.306,354.399,184.319z"/>
					</g>
					<g>
						<path style="fill:#C1DB4D;" d="M342.171,188.791c0,0,5.399,16.71,29.857,16.842c24.458-0.132,29.857-16.842,29.857-16.842
							c55.346,12.034,43.486,54.395,43.486,54.395l-73.057,0.478v0.004l-0.287-0.002l-0.287,0.002v-0.004l-73.057-0.478
							C298.685,243.186,286.826,200.826,342.171,188.791z"/>
						<g>
							<path style="fill:#D84848;" d="M407.831,187.685l-9.708,56.138l36.447-0.433v-41.221
								C434.569,202.168,421.757,192.141,407.831,187.685z"/>
							<path style="fill:#D84848;" d="M336.529,187.685l9.677,56.138l-36.415-0.433v-41.221
								C309.791,202.168,322.603,192.141,336.529,187.685z"/>
						</g>
					</g>
				</g>
				<g>
					<g>
						<g>
							<path style="fill:#DB5223;" d="M362.854,77.018c0,0-25.624-1.215-31.195,20.054c-4.085,15.597,2.228,28.595,2.228,28.595
								L348,123.439L362.854,77.018z"/>
							<g>
								<path style="fill:#EFA084;" d="M412.506,137.513c-1.796,6.572-6.852,12.399-10.827,11.313
									c-3.975-1.086-5.364-8.675-3.568-15.247c1.796-6.572,6.097-9.638,10.072-8.552
									C412.159,126.113,414.302,130.941,412.506,137.513z"/>
								<path style="fill:#EFA084;" d="M331.551,137.513c1.796,6.572,6.852,12.399,10.827,11.313
									c3.975-1.086,5.364-8.675,3.568-15.247c-1.796-6.572-6.097-9.638-10.072-8.552
									C331.899,126.113,329.755,130.941,331.551,137.513z"/>
								<path style="fill:#FFB899;" d="M404.993,125.731c0,24.06-14.871,48.619-33.215,48.619
									c-18.344,0-33.215-24.559-33.215-48.619c0-24.06,12.26-36.458,30.604-36.458
									C387.512,89.273,404.993,101.671,404.993,125.731z"/>
							</g>
						</g>
						<g>
							<path style="fill:#DB5223;" d="M401.082,141.617l3.129,0.241c0,0,0.963-17.329,5.295-16.367c0,0,9.628-24.069-0.722-35.381
								c-11.509-12.579-18.773,3.129-18.773,3.129s3.61,17.329,12.997,21.421L401.082,141.617z"/>
							<path style="fill:#DB5223;" d="M347.484,90.017c0,0-9.882,12.626-8.397,25.623l2.305,22.848l-1.926,0.481
								c0,0-4.464-26.459-4.464-36.327C335.002,92.774,347.484,90.017,347.484,90.017z"/>
							<path style="fill:#DB5223;" d="M358.77,78.875c0,0-8.17,27.481,17.826,33.051c0,0-9.656-2.228-9.656-12.255
								c0,0,7.427,15.226,31.195,15.597l0.743-8.541l13.369,7.056c0,0,12.255-31.937-21.91-42.707
								C358.981,61.193,358.77,78.875,358.77,78.875z"/>
						</g>
					</g>
					<g>
						<g>
							<g>
								<path style="fill:#F77B59;" d="M411.753,134.717c-0.216-0.828-0.459-1.639-0.741-2.406c-0.148-0.38-0.313-0.748-0.495-1.076
									c-0.182-0.318-0.431-0.6-0.605-0.658c-0.144-0.041-0.199-0.014-0.448,0.15c-0.041,0.04-0.146,0.112-0.135,0.12
									c-0.063,0.07-0.174,0.163-0.197,0.213l-0.238,0.369c-0.352,0.612-0.596,1.371-0.824,2.133
									c-0.231,0.765-0.417,1.56-0.58,2.363c-0.184,0.799-0.342,1.61-0.484,2.426l-0.438,2.454
									c-0.137,0.82-0.297,1.647-0.417,2.463l-0.282-0.589c0.284,0.23,0.492,0.449,0.711,0.707c0.21,0.256,0.403,0.54,0.548,0.871
									c0.141,0.33,0.231,0.735,0.154,1.141c-0.084,0.406-0.324,0.737-0.584,0.962c-0.528,0.459-1.124,0.637-1.702,0.786
									c-0.58,0.145-1.167,0.202-1.749,0.246c0.551-0.193,1.091-0.41,1.601-0.655c0.253-0.125,0.5-0.261,0.72-0.417
									c0.225-0.148,0.428-0.318,0.568-0.504c0.297-0.385,0.259-0.706,0.035-1.083c-0.118-0.185-0.279-0.366-0.463-0.533
									c-0.18-0.162-0.404-0.332-0.59-0.44l-0.288-0.167l0.006-0.422c0.012-0.863,0.025-1.71,0.086-2.563
									c0.068-0.849,0.134-1.702,0.252-2.549c0.122-0.847,0.262-1.694,0.432-2.541c0.194-0.842,0.416-1.683,0.696-2.523
									c0.284-0.839,0.65-1.666,1.201-2.479c0.145-0.196,0.301-0.406,0.539-0.625c0.113-0.112,0.176-0.141,0.266-0.215
									c0.167-0.134,0.251-0.161,0.381-0.243c0.26-0.127,0.544-0.254,0.912-0.268c0.357-0.023,0.748,0.095,1.021,0.293
									c0.536,0.414,0.715,0.903,0.88,1.342c0.151,0.446,0.227,0.888,0.276,1.326C411.88,133.001,411.859,133.865,411.753,134.717z
									"/>
							</g>
							<g>
								<path style="fill:#F77B59;" d="M332.325,134.717c-0.106-0.852-0.127-1.716-0.026-2.589c0.048-0.438,0.125-0.88,0.276-1.326
									c0.165-0.439,0.344-0.928,0.88-1.342c0.273-0.197,0.663-0.315,1.02-0.292c0.368,0.014,0.652,0.142,0.912,0.268
									c0.13,0.082,0.214,0.109,0.38,0.243c0.09,0.074,0.154,0.104,0.266,0.215c0.238,0.219,0.394,0.429,0.539,0.625
									c0.551,0.813,0.917,1.64,1.201,2.479c0.28,0.84,0.502,1.68,0.696,2.523c0.17,0.847,0.31,1.694,0.432,2.541
									c0.118,0.848,0.184,1.7,0.253,2.549c0.061,0.853,0.074,1.7,0.085,2.563l0.006,0.422l-0.288,0.167
									c-0.185,0.108-0.41,0.278-0.589,0.44c-0.184,0.167-0.345,0.348-0.463,0.533c-0.225,0.376-0.262,0.698,0.035,1.083
									c0.14,0.186,0.344,0.356,0.568,0.504c0.22,0.156,0.467,0.292,0.72,0.417c0.51,0.244,1.05,0.462,1.601,0.655
									c-0.581-0.044-1.169-0.101-1.749-0.246c-0.578-0.149-1.174-0.327-1.702-0.786c-0.259-0.226-0.499-0.556-0.584-0.962
									c-0.078-0.406,0.013-0.811,0.154-1.141c0.146-0.331,0.338-0.615,0.548-0.871c0.218-0.258,0.427-0.477,0.711-0.707
									l-0.282,0.589c-0.119-0.816-0.28-1.643-0.417-2.463l-0.438-2.454c-0.142-0.816-0.3-1.627-0.484-2.426
									c-0.162-0.803-0.348-1.598-0.58-2.363c-0.228-0.762-0.472-1.521-0.824-2.133l-0.238-0.369
									c-0.022-0.05-0.134-0.143-0.197-0.213c0.011-0.008-0.094-0.08-0.135-0.12c-0.249-0.164-0.305-0.192-0.448-0.15
									c-0.175,0.057-0.424,0.34-0.605,0.658c-0.182,0.328-0.346,0.696-0.495,1.076
									C332.784,133.078,332.542,133.889,332.325,134.717z"/>
							</g>
						</g>
						<g>
							<g>
								<path style="fill:#F77B59;" d="M370.033,125.731c-0.145,1.923-0.413,3.816-0.711,5.703c-0.306,1.884-0.67,3.755-1.058,5.62
									c-0.415,1.858-0.827,3.717-1.311,5.559c-0.225,0.925-0.476,1.844-0.736,2.76c-0.248,0.919-0.515,1.834-0.799,2.745
									l-0.58-0.884c1.042,0.246,2.075,0.537,3.109,0.829c1.031,0.307,2.061,0.619,3.078,1.001
									c-1.087,0.01-2.161-0.049-3.235-0.113c-1.071-0.08-2.142-0.16-3.204-0.285l-0.715-0.084l0.135-0.8
									c0.159-0.941,0.336-1.877,0.531-2.809c0.183-0.935,0.376-1.868,0.594-2.794c0.404-1.861,0.879-3.705,1.35-5.549
									c0.499-1.838,1.022-3.671,1.603-5.489C368.672,129.321,369.29,127.511,370.033,125.731z"/>
							</g>
							<g>
								<path style="fill:#F77B59;" d="M382.537,154.573c0,0-1.283,0.989-3.517,1.894c-0.559,0.218-1.164,0.472-1.829,0.656
									c-0.657,0.215-1.363,0.408-2.105,0.557c-0.737,0.173-1.517,0.278-2.306,0.386c-0.797,0.049-1.607,0.132-2.422,0.131
									c-0.816-0.044-1.632-0.03-2.43-0.163c-0.802-0.084-1.581-0.23-2.321-0.443c-0.371-0.1-0.738-0.183-1.09-0.292
									c-0.349-0.117-0.681-0.271-1.007-0.399c-0.652-0.261-1.263-0.508-1.777-0.851c-0.528-0.307-0.999-0.602-1.407-0.871
									c-0.386-0.31-0.707-0.596-0.972-0.827c-0.526-0.466-0.806-0.742-0.806-0.742s0.384,0.14,1.021,0.401
									c0.317,0.133,0.702,0.289,1.126,0.486c0.453,0.144,0.964,0.295,1.501,0.485c0.53,0.21,1.147,0.316,1.774,0.477
									c0.317,0.072,0.634,0.167,0.969,0.225c0.34,0.039,0.68,0.106,1.028,0.159c0.349,0.048,0.695,0.134,1.059,0.155
									c0.363,0.02,0.728,0.049,1.095,0.089c0.731,0.104,1.489,0.059,2.239,0.084c0.751,0.024,1.508-0.032,2.251-0.054
									c0.739-0.096,1.48-0.081,2.187-0.195c0.708-0.094,1.4-0.156,2.051-0.268c0.654-0.093,1.269-0.208,1.844-0.3
									c1.141-0.215,2.104-0.4,2.777-0.549C382.147,154.667,382.537,154.573,382.537,154.573z"/>
							</g>
							<g>
								<path style="fill:#DB5223;" d="M368.589,123.807c0,0-0.405-0.196-1.074-0.539c-0.672-0.34-1.61-0.827-2.716-1.366
									c-1.1-0.547-2.365-1.152-3.704-1.684c-0.669-0.271-1.359-0.508-2.051-0.721c-0.695-0.207-1.392-0.368-2.085-0.476
									c-0.687-0.094-1.373-0.162-2.032-0.125c-0.335-0.007-0.653,0.06-0.981,0.077c-0.321,0.049-0.634,0.121-0.951,0.181
									c-0.618,0.169-1.227,0.367-1.796,0.632c-0.578,0.249-1.105,0.567-1.617,0.854c-0.47,0.34-0.976,0.602-1.36,0.92
									c-0.385,0.312-0.783,0.549-1.058,0.796c-0.578,0.469-0.958,0.729-0.958,0.729s0.09-0.432,0.334-1.173
									c0.111-0.377,0.307-0.805,0.55-1.295c0.219-0.507,0.576-1.018,0.957-1.597c0.433-0.538,0.922-1.125,1.557-1.655
									c0.624-0.536,1.375-1.022,2.22-1.419c0.852-0.368,1.795-0.672,2.775-0.771c0.981-0.152,1.976-0.075,2.944,0.041
									c0.957,0.171,1.889,0.41,2.743,0.764c0.858,0.34,1.656,0.754,2.374,1.214c1.448,0.908,2.61,1.962,3.494,2.948
									c0.883,0.991,1.502,1.904,1.887,2.576C368.43,123.385,368.589,123.807,368.589,123.807z"/>
							</g>
							<g>
								<path style="fill:#DB5223;" d="M398.434,123.807c0,0-0.086-0.067-0.247-0.193c-0.151-0.129-0.396-0.293-0.683-0.514
									c-0.277-0.226-0.668-0.452-1.047-0.744c-0.423-0.255-0.861-0.565-1.374-0.835c-0.485-0.308-1.049-0.553-1.607-0.834
									c-0.285-0.131-0.59-0.229-0.887-0.349c-0.15-0.057-0.3-0.115-0.448-0.181l-0.473-0.123c-0.32-0.07-0.625-0.192-0.948-0.256
									c-0.33-0.04-0.657-0.085-0.983-0.148c-0.321-0.092-0.667-0.038-1.001-0.065c-0.337,0.002-0.67-0.065-1.012-0.017
									l-1.027,0.098l-0.514,0.037l-0.512,0.118c-0.677,0.182-1.379,0.217-2.03,0.488c-0.653,0.237-1.332,0.363-1.943,0.617
									c-0.611,0.254-1.206,0.482-1.77,0.684c-0.577,0.18-1.076,0.422-1.534,0.618c-0.45,0.207-0.872,0.359-1.216,0.493
									c-0.692,0.263-1.126,0.386-1.126,0.386s0.212-0.376,0.649-0.985c0.22-0.302,0.485-0.68,0.821-1.081
									c0.33-0.409,0.691-0.892,1.191-1.302c0.482-0.432,1.02-0.892,1.608-1.364c0.591-0.466,1.324-0.823,2.053-1.237
									c0.713-0.445,1.589-0.674,2.448-0.954l0.653-0.201c0.228-0.043,0.461-0.069,0.694-0.098l1.403-0.164
									c0.469-0.042,0.953,0.038,1.426,0.057c0.474,0.039,0.948,0.058,1.402,0.201c0.458,0.113,0.907,0.242,1.346,0.375
									c0.432,0.151,0.835,0.364,1.232,0.556c0.197,0.099,0.391,0.197,0.584,0.294c0.177,0.122,0.353,0.243,0.527,0.362
									c0.337,0.251,0.688,0.461,0.978,0.73c0.58,0.537,1.108,1.046,1.503,1.594c0.432,0.511,0.718,1.064,0.99,1.519
									c0.247,0.478,0.439,0.898,0.562,1.264c0.14,0.351,0.206,0.653,0.256,0.85C398.425,123.697,398.434,123.807,398.434,123.807z
									"/>
							</g>
							<path style="fill:#161114;" d="M384.611,130.625c0,2.614,0.724,4.734,1.617,4.734c0.893,0,1.617-2.119,1.617-4.734
								c0-2.614-0.724-4.733-1.617-4.733C385.335,125.892,384.611,128.011,384.611,130.625z"/>
							<path style="fill:#161114;" d="M356.395,129.983c0,2.614,0.724,4.734,1.617,4.734c0.893,0,1.617-2.119,1.617-4.734
								c0-2.614-0.724-4.733-1.617-4.733C357.119,125.25,356.395,127.369,356.395,129.983z"/>
						</g>
					</g>
				</g>
			</g>
		</g>
	</g>
	<g>
		<g style="opacity:0.7;">
			<path style="fill:#E1F0FF;" d="M220.235,213.099c-20.53,20.53-44.99,30.369-73.391,29.484
				c-28.39-0.875-53.069-11.796-74.042-32.768c-21.394-21.394-31.766-45.097-31.12-71.093c0.667-25.996,10.59-48.601,29.809-67.819
				c13.107-13.107,28.726-22.381,46.851-27.846c18.131-5.461,36.368-6.228,54.717-2.298c18.338,3.941,34.064,12.457,47.171,25.564
				c19.656,19.656,29.83,43.78,30.47,72.405C251.372,167.341,241.202,192.132,220.235,213.099z"/>
		</g>
		<g>
			<defs>
				<path id="SVGID_00000000910809066988320110000016505084665366996112_" d="M220.235,213.099
					c-20.53,20.53-44.99,30.369-73.391,29.484c-28.39-0.875-53.069-11.796-74.042-32.768c-21.394-21.394-31.766-45.097-31.12-71.093
					c0.667-25.996,10.59-48.601,29.809-67.819c13.107-13.107,28.726-22.381,46.851-27.846c18.131-5.461,36.368-6.228,54.717-2.298
					c18.338,3.941,34.064,12.457,47.171,25.564c19.656,19.656,29.83,43.78,30.47,72.405
					C251.372,167.341,241.202,192.132,220.235,213.099z"/>
			</defs>
			<clipPath id="SVGID_00000119814966602621592070000011511383536503557036_">
				<use xlink:href="#SVGID_00000000910809066988320110000016505084665366996112_"  style="overflow:visible;"/>
			</clipPath>
			<g style="clip-path:url(#SVGID_00000119814966602621592070000011511383536503557036_);">
				<g>
					<path style="fill:#161114;" d="M137.412,184.467c0,0-5.686,9.65-23.93-0.124c-15.597-8.356-5.403-19.557-5.403-19.557
						s-10.685,6.858-15.025,1.738c-4.34-5.12,9.697-9.321,9.697-9.321s-27.143,4.312-28.193-11.848s20.73-13.174,20.73-13.174
						s-27.677-6.628-20.65-26.885c7.027-20.256,24.918-13.424,24.918-13.424s-17.543-3.827-15.776-10.825
						c1.767-6.998,18.775,3.333,18.775,3.333s-14.795-15.506-0.423-30.99c14.372-15.484,34.746,10.629,34.746,10.629
						s-2.499-16.125,8.582-20.569c11.081-4.444,7.572,20.012,7.572,20.012s-1.464-21.89,15.536-18.703
						c17.001,3.187,6.433,30.294,6.433,30.294s8.648-25.48,26.789-14.46c18.141,11.019,4.221,35.47-3.856,39.567
						c-8.076,4.097,7.326-16.66,17.092-5.14c9.766,11.52-16.049,14.155-16.049,14.155s23.742-6.378,26.913,12.933
						c3.171,19.311-24.417,21.799-24.417,21.799s11.38-0.848,11.783,8.71s-17.293,0.361-17.293,0.361s13.856,12.452,4.604,23.596
						c-9.252,11.143-24.541-5.594-24.541-5.594s7.401,11.325-2.449,15.276c-9.85,3.951-16.221-12.647-16.221-12.647L137.412,184.467
						z"/>
					<g>
						<g>
							<path style="fill:#8E3E30;" d="M131.747,189.007c6.201-5.295,0.443-35.622,0.443-35.622h35.141
								c0,0-5.758,30.327,0.443,35.622c6.201,5.295,53.152,4.814,48.723,55.839H83.024
								C78.595,193.82,125.546,194.302,131.747,189.007z"/>
							<path style="fill:#723021;" d="M133.538,185.978c3.067-9.336-1.348-32.593-1.348-32.593h35.141
								c0,0-2.371,12.505-2.428,22.857C156.055,183.207,144.94,185.965,133.538,185.978z"/>
						</g>
						<g>
							<path style="fill:#86C1E2;" d="M122.287,190.451c0,0,4.968,16.71,27.473,16.842c22.505-0.132,27.473-16.842,27.473-16.842
								c50.927,12.034,40.014,54.395,40.014,54.395l-67.223,0.478v0.004l-0.264-0.002l-0.264,0.002v-0.004l-67.223-0.478
								C82.274,244.846,71.361,202.485,122.287,190.451z"/>
							<g>
								<path style="fill:#D84848;" d="M131.864,245.247l-17.083-53.848c0,0-34.522,4.738-37.493,53.492L131.864,245.247z"/>
								<path style="fill:#D84848;" d="M168.259,245.247l17.083-53.848c0,0,32.324,4.738,35.295,53.492L168.259,245.247z"/>
							</g>
						</g>
					</g>
				</g>
				<g>
					<g>
						<g>
							<g>
								<path style="fill:#723021;" d="M190.238,139.172c-1.796,6.572-6.852,12.399-10.827,11.313
									c-3.975-1.086-5.364-8.675-3.568-15.247c1.796-6.572,6.097-9.638,10.072-8.552
									C189.89,127.773,192.034,132.6,190.238,139.172z"/>
								<g>
									<g>
										<path style="fill:#5E1D12;" d="M189.474,136.376c-0.231-0.827-0.486-1.635-0.776-2.398
											c-0.153-0.378-0.322-0.742-0.505-1.064c-0.182-0.312-0.434-0.585-0.593-0.626c-0.124-0.022-0.14,0-0.38,0.158
											c-0.037,0.039-0.142,0.112-0.124,0.115c-0.061,0.069-0.175,0.165-0.194,0.213c-0.029,0.055-0.051,0.087-0.093,0.148
											l-0.131,0.209c-0.343,0.602-0.581,1.358-0.806,2.117c-0.229,0.762-0.414,1.554-0.574,2.356
											c-0.185,0.797-0.344,1.606-0.487,2.421l-0.447,2.45l-0.432,2.458l-0.308-0.643c0.156,0.125,0.262,0.228,0.383,0.349
											c0.116,0.118,0.227,0.241,0.333,0.371c0.211,0.26,0.405,0.549,0.552,0.887c0.142,0.337,0.234,0.752,0.153,1.169
											c-0.088,0.417-0.336,0.754-0.601,0.982c-0.539,0.463-1.139,0.636-1.721,0.78c-0.583,0.141-1.173,0.19-1.756,0.227
											c0.55-0.199,1.088-0.425,1.595-0.674c0.251-0.128,0.496-0.266,0.713-0.423c0.222-0.149,0.421-0.32,0.556-0.504
											c0.284-0.384,0.235-0.672,0.016-1.035c-0.117-0.178-0.276-0.355-0.459-0.517c-0.092-0.081-0.189-0.159-0.289-0.233
											c-0.096-0.07-0.215-0.151-0.294-0.194l-0.312-0.169l0.004-0.475c0.007-0.865,0.013-1.714,0.07-2.568
											c0.066-0.851,0.127-1.704,0.244-2.554c0.122-0.848,0.261-1.697,0.43-2.546c0.196-0.844,0.42-1.687,0.701-2.53
											c0.287-0.842,0.658-1.672,1.218-2.495c0.148-0.198,0.307-0.412,0.553-0.637c0.117-0.114,0.178-0.141,0.27-0.215
											c0.175-0.139,0.258-0.165,0.392-0.249c0.267-0.129,0.559-0.259,0.941-0.274c0.371-0.023,0.778,0.101,1.059,0.306
											c0.552,0.431,0.728,0.93,0.893,1.374c0.149,0.452,0.222,0.897,0.265,1.338
											C189.629,134.656,189.595,135.524,189.474,136.376z"/>
									</g>
									<path style="fill:none;stroke:#FFFFFF;stroke-width:1.1141;stroke-linecap:round;stroke-miterlimit:10;" d="
										M181.997,147.207c5.845,0,10.584,4.739,10.584,10.584c0,5.845-4.739,10.584-10.584,10.584
										c-5.845,0-10.584-4.739-10.584-10.584"/>
								</g>
							</g>
							<g>
								<path style="fill:#723021;" d="M109.283,139.172c1.796,6.572,6.852,12.399,10.826,11.313
									c3.975-1.086,5.364-8.675,3.568-15.247c-1.796-6.572-6.097-9.638-10.072-8.552
									C109.631,127.773,107.487,132.6,109.283,139.172z"/>
								<g>
									<g>
										<path style="fill:#5E1D12;" d="M110.047,136.376c-0.121-0.853-0.154-1.72-0.061-2.597c0.044-0.44,0.116-0.886,0.265-1.338
											c0.164-0.445,0.34-0.943,0.893-1.374c0.281-0.205,0.688-0.329,1.059-0.306c0.382,0.015,0.674,0.145,0.941,0.274
											c0.134,0.084,0.217,0.109,0.392,0.249c0.092,0.075,0.153,0.101,0.27,0.215c0.247,0.225,0.405,0.439,0.553,0.637
											c0.56,0.822,0.931,1.653,1.218,2.495c0.282,0.843,0.506,1.686,0.701,2.53c0.169,0.849,0.308,1.698,0.43,2.546
											c0.117,0.849,0.178,1.703,0.244,2.554c0.057,0.854,0.063,1.702,0.07,2.568l0.004,0.475l-0.312,0.169
											c-0.079,0.043-0.198,0.124-0.294,0.194c-0.1,0.074-0.197,0.152-0.289,0.233c-0.183,0.163-0.342,0.339-0.459,0.517
											c-0.218,0.364-0.267,0.652,0.016,1.035c0.134,0.184,0.334,0.355,0.556,0.504c0.217,0.157,0.462,0.296,0.713,0.423
											c0.507,0.249,1.045,0.474,1.595,0.674c-0.583-0.037-1.172-0.086-1.756-0.227c-0.581-0.144-1.182-0.317-1.721-0.78
											c-0.265-0.227-0.513-0.565-0.601-0.982c-0.082-0.417,0.011-0.832,0.153-1.169c0.147-0.338,0.341-0.626,0.552-0.887
											c0.106-0.13,0.218-0.252,0.334-0.371c0.121-0.121,0.227-0.224,0.383-0.349l-0.308,0.643l-0.432-2.458l-0.447-2.45
											c-0.143-0.814-0.302-1.624-0.487-2.421c-0.161-0.801-0.345-1.594-0.574-2.356c-0.225-0.759-0.464-1.515-0.806-2.117
											l-0.131-0.209c-0.042-0.06-0.065-0.093-0.093-0.148c-0.018-0.047-0.132-0.143-0.194-0.212
											c0.019-0.002-0.087-0.076-0.124-0.115c-0.24-0.159-0.256-0.181-0.38-0.159c-0.158,0.041-0.41,0.314-0.593,0.626
											c-0.183,0.322-0.352,0.687-0.505,1.064C110.533,134.741,110.278,135.549,110.047,136.376z"/>
									</g>
									<path style="fill:none;stroke:#FFFFFF;stroke-width:1.1141;stroke-linecap:round;stroke-miterlimit:10;" d="
										M117.38,147.207c-5.845,0-10.584,4.739-10.584,10.584c0,5.845,4.739,10.584,10.584,10.584s10.584-4.739,10.584-10.584"/>
								</g>
							</g>
							<path style="fill:#8E3E30;" d="M182.725,127.391c0,24.06-14.871,48.619-33.215,48.619s-33.215-24.559-33.215-48.619
								s14.871-38.51,33.215-38.51S182.725,103.331,182.725,127.391z"/>
						</g>
						<g>
							<path style="fill:#D84848;" d="M116.546,138.544c0,0-2.397-37.02,31.658-38.501c34.165-1.485,33.423,39.736,33.423,39.736
								s15.969-57.933-29.338-59.418C105.146,78.816,116.546,138.544,116.546,138.544z"/>
							<g>
								<path style="fill:#C43333;" d="M122.686,113.722c-1.995-2.695-3.646-5.567-5.045-8.557
									c-4.442,15.828-1.095,33.379-1.095,33.379S115.672,124.798,122.686,113.722z"/>
								<path style="fill:#C43333;" d="M180.327,97.051c-0.833,6.136-2.491,12.125-4.659,17.973
									c6.189,11.268,5.959,24.755,5.959,24.755S188.555,114.634,180.327,97.051z"/>
							</g>
						</g>
					</g>
					<g>
						<g>
							<g>
								<path style="fill:#5E1D12;" d="M147.755,130.735c0.346,0.713,0.619,1.463,0.827,2.227c0.225,0.763,0.369,1.545,0.494,2.335
									c0.112,0.791,0.163,1.592,0.183,2.399c-0.007,0.806-0.053,1.617-0.152,2.428c-0.122,0.808-0.307,1.611-0.543,2.404
									c-0.23,0.798-0.593,1.555-0.981,2.296c-0.205,0.366-0.413,0.73-0.66,1.072c-0.239,0.345-0.516,0.666-0.788,0.983
									c-0.285,0.31-0.572,0.615-0.888,0.89c-0.308,0.284-0.66,0.515-0.989,0.767l-0.111-1.312
									c1.035,0.654,2.047,1.351,3.058,2.049c1.003,0.713,2.003,1.431,2.965,2.216c-1.174-0.405-2.311-0.878-3.444-1.356
									c-1.126-0.493-2.25-0.986-3.351-1.523l-0.913-0.445l0.803-0.867c0.246-0.266,0.513-0.505,0.732-0.79
									c0.245-0.258,0.461-0.542,0.675-0.824c0.203-0.291,0.408-0.579,0.579-0.89c0.187-0.3,0.36-0.609,0.521-0.925
									c0.154-0.32,0.311-0.639,0.435-0.975l0.374-1.007c0.23-0.682,0.407-1.387,0.553-2.103c0.16-0.715,0.273-1.446,0.352-2.185
									c0.104-0.738,0.161-1.487,0.201-2.242c0.054-0.756,0.063-1.517,0.08-2.288C147.764,132.303,147.778,131.525,147.755,130.735
									z"/>
							</g>
							<path style="fill:#FFFFFF;" d="M159.771,158.056c0,0-12.141,9.41-21.679-1.056"/>
							<g>
								<path style="fill:#161114;" d="M143.492,127.081c0,0-0.336-0.202-0.924-0.556c-0.584-0.337-1.39-0.813-2.338-1.299
									c-0.946-0.489-2.036-0.979-3.17-1.318c-0.57-0.153-1.143-0.299-1.72-0.362c-0.576-0.054-1.151-0.105-1.724-0.035
									c-0.575,0.02-1.143,0.155-1.715,0.292c-0.564,0.173-1.136,0.358-1.686,0.608c-0.555,0.235-1.089,0.522-1.609,0.794
									c-0.507,0.3-1.014,0.57-1.462,0.87c-0.469,0.273-0.887,0.556-1.27,0.804c-0.389,0.242-0.739,0.455-1.015,0.646
									c-0.566,0.37-0.933,0.563-0.933,0.563s0.094-0.391,0.336-1.043c0.118-0.329,0.269-0.726,0.496-1.151
									c0.215-0.435,0.475-0.917,0.82-1.41c0.323-0.509,0.747-1.013,1.215-1.542c0.495-0.503,1.043-1.027,1.703-1.483
									c0.647-0.466,1.395-0.879,2.21-1.196c0.82-0.312,1.711-0.526,2.624-0.591c0.911-0.075,1.834,0.012,2.697,0.208
									c0.871,0.184,1.664,0.527,2.383,0.902c1.43,0.778,2.499,1.793,3.253,2.747c0.762,0.952,1.216,1.855,1.484,2.502
									C143.417,126.679,143.492,127.081,143.492,127.081z"/>
							</g>
							<g>
								<path style="fill:#161114;" d="M173.348,128.566c0,0-0.309-0.245-0.85-0.673c-0.539-0.411-1.282-0.991-2.166-1.604
									c-0.882-0.616-1.905-1.261-3-1.778c-1.098-0.509-2.254-0.901-3.433-1.018c-0.586-0.101-1.184-0.067-1.782-0.063
									c-0.302,0.03-0.603,0.06-0.899,0.089c-0.303,0.052-0.602,0.104-0.896,0.155c-0.594,0.124-1.178,0.285-1.746,0.448
									c-0.556,0.198-1.113,0.351-1.612,0.56c-0.514,0.178-0.986,0.365-1.408,0.541c-0.429,0.165-0.818,0.303-1.126,0.44
									c-0.628,0.257-1.027,0.379-1.027,0.379s0.168-0.367,0.534-0.965c0.179-0.303,0.411-0.662,0.718-1.039
									c0.294-0.392,0.656-0.809,1.094-1.229c0.42-0.441,0.95-0.844,1.517-1.274c0.594-0.395,1.249-0.789,1.991-1.106
									c0.741-0.315,1.558-0.568,2.423-0.708c0.868-0.123,1.779-0.167,2.678-0.049c0.899,0.11,1.782,0.341,2.586,0.691
									c0.817,0.324,1.541,0.783,2.189,1.261c1.291,0.975,2.213,2.124,2.84,3.171c0.634,1.046,0.975,2.004,1.161,2.682
									C173.322,128.156,173.348,128.566,173.348,128.566z"/>
							</g>
						</g>
						<g>
							<g>
								<path style="fill:#161114;" d="M158.602,140.898c0,0-0.101-0.328-0.2-0.921c-0.094-0.592-0.195-1.452-0.126-2.5
									c0.037-0.524,0.104-1.097,0.264-1.697c0.17-0.595,0.371-1.243,0.779-1.843c0.359-0.62,0.934-1.182,1.614-1.601
									c0.353-0.173,0.73-0.341,1.11-0.45l0.583-0.11l0.293-0.051l0.073-0.012l0.154-0.001l0.126,0.002l0.502,0.023
									c0.086,0.006,0.161,0.003,0.257,0.017l0.325,0.076c0.216,0.053,0.432,0.112,0.642,0.176
									c0.203,0.071,0.366,0.182,0.549,0.273c0.734,0.364,1.223,0.988,1.648,1.55c0.174,0.304,0.366,0.594,0.499,0.897
									c0.118,0.307,0.257,0.599,0.343,0.893c0.195,0.583,0.31,1.145,0.388,1.662c0.161,1.033,0.149,1.897,0.115,2.495
									c-0.037,0.599-0.1,0.936-0.1,0.936s-0.078-0.334-0.231-0.903c-0.151-0.568-0.379-1.374-0.714-2.292
									c-0.173-0.457-0.379-0.939-0.613-1.426c-0.24-0.487-0.55-0.948-0.876-1.394c-0.363-0.404-0.761-0.783-1.226-0.997
									c-0.114-0.05-0.229-0.133-0.341-0.164c-0.111-0.022-0.218-0.048-0.324-0.08l-0.16-0.053
									c-0.069-0.01-0.163-0.005-0.244-0.009l-0.503-0.01l-0.126-0.006l-0.031-0.001l-0.016-0.001l-0.008,0
									c-0.022,0,0.166-0.003,0.083-0.001l-0.051,0.009l-0.202,0.034l-0.406,0.059c-0.258,0.069-0.5,0.173-0.741,0.273
									c-0.434,0.278-0.883,0.567-1.187,1.025c-0.664,0.856-1.046,1.928-1.308,2.858c-0.251,0.94-0.395,1.764-0.486,2.344
									C158.641,140.557,158.602,140.898,158.602,140.898z"/>
							</g>
							<g>
								<path style="fill:#161114;" d="M129.079,140.898c0,0-0.101-0.328-0.2-0.921c-0.094-0.592-0.195-1.452-0.126-2.5
									c0.037-0.524,0.104-1.097,0.265-1.697c0.17-0.595,0.371-1.243,0.779-1.843c0.359-0.62,0.934-1.182,1.614-1.601
									c0.353-0.173,0.73-0.341,1.11-0.45l0.583-0.11l0.293-0.051l0.073-0.012l0.154-0.001l0.126,0.002l0.502,0.023
									c0.086,0.006,0.161,0.003,0.257,0.017l0.325,0.076c0.216,0.053,0.432,0.112,0.642,0.176
									c0.203,0.071,0.366,0.182,0.549,0.273c0.734,0.364,1.223,0.988,1.649,1.55c0.173,0.304,0.366,0.594,0.499,0.897
									c0.118,0.307,0.257,0.599,0.344,0.893c0.195,0.583,0.309,1.145,0.388,1.662c0.161,1.033,0.149,1.897,0.115,2.495
									c-0.037,0.599-0.099,0.936-0.099,0.936s-0.079-0.334-0.231-0.903c-0.151-0.568-0.379-1.374-0.714-2.292
									c-0.173-0.457-0.379-0.939-0.613-1.426c-0.24-0.487-0.55-0.948-0.876-1.394c-0.363-0.404-0.761-0.783-1.226-0.997
									c-0.114-0.05-0.229-0.133-0.341-0.164c-0.111-0.022-0.218-0.048-0.324-0.08l-0.16-0.053
									c-0.069-0.01-0.163-0.005-0.244-0.009l-0.503-0.01l-0.126-0.006l-0.031-0.001l-0.016-0.001l-0.008,0
									c-0.023,0,0.166-0.003,0.083-0.001l-0.051,0.009l-0.202,0.034l-0.407,0.059c-0.258,0.069-0.5,0.173-0.741,0.273
									c-0.434,0.278-0.883,0.567-1.187,1.025c-0.664,0.856-1.046,1.928-1.308,2.858c-0.251,0.94-0.395,1.764-0.486,2.344
									C129.118,140.557,129.079,140.898,129.079,140.898z"/>
							</g>
						</g>
					</g>
				</g>
			</g>
		</g>
	</g>
</g>
</svg>
