<?xml version="1.0" encoding="utf-8"?>
<!-- Generator: Adobe Illustrator 27.5.0, SVG Export Plug-In . SVG Version: 6.00 Build 0)  -->
<svg version="1.1" id="Capa_1" xmlns="http://www.w3.org/2000/svg" xmlns:xlink="http://www.w3.org/1999/xlink" x="0px" y="0px"
	 viewBox="0 0 425.197 384" style="enable-background:new 0 0 425.197 384;" xml:space="preserve">
<g>
	<rect style="fill:#FFFFFF;" width="425.197" height="384"/>
	<ellipse style="fill:#BDBCBC;" cx="208.603" cy="348.25" rx="115.18" ry="9"/>
	<circle style="fill:#FFDE00;" cx="367.942" cy="226.78" r="42.5"/>
	<circle style="fill:#7C5DA4;" cx="55.942" cy="226.78" r="42.5"/>
	<circle style="fill:#E6332A;" cx="217.547" cy="68.78" r="42.5"/>
	<circle style="fill:#9D9FAD;" cx="330.547" cy="105.631" r="42.5"/>
	<circle style="fill:#009FE3;" cx="87.707" cy="105.631" r="42.5"/>
	<g>
		<defs>
			<circle id="SVGID_1_" cx="55.942" cy="226.78" r="42.5"/>
		</defs>
		<clipPath id="SVGID_00000044878432057221161260000007891181844820099770_">
			<use xlink:href="#SVGID_1_"  style="overflow:visible;"/>
		</clipPath>
		<g style="clip-path:url(#SVGID_00000044878432057221161260000007891181844820099770_);">
			<path style="fill:#F9BB8D;" d="M71.953,296.243c0.905-18.989-2.807-36.719-2.807-36.719l8.744,7.456
				c0,0,2.336,12.907,0.461,29.263H71.953z"/>
			<path style="fill:#DADADA;" d="M69.036,250.666c-2.452-0.57-1.499,15.336,0.563,18.858c0.489,3.837,1.145,7.716,1.145,7.716
				l8.336-4.663C79.079,272.577,76.628,252.431,69.036,250.666z"/>
			<rect x="39.741" y="286.948" style="fill:#F9BB8D;" width="28.667" height="9.295"/>
			<path style="fill:#431A0D;" d="M38.412,241.41c7.635,4.882,25.56,4.247,31.863,0.619c7.426-4.273,4.496-12.102,5.328-18.357
				s3.229-10.386,1.468-18.303c-1.654-7.441-5.961-13.376-16.529-14.646c-17.723-2.133-26.019,7.313-25.041,22.186
				C36.383,226.322,28.987,235.382,38.412,241.41z"/>
			<path style="fill:#260900;" d="M40.502,208.251c-0.091,1.486-0.112,3.032-0.025,4.657c0.713,13.414-5.264,22.474,2.353,28.502
				c6.172,4.882,20.66,4.247,25.754,0.619c6.003-4.273,3.634-12.102,4.307-18.357c0.586-5.447,2.128-9.288,1.576-15.421H40.502z"/>
			<path style="fill:#114A73;" d="M39.741,286.948v-2.58c0,0-2.45-8.394-2.408-14.844c0.123-3.542,0.47-19.745,2.434-20.446
				c3.627-1.286,5.943-1.349,5.943-1.349l7.82,4.497l7.813-4.497c0,0,4.066,1.646,7.692,2.936
				c1.277,11.78,3.542,19.584,5.046,25.966c0.011,3.421-5.674,8.075-5.674,8.075v2.241H39.741z"/>
			<path style="fill:#F9BB8D;" d="M61.343,247.73c2.097,4.367,8.206,10.811-2.308,10.523c-13.548-0.374-12.548-7.003-13.325-10.523
				c2.96-0.517,4.108-7.724,1.858-12.442c-2.25-4.721,14.296-1.009,12.238,1.241C57.749,238.779,58.365,247.213,61.343,247.73z"/>
			<path style="fill:#EBDFDA;" d="M59.571,246.104c-4.806-1.862-7.301-7.742-7.28-13.001c3.955,0.436,8.67,2.16,7.516,3.425
				C58.258,238.225,58.225,243.414,59.571,246.104z"/>
			<path style="fill:#F9BB8D;" d="M41.255,205.369l0.829,20.234c0,7.857,13.104,17.702,18.823,17.702
				c4.798,0,10.031-7.669,12.032-15.287c2.171-8.279,1.37-18.982,0.999-22.649H41.255z"/>
			<path style="fill:#F9BB8D;" d="M45.67,222.766c0,2.401-0.92,4.096-3.52,4.349c-3.803,0.368-4.49-2.853-4.448-4.853
				c0.047-2.314,2.27-3.886,3.667-3.794C43.976,218.641,45.67,220.367,45.67,222.766z"/>
			<path style="fill:#431A0D;" d="M53.68,219.149c0,0.837,0.677,1.512,1.509,1.512c0.835,0,1.509-0.675,1.509-1.512
				c0-0.833-0.674-1.506-1.509-1.506C54.356,217.644,53.68,218.316,53.68,219.149z"/>
			<path style="fill:#431A0D;" d="M68.134,219.149c0,0.837,0.675,1.512,1.508,1.512c0.833,0,1.51-0.675,1.51-1.512
				c0-0.833-0.676-1.506-1.51-1.506C68.809,217.644,68.134,218.316,68.134,219.149z"/>
			<path style="fill:#FFFFFF;" d="M59.53,230.941c0,1.586,2.157,3.17,4.089,3.17c2.47,0,4.569-1.584,4.569-3.17H59.53z"/>
			<path style="fill:#F9BB8D;" d="M34.98,296.243c-0.905-18.989,2.807-36.719,2.807-36.719l-8.744,7.456
				c0,0-2.335,12.907-0.461,29.263H34.98z"/>
			<path style="fill:#DADADA;" d="M39.767,249.078c2.489-0.375-0.371,16.924-2.434,20.446c-0.489,3.837-1.145,7.716-1.145,7.716
				l-8.335-4.663C27.853,272.577,29.532,250.624,39.767,249.078z"/>
			<path style="fill:#EBDFDA;" d="M63.436,224.236c0.922,0,1.692,0.526,1.919,1.242c0.043-0.137,0.075-0.28,0.075-0.429
				c0-0.924-0.893-1.672-1.994-1.672c-1.101,0-1.993,0.749-1.993,1.672c0,0.15,0.031,0.292,0.075,0.429
				C61.745,224.763,62.515,224.236,63.436,224.236z"/>
			<path style="fill:#EBDFDA;" d="M39.458,222.927c0.033,0.975,1.221,2.345,1.879,1.932c0.656-0.415-0.826-2.732,1.48-2.25
				c0,0.77-0.411,2.34-1.68,2.566c-1.253,0.224-2.338-0.836-2.335-2.392c0.007-2.977,2.909-2.76,2.909-2.76
				S39.373,220.447,39.458,222.927z"/>
			<path style="fill:#431A0D;" d="M72.63,215.742c-0.093,0.307-0.697-0.474-2.137-0.939c-0.881-0.286-1.624,0-2.164,0.222
				c-0.544,0.222-0.773-1.083-0.492-1.316c0.348-0.29,1.567-0.601,2.74-0.213C71.987,213.96,72.725,215.436,72.63,215.742z"/>
			<path style="fill:#431A0D;" d="M51.559,215.667c0.093,0.308,0.926-0.228,2.365-0.693c0.879-0.286,1.623,0,2.163,0.221
				c0.543,0.224,0.773-1.081,0.491-1.316c-0.348-0.29-1.566-0.599-2.739-0.213C52.429,214.13,51.464,215.362,51.559,215.667z"/>
			<path style="fill:#EBDFDA;" d="M41.203,205.369l2.295,15.078c1.57-2.579,4.582-4.105,8.175-5.438
				c5.684-2.102,8.869-8.446,13.097-5.579c2.62-1.366,5.272,1.323,6.605,2.505c2.268,2.011,3.045,6.113,3.1,6.115l-0.618-12.682
				H41.203z"/>
			<path style="fill:#431A0D;" d="M74.911,202.566c0.878,4.519,0.552,11.385-0.54,13.794c-6.237-6.828-6.654-10.313-6.654-10.313
				s-7.734,8.516-22.047,10.5c-1.532,2.163-1.507,7.125-1.507,7.125s-2.057-2.252-3.684-7.879
				c-0.953-3.305-0.538-9.046-0.032-13.227H74.911z"/>
		</g>
	</g>
	<g>
		<defs>
			<circle id="SVGID_00000000217692108229503510000016249932190684099773_" cx="87.707" cy="105.631" r="42.5"/>
		</defs>
		<clipPath id="SVGID_00000116927157427494631430000001424782400525964717_">
			<use xlink:href="#SVGID_00000000217692108229503510000016249932190684099773_"  style="overflow:visible;"/>
		</clipPath>
		<g style="clip-path:url(#SVGID_00000116927157427494631430000001424782400525964717_);">
			<path style="fill:#1A1B25;" d="M82.173,116.87c16.222-0.084,20.737-13.186,20.737-13.186s7.148-3.984,7.148-14.837
				c0-9.74-1.551-19.788-15.975-21.243c-19.743-1.99-28.803,5.251-28.895,21.02C65.107,102.688,70.923,116.927,82.173,116.87z"/>
			<path style="fill:#DADADA;" d="M107.697,135.207c-0.395-2.151-2.093-5.182-4.709-5.966c-1.088-0.393-1.435,30.857-1.435,30.857
				l-0.882,11.113h13.018C113.689,171.211,108.093,137.357,107.697,135.207z"/>
			<path style="fill:#CCCCCC;" d="M62.694,171.211H105.1c0.343-6.039,0.743-14.701,0.417-17.885
				c-0.522-5.091-1.178-11.622-2.529-24.085c-3.837-1.366-10.457-3.773-10.457-3.773l-8.267,4.757l-8.273-4.757
				c0,0-5.619,0.05-9.457,1.412c-3.836,1.366-1.647,14.083-1.647,24.662C64.887,153.428,63.628,162.212,62.694,171.211z"/>
			<path style="fill:#006971;" d="M62.091,171.211h15.387l1.309-22.224l-3.538-23.499c0,0-4.877,0.029-8.715,1.392
				c-3.836,1.366-1.647,14.083-1.647,24.662C64.887,153.111,63.524,161.475,62.091,171.211z"/>
			<path style="fill:#006971;" d="M105.726,171.211c0.078-5.704,0.134-14.546-0.209-17.885c-0.522-5.091-1.178-11.622-2.529-24.085
				c-1.979-0.705-4.691-1.684-6.86-2.469l-2.528,21.314l1.447,23.125H105.726z"/>
			<path style="fill:#8D5433;" d="M92.531,125.468c0.47,3.28,3.734,7.048-4.139,7.048c-7.872,0-11.579-3.326-12.4-7.048
				c3.132-0.548,4.345-8.174,1.965-13.165c-2.381-4.995,15.125-1.067,12.949,1.313C88.728,115.996,89.38,124.92,92.531,125.468z"/>
			<path style="fill:#CCC3BE;" d="M90.656,123.747c-5.085-1.971-7.725-8.191-7.703-13.755c4.186,0.461,9.173,2.286,7.952,3.623
				C89.267,115.41,89.231,120.9,90.656,123.747z"/>
			<path style="fill:#8D5433;" d="M71.278,80.648l0.877,21.409c0,8.314,13.864,18.728,19.915,18.728
				c5.075,0,12.798-8.626,13.938-16.392c1.315-8.959,0.241-19.864-0.151-23.745H71.278z"/>
			<path style="fill:#8D5433;" d="M75.949,99.054c0,2.542-0.974,4.333-3.725,4.6c-4.022,0.39-4.749-3.018-4.706-5.133
				c0.051-2.449,2.402-4.111,3.881-4.014C74.155,94.69,75.949,96.517,75.949,99.054z"/>
			<path style="fill:#1A1B25;" d="M84.424,95.229c0,0.885,0.715,1.6,1.596,1.6c0.882,0,1.598-0.715,1.598-1.6
				c0-0.881-0.715-1.594-1.598-1.594C85.14,93.634,84.424,94.348,84.424,95.229z"/>
			<path style="fill:#1A1B25;" d="M99.716,95.229c0,0.885,0.714,1.6,1.597,1.6c0.882,0,1.597-0.715,1.597-1.6
				c0-0.881-0.715-1.594-1.597-1.594C100.43,93.634,99.716,94.348,99.716,95.229z"/>
			<path style="fill:#FFFFFF;" d="M88.392,106.761c0,3.906,3.558,4.676,5.377,4.676c1.817,0,6.005-0.77,6.005-4.676H88.392z"/>
			<path style="fill:#E0D5D0;" d="M94.746,100.61c0.977,0,1.789,0.558,2.029,1.313c0.046-0.145,0.08-0.296,0.08-0.454
				c0-0.977-0.945-1.77-2.109-1.77c-1.165,0-2.11,0.792-2.11,1.77c0,0.158,0.034,0.309,0.081,0.454
				C92.956,101.168,93.77,100.61,94.746,100.61z"/>
			<path style="fill:#E0D5D0;" d="M69.376,99.225c0.035,1.031,1.292,2.48,1.988,2.043c0.695-0.438-0.873-2.89,1.567-2.379
				c0,0.813-0.436,2.474-1.779,2.714c-1.324,0.238-2.473-0.885-2.47-2.531c0.006-3.149,3.078-2.919,3.078-2.919
				S69.286,96.601,69.376,99.225z"/>
			<path style="fill:#1A1B25;" d="M104.473,91.624c-0.098,0.325-0.738-0.5-2.261-0.995c-0.932-0.303-1.717,0-2.289,0.235
				c-0.575,0.236-0.819-1.144-0.521-1.393c0.37-0.307,1.658-0.635,2.9-0.224C103.794,89.737,104.574,91.298,104.473,91.624z"/>
			<path style="fill:#1A1B25;" d="M82.179,91.545c0.099,0.326,0.979-0.242,2.502-0.734c0.931-0.303,1.717,0,2.289,0.233
				c0.573,0.237,0.817-1.144,0.52-1.392c-0.368-0.308-1.657-0.634-2.899-0.226C83.099,89.917,82.08,91.221,82.179,91.545z"/>
			<path style="fill:#E0D5D0;" d="M71.222,80.648c0,0,2.627,18.36,4.728,18.406c-1.417-5.919,2.595-15.328,8.809-11.302
				c8.4,5.443,12.894-5.372,18.387-0.156c2.326,2.208,3.624,6.607,3.682,6.61l-1.056-13.559H71.222z"/>
			<path style="fill:#1A1B25;" d="M106.887,77.681c0.929,4.782,0.913,12.724-0.243,15.274c0.184-6.851-3.379-13.834-10.694-7.927
				c-6.688,5.4-12.78-5.116-17.405,0.987c-4.483,5.92-2.553,14.797-2.553,14.797l-1.637-0.798c0,0-2.176-2.383-3.897-8.336
				c-1.009-3.496-0.569-9.57-0.033-13.996H106.887z"/>
			<path style="fill:#8D5433;" d="M60.172,171.211c1.121-12.235,3.612-21.738,3.612-21.738l-7.248-2.87
				c0,0-2.114,11.333-2.559,24.608H60.172z"/>
			<path style="fill:#DADADA;" d="M61.98,171.211c0.999-10.636,2.512-22.257,4.533-25.398c2.182-3.727,2.627-19.489,0.021-18.933
				c-11.375,5.118-13.697,27.308-13.729,44.331H61.98z"/>
		</g>
	</g>
	<g>
		<defs>
			<circle id="SVGID_00000132067285185424526070000013618804937913665434_" cx="217.547" cy="68.78" r="42.5"/>
		</defs>
		<clipPath id="SVGID_00000067933933935755356780000005661795210387765680_">
			<use xlink:href="#SVGID_00000132067285185424526070000013618804937913665434_"  style="overflow:visible;"/>
		</clipPath>
		<g style="clip-path:url(#SVGID_00000067933933935755356780000005661795210387765680_);">
			<path style="fill:#30383C;" d="M212.737,131.879c1.512-1.34,2.606-2.298,2.606-2.298s1.674,0.941,4.101,2.298H212.737z"/>
			<path style="fill:#1A1B25;" d="M234.939,91.711c-7.199,4.593-24.154,4.117-30.026,0.584c-11.276-6.773-4.236-22.911-5.02-28.806
				c-0.785-5.894-3.043-9.787-1.384-17.248c1.559-7.013,5.617-12.606,15.577-13.804c16.701-2.011,24.52,6.893,23.597,20.907
				C236.852,65.987,245,85.294,234.939,91.711z"/>
			<path style="fill:#DADADA;" d="M200.766,95.315c0.353-1.916,2.983-5.688,5.314-6.387c0.969-0.35-0.786,28.077-0.786,28.077
				l0.786,9.544c0,0-9.913,1.599-10.551-6.362C194.747,110.442,200.415,97.231,200.766,95.315z"/>
			<path style="fill:#EDEDED;" d="M203.217,119.699c-6.091-3.496-2.932-7.365-1.453-12.604c0.971-3.442,3.103-8.026,3.103-8.026
				l0.427,17.937l0.061,0.739C205.21,117.707,203.362,119.781,203.217,119.699z"/>
			<path style="fill:#DADADA;" d="M235.879,131.879h-30.651l-1.319-12.166c0,0-2.594-3.092-2.584-6.316
				c1.417-6.015,3.551-13.367,4.755-24.468c3.416-1.217,7.249-2.768,7.249-2.768l7.363,4.238l7.37-4.238
				c0,0,2.184,0.059,5.601,1.271c3.419,1.217,2.819,19.394,2.819,28.815C236.482,119.337,236.013,129.132,235.879,131.879z"/>
			<path style="fill:#EDEDED;" d="M215.859,113.635c4.202,2.14,7.07,0.997,11.208,0.17c3.688-0.736,5.79,1.816,9.417,1.525
				c0,0.306-0.002,0.627-0.002,0.917c0,2.328-1.021,8.878-0.486,13.199c-7.383,0.694-15.259-4.238-15.259-4.238
				s-11.745,4.244-15.523,3.126l-1.304-8.621c0,0-1.408-0.58-2.145-2.758C206.954,117.281,210.158,110.731,215.859,113.635z"/>
			<path style="fill:#F9BB8D;" d="M213.329,86.16c-1.974,4.116-7.732,10.188,2.175,9.915c12.767-0.351,11.825-6.599,12.558-9.915
				c-2.79-0.486-3.871-7.279-1.752-11.726c2.121-4.448-13.47-0.95-11.531,1.169C216.716,77.724,216.136,85.674,213.329,86.16z"/>
			<path style="fill:#EBDFDA;" d="M214.999,84.628c4.531-1.754,6.882-7.296,6.861-12.251c-3.727,0.411-8.17,2.036-7.082,3.227
				C216.237,77.203,216.268,82.092,214.999,84.628z"/>
			<path style="fill:#F9BB8D;" d="M232.259,46.241l-0.782,19.067c0,7.406-12.348,16.683-17.737,16.683
				c-4.521,0-9.453-7.229-11.338-14.408c-2.048-7.8-1.292-17.887-0.942-21.342H232.259z"/>
			<path style="fill:#F9BB8D;" d="M228.099,62.635c0,2.263,0.868,3.86,3.318,4.098c3.583,0.347,4.23-2.689,4.191-4.573
				c-0.044-2.182-2.14-3.662-3.457-3.576C229.697,58.747,228.099,60.374,228.099,62.635z"/>
			<path style="fill:#1A1B25;" d="M220.551,59.226c0,0.789-0.638,1.426-1.422,1.426c-0.787,0-1.422-0.637-1.422-1.426
				c0-0.784,0.635-1.418,1.422-1.418C219.913,57.808,220.551,58.442,220.551,59.226z"/>
			<path style="fill:#1A1B25;" d="M206.929,59.226c0,0.789-0.636,1.426-1.421,1.426c-0.786,0-1.422-0.637-1.422-1.426
				c0-0.784,0.637-1.418,1.422-1.418C206.293,57.808,206.929,58.442,206.929,59.226z"/>
			<path style="fill:#FFFFFF;" d="M215.834,70.338c0,3.479-2.798,4.164-4.229,4.164c-1.431,0-4.727-0.686-4.727-4.164H215.834z"/>
			<g>
				<path style="fill:#F9BB8D;" d="M206.268,118.985c1.68,0.51,6.83,0.592,6.83,0.592s3.549-2.451,1.9-3.84
					c-0.263-0.22-0.644-1.046-1.175-2.393c-0.79-2.005-2.688-2.812-3.339-2.907c-0.989-0.146-2.272,0.96-2.272,0.96
					s-0.743-0.094-1.009,0.278c-0.603,0.843-0.474,1.951-0.474,1.951s-0.903-0.208-0.809,1.642c-0.415,0.866-0.951,0.813-0.264,2.24
					C205.067,118.232,205.849,118.858,206.268,118.985z"/>
				<polygon style="fill:#DF996D;" points="208.212,111.396 210.96,112.205 210.715,111.361 209.94,111.715 				"/>
			</g>
			<path style="fill:#DADADA;" d="M233.663,87.432c-2.32-0.496,0.897,13.53,2.84,16.85c3.53,5.49-0.444,13.038-0.444,13.038
				s1.118,9.429,4.954,7.671C251.619,119.393,246.985,90.275,233.663,87.432z"/>
			<path style="fill:#DADADA;" d="M214.76,114.355l-3.025,5.868c0,0,18.851,9.269,29.278,4.767c5.256-2.27,2.657-10.449-3.836-8.286
				C231.049,118.746,214.76,114.355,214.76,114.355z"/>
			<path style="fill:#EDEDED;" d="M228.488,121.437c-0.471,0.036-6.401,2.571-6.97,2.573c-5.556-1.709-9.783-3.787-9.783-3.787
				l2.176-4.218c0,0,2.792-0.082,5.165-0.616c4.307,0.941,10.916,2.14,15.437,1.793
				C234.512,120.291,232.639,121.115,228.488,121.437z"/>
			<path style="fill:#EBDFDA;" d="M211.357,64.021c-0.869,0-1.594,0.495-1.808,1.171c-0.04-0.129-0.071-0.264-0.071-0.405
				c0-0.87,0.842-1.576,1.879-1.576c1.037,0,1.879,0.706,1.879,1.576c0,0.142-0.03,0.276-0.071,0.405
				C212.952,64.516,212.226,64.021,211.357,64.021z"/>
			<path style="fill:#EBDFDA;" d="M233.954,62.787c-0.032,0.917-1.151,2.21-1.771,1.819c-0.619-0.391,0.779-2.575-1.396-2.12
				c0,0.725,0.388,2.205,1.584,2.417c1.181,0.212,2.203-0.788,2.2-2.254c-0.006-2.806-2.741-2.601-2.741-2.601
				S234.034,60.449,233.954,62.787z"/>
			<path style="fill:#1A1B25;" d="M202.693,56.016c0.087,0.29,0.659-0.446,2.015-0.884c0.829-0.271,1.529,0,2.038,0.209
				c0.512,0.209,0.728-1.021,0.464-1.242c-0.328-0.273-1.476-0.565-2.583-0.2C203.299,54.337,202.605,55.727,202.693,56.016z"/>
			<path style="fill:#1A1B25;" d="M222.55,55.946c-0.088,0.29-0.872-0.215-2.229-0.654c-0.83-0.269-1.529,0-2.038,0.208
				c-0.512,0.212-0.729-1.019-0.464-1.24c0.33-0.273,1.477-0.564,2.582-0.201C221.731,54.496,222.639,55.657,222.55,55.946z"/>
			<path style="fill:#EBDFDA;" d="M232.31,46.241l-2.164,14.208c-1.479-2.43-4.317-3.869-7.703-5.123
				c-5.357-1.981-8.357-7.96-12.343-5.257c-2.469-1.288-4.969,1.245-6.225,2.358c-2.137,1.896-2.869,5.762-2.922,5.763l0.583-11.95
				H232.31z"/>
			<path style="fill:#1A1B25;" d="M200.544,43.599c-0.829,4.259-0.52,10.729,0.509,13c1.323-5.672,5.365-10.865,8.511-8.247
				c5.106-5.087,8.908,5.259,19.985,8.923c1.444,2.038-0.03,6.214-0.03,6.214s1.938-2.123,3.471-7.425
				c0.899-3.114,0.508-8.523,0.031-12.465H200.544z"/>
			<g>
				<path style="fill:#F9BB8D;" d="M232.555,119.608c-1.688,0.479-6.838,0.468-6.838,0.468s-3.505-2.514-1.832-3.874
					c0.267-0.215,0.663-1.033,1.217-2.37c0.827-1.992,2.737-2.763,3.394-2.848c0.989-0.128,2.253,1.001,2.253,1.001
					s0.744-0.081,1.004,0.297c0.588,0.853,0.437,1.958,0.437,1.958s0.906-0.191,0.78,1.656c0.4,0.873,0.938,0.831,0.226,2.245
					C233.77,118.876,232.977,119.488,232.555,119.608z"/>
				<polygon style="fill:#DF996D;" points="230.749,111.985 227.985,112.743 228.245,111.905 229.014,112.273 				"/>
			</g>
			<path style="fill:#DADADA;" d="M225.066,115.248l2.919,5.921c0,0-19.014,8.93-29.359,4.242
				c-5.214-2.364-2.468-10.496,3.985-8.217C208.702,119.347,225.066,115.248,225.066,115.248z"/>
		</g>
	</g>
	<g>
		<defs>
			<circle id="SVGID_00000121962068470424476870000004646485083276441499_" cx="330.547" cy="105.631" r="42.5"/>
		</defs>
		<clipPath id="SVGID_00000112608031084312973270000004429727257380402584_">
			<use xlink:href="#SVGID_00000121962068470424476870000004646485083276441499_"  style="overflow:visible;"/>
		</clipPath>
		<g style="clip-path:url(#SVGID_00000112608031084312973270000004429727257380402584_);">
			<path style="fill:#FBBE62;" d="M321.561,75.128c0,4.274,4.44,3.251,9.915,3.251c5.477,0,9.916,1.023,9.916-3.251
				c0-4.273-5.427-7.35-10.12-7.35C326.576,67.778,321.561,70.854,321.561,75.128z"/>
			<path style="fill:#333F73;" d="M322.064,79.036c0,2.722,3.941,4.93,8.803,4.93c4.863,0,8.805-2.207,8.805-4.93
				c0-4.931-3.942-4.931-8.805-4.931C326.005,74.105,322.064,74.105,322.064,79.036z"/>
			<path style="fill:#E6A272;" d="M314.278,172.357c0.029-7.502-1.379-10.288-1.379-10.288l5.696-20.479
				c0,0,2.071,15.042,1.213,30.767H314.278z"/>
			<path style="fill:#1D2342;" d="M325.199,172.357c1.454-1.289,2.509-2.211,2.509-2.211s1.61,0.905,3.945,2.211H325.199z"/>
			<path style="fill:#FBBE62;" d="M335.115,124.359c-6.927,4.419-20.677-18.069-20.677-18.069s-4.524-9.149-2.929-16.327
				c1.502-6.747,5.406-12.128,14.988-13.28c16.069-1.934,23.591,6.63,22.704,20.115C348.4,108.961,344.794,118.186,335.115,124.359z
				"/>
			<path style="fill:#8B498B;" d="M313.053,138.698c0.34-1.843,3.499-6.993,5.741-7.666c0.933-0.336-0.756,27.014-0.756,27.014
				l0.756,9.184l-7.125-3.702C311.669,163.529,312.715,140.542,313.053,138.698z"/>
			<path style="fill:#CBCAD9;" d="M316.04,160.639c-5.86-3.363-2.821-7.086-1.398-12.127c0.934-3.312,2.986-7.722,2.986-7.722
				l0.41,17.257l-0.702,8.426C317.197,166.436,316.179,160.718,316.04,160.639z"/>
			<path style="fill:#8B498B;" d="M347.464,172.357h-29.489l-1.27-11.704c0,0-2.496-2.975-2.486-6.077
				c1.364-5.786,3.417-12.861,4.575-23.542c3.288-1.17,6.974-2.662,6.974-2.662l7.085,4.077l7.089-4.077
				c0,0,2.101,0.056,5.389,1.223c3.287,1.172,2.712,18.659,2.712,27.723C348.044,160.291,347.593,169.713,347.464,172.357z"/>
			<path style="fill:#E6A272;" d="M325.768,128.371c-1.901,3.959-7.439,9.802,2.093,9.54c12.283-0.338,11.376-6.35,12.082-9.54
				c-2.684-0.469-3.724-7.003-1.685-11.281c2.04-4.281-12.961-0.916-11.096,1.125C329.027,120.255,328.469,127.902,325.768,128.371z
				"/>
			<path style="fill:#EBDFDA;" d="M327.375,126.896c4.358-1.688,6.62-7.02,6.601-11.787c-3.585,0.395-7.86,1.959-6.813,3.105
				C328.566,119.752,328.597,124.457,327.375,126.896z"/>
			<path style="fill:#E6A272;" d="M343.981,89.963l-0.751,18.346c0,7.123-11.882,16.049-17.066,16.049
				c-4.351,0-9.094-6.954-10.909-13.86c-1.969-7.506-1.241-17.21-0.907-20.535H343.981z"/>
			<path style="fill:#E6A272;" d="M339.978,105.736c0,2.178,0.835,3.713,3.192,3.943c3.447,0.334,4.07-2.586,4.032-4.399
				c-0.043-2.099-2.059-3.523-3.324-3.44C341.516,101.996,339.978,103.562,339.978,105.736z"/>
			<path style="fill:#383B4E;" d="M332.717,102.457c0,0.759-0.614,1.371-1.369,1.371c-0.758,0-1.368-0.612-1.368-1.371
				c0-0.755,0.61-1.365,1.368-1.365C332.103,101.092,332.717,101.702,332.717,102.457z"/>
			<path style="fill:#383B4E;" d="M319.612,102.457c0,0.759-0.613,1.371-1.369,1.371c-0.754,0-1.368-0.612-1.368-1.371
				c0-0.755,0.614-1.365,1.368-1.365C318.999,101.092,319.612,101.702,319.612,102.457z"/>
			<path style="fill:#FFFFFF;" d="M328.179,113.148c0,3.347-2.692,4.005-4.068,4.005c-1.377,0-4.548-0.659-4.548-4.005H328.179z"/>
			<path style="fill:#E6A272;" d="M353.85,172.357c-1.525-15.051-5.575-27.685-5.575-27.685l7.177-3.3
				c0,0,3.661,15.067,4.346,30.984H353.85z"/>
			<path style="fill:#8B498B;" d="M345.332,129.593c-2.232-0.476,0.228,14.907,2.097,18.1c1.966,7.173,4.568,16.271,4.568,16.271
				l7.441-3.324C359.438,160.641,358.148,132.33,345.332,129.593z"/>
			<path style="fill:#EBDFDA;" d="M323.871,107.069c-0.836,0-1.534,0.478-1.739,1.126c-0.04-0.124-0.068-0.254-0.068-0.389
				c0-0.837,0.81-1.516,1.807-1.516c0.998,0,1.807,0.679,1.807,1.516c0,0.135-0.029,0.265-0.067,0.389
				C325.405,107.547,324.707,107.069,323.871,107.069z"/>
			<path style="fill:#EBDFDA;" d="M345.612,105.882c-0.03,0.884-1.108,2.126-1.704,1.752c-0.596-0.376,0.748-2.477-1.342-2.04
				c0,0.697,0.372,2.121,1.522,2.326c1.137,0.204,2.121-0.758,2.117-2.169c-0.005-2.699-2.636-2.502-2.636-2.502
				S345.689,103.634,345.612,105.882z"/>
			<path style="fill:#FBBE62;" d="M315.535,99.368c0.084,0.278,0.633-0.43,1.939-0.852c0.798-0.259,1.471,0,1.961,0.201
				c0.492,0.202,0.699-0.981,0.445-1.193c-0.315-0.263-1.42-0.544-2.484-0.193C316.119,97.753,315.45,99.091,315.535,99.368z"/>
			<path style="fill:#FBBE62;" d="M334.64,99.301c-0.084,0.279-0.839-0.207-2.144-0.629c-0.798-0.259-1.472,0-1.96,0.2
				c-0.493,0.203-0.701-0.98-0.447-1.193c0.316-0.263,1.421-0.543,2.484-0.193C333.853,97.906,334.726,99.023,334.64,99.301z"/>
			<path style="fill:#EBDFDA;" d="M344.03,89.963l-2.684,16.594c-0.696-4.722-4.189-6.164-5.81-9.236
				c-2.177-4.123-4.802-3.79-9.184-3.9c-4.382-0.11-7.327-0.427-8.593,0.577c-3.54,2.801-3.846,7.461-3.897,7.463l0.56-11.498
				H344.03z"/>
			<path style="fill:#FBBE62;" d="M313.467,87.422c-0.797,4.097-0.5,10.322,0.488,12.507c1.274-5.457,2.153-9.617,8.108-8.056
				c5.956,1.561,6.465-1.79,11.306,0.279c4.078,1.745,1.403,5.909,7.432,8.188c1.39,1.962,0.545,6.217,0.545,6.217
				s1.864-2.042,3.338-7.143c0.866-2.997,0.488-8.202,0.031-11.993H313.467z"/>
		</g>
	</g>
	<g>
		<defs>
			<circle id="SVGID_00000041272600612737598070000016141205157396844437_" cx="367.942" cy="226.78" r="42.5"/>
		</defs>
		<clipPath id="SVGID_00000178910630290407161960000000376116404209023919_">
			<use xlink:href="#SVGID_00000041272600612737598070000016141205157396844437_"  style="overflow:visible;"/>
		</clipPath>
		<g style="clip-path:url(#SVGID_00000178910630290407161960000000376116404209023919_);">
			<path style="fill:#1A1B25;" d="M370.035,238.21c-14.808-0.075-19.654-10.16-19.654-10.16s-4.777-4.811-5.086-17.512
				c-0.16-6.559,1.962-22.081,13.264-16.876c16.059-7.859,26.895,4.376,26.979,18.768
				C385.612,225.266,380.303,238.263,370.035,238.21z"/>
			<path style="fill:#DADADA;" d="M346.738,254.947c0.36-1.964,1.91-4.73,4.298-5.446c0.993-0.357,1.31,28.166,1.31,28.166
				l0.805,9.781c0,0-10.156,1.637-10.811-6.52C341.538,270.94,346.377,256.91,346.738,254.947z"/>
			<path style="fill:#EDEDED;" d="M350.217,280.427c-6.24-3.583-3.004-7.548-1.489-12.918c0.997-3.526,3.18-8.225,3.18-8.225
				l0.438,18.383l0.063,0.756C352.261,278.384,350.365,280.511,350.217,280.427z"/>
			<path style="fill:#A52116;" d="M387.974,289.396h-38.772c-0.327-5.454-0.8-14.709-0.474-17.91
				c0.476-4.646,1.075-10.609,2.308-21.984c3.503-1.246,9.544-3.442,9.544-3.442l7.546,4.34l7.551-4.34c0,0,5.129,0.046,8.631,1.288
				c3.502,1.247,1.504,12.855,1.504,22.51C385.812,271.69,387.115,280.654,387.974,289.396z"/>
			<path style="fill:#DADADA;" d="M380.689,246.486c-2.627-0.407-5.012-0.428-5.012-0.428l-7.551,4.34l-7.546-4.34
				c0,0-2.889,1.052-5.831,2.11c-1.311,0.474,5.7,11.801,9.327,13.042C367.704,262.452,381.915,246.676,380.689,246.486z"/>
			<path style="fill:#EDEDED;" d="M383.729,289.396h-8.043c-4.285-1.306-7.515-3.323-7.515-3.323s-7.868,2.841-12.928,3.323h-2.334
				c-0.228-0.03-0.455-0.064-0.646-0.121l-1.338-8.833c0,0-1.443-0.595-2.197-2.827c5.32,0.335,8.602-6.379,14.445-3.404
				c4.307,2.194,7.244,1.023,11.485,0.178c3.778-0.755,5.932,1.86,9.65,1.561c-0.001,0.313-0.003,0.643-0.003,0.941
				C384.305,279.102,383.423,285.012,383.729,289.396z"/>
			<path style="fill:#F9BB8D;" d="M360.58,246.059c-0.428,2.994,3.777,6.432,3.777,6.432s10.569-3.036,11.32-6.432
				c-2.859-0.501-3.967-7.461-1.794-12.018c2.172-4.559-13.806-0.975-11.819,1.198C364.051,237.413,363.456,245.557,360.58,246.059z
				"/>
			<path style="fill:#EBDFDA;" d="M362.292,244.486c4.641-1.798,7.051-7.477,7.031-12.554c-3.82,0.42-8.373,2.086-7.258,3.307
				C363.559,236.878,363.592,241.889,362.292,244.486z"/>
			<path style="fill:#F9BB8D;" d="M379.978,205.148l-0.801,19.543c0,7.587-12.653,17.094-18.177,17.094
				c-4.632,0-11.68-7.874-12.722-14.962c-1.202-8.179-0.219-18.131,0.138-21.674H379.978z"/>
			<path style="fill:#F9BB8D;" d="M375.716,221.949c0,2.318,0.888,3.956,3.399,4.199c3.672,0.355,4.336-2.756,4.295-4.687
				c-0.046-2.236-2.193-3.751-3.543-3.663C377.353,217.966,375.716,219.633,375.716,221.949z"/>
			<path style="fill:#1A1B25;" d="M367.98,218.457c0,0.808-0.653,1.46-1.457,1.46c-0.807,0-1.459-0.651-1.459-1.46
				c0-0.805,0.652-1.455,1.459-1.455C367.327,217.003,367.98,217.652,367.98,218.457z"/>
			<path style="fill:#1A1B25;" d="M354.022,218.457c0,0.808-0.652,1.46-1.458,1.46c-0.804,0-1.457-0.651-1.457-1.46
				c0-0.805,0.653-1.455,1.457-1.455C353.37,217.003,354.022,217.652,354.022,218.457z"/>
			<path style="fill:#FFFFFF;" d="M364.357,228.982c0,3.566-3.247,4.269-4.906,4.269c-1.659,0-5.482-0.702-5.482-4.269H364.357z"/>
			<g>
				<path style="fill:#F9BB8D;" d="M353.343,279.697c1.723,0.52,6.999,0.604,6.999,0.604s3.636-2.512,1.948-3.936
					c-0.269-0.227-0.66-1.071-1.204-2.451c-0.81-2.055-2.754-2.883-3.422-2.98c-1.013-0.149-2.328,0.982-2.328,0.982
					s-0.761-0.096-1.035,0.286c-0.618,0.863-0.484,2-0.484,2s-0.925-0.213-0.83,1.683c-0.425,0.887-0.975,0.833-0.271,2.295
					C352.114,278.924,352.914,279.565,353.343,279.697z"/>
				<polygon style="fill:#DF996D;" points="355.336,271.917 358.153,272.746 357.901,271.883 357.107,272.245 				"/>
			</g>
			<path style="fill:#DADADA;" d="M384.308,247.346c-2.378-0.507-1.972,13.88,0.02,17.28c3.618,5.627-0.455,13.361-0.455,13.361
				s1.145,9.662,5.076,7.86C399.817,280.114,397.96,250.261,384.308,247.346z"/>
			<path style="fill:#DADADA;" d="M362.046,274.951l-3.1,6.013c0,0,19.319,9.499,30.003,4.883c5.385-2.325,2.723-10.708-3.931-8.49
				C378.738,279.449,362.046,274.951,362.046,274.951z"/>
			<path style="fill:#EDEDED;" d="M376.113,282.207c-0.481,0.036-6.56,2.634-7.142,2.636c-5.692-1.752-10.025-3.88-10.025-3.88
				l2.229-4.322c0,0,2.861-0.084,5.292-0.633c4.415,0.965,11.188,2.193,15.818,1.838
				C382.286,281.032,380.368,281.877,376.113,282.207z"/>
			<path style="fill:#EBDFDA;" d="M358.559,223.37c-0.891,0-1.635,0.509-1.853,1.199c-0.043-0.133-0.071-0.271-0.071-0.414
				c0-0.893,0.862-1.617,1.924-1.617c1.063,0,1.925,0.724,1.925,1.617c0,0.143-0.03,0.281-0.073,0.414
				C360.192,223.879,359.45,223.37,358.559,223.37z"/>
			<path style="fill:#EBDFDA;" d="M381.714,222.105c-0.031,0.939-1.179,2.265-1.815,1.865c-0.633-0.4,0.798-2.639-1.429-2.172
				c0,0.742,0.397,2.258,1.623,2.477c1.209,0.217,2.256-0.808,2.254-2.311c-0.005-2.875-2.81-2.665-2.81-2.665
				S381.797,219.709,381.714,222.105z"/>
			<path style="fill:#1A1B25;" d="M349.681,215.166c0.089,0.297,0.673-0.457,2.063-0.906c0.851-0.278,1.567,0,2.089,0.213
				c0.525,0.215,0.747-1.044,0.476-1.271c-0.338-0.28-1.514-0.58-2.647-0.206C350.3,213.444,349.588,214.87,349.681,215.166z"/>
			<path style="fill:#1A1B25;" d="M370.029,215.095c-0.089,0.298-0.894-0.22-2.283-0.669c-0.85-0.277-1.568,0-2.089,0.212
				c-0.524,0.217-0.746-1.043-0.475-1.27c0.335-0.281,1.512-0.579,2.645-0.208C369.188,213.61,370.12,214.799,370.029,215.095z"/>
			<path style="fill:#EBDFDA;" d="M380.03,205.148c0,0-2.397,16.76-4.314,16.801c1.293-5.403-1.988-10.665-5.681-10.439
				c-9.12,0.563-17.856-1.161-19.143-0.019c-2.191,1.942-2.941,5.903-2.994,5.905l0.597-12.248H380.03z"/>
			<path style="fill:#1A1B25;" d="M347.478,202.441c-0.85,4.366-0.834,11.614,0.22,13.942c1.357-5.813,3.549-8.836,11.853-6.672
				c7.179,1.869,11.366-2.853,15.585,2.718c4.094,5.405,0.58,9.521,0.58,9.521l1.455,0.876c0,0,1.985-2.176,3.557-7.609
				c0.921-3.191,0.521-8.735,0.031-12.775H347.478z"/>
			<g>
				<path style="fill:#F9BB8D;" d="M380.283,280.334c-1.732,0.489-7.009,0.479-7.009,0.479s-3.591-2.577-1.877-3.97
					c0.272-0.22,0.678-1.059,1.247-2.43c0.848-2.04,2.805-2.831,3.477-2.917c1.014-0.132,2.308,1.025,2.308,1.025
					s0.764-0.083,1.029,0.303c0.603,0.875,0.447,2.008,0.447,2.008s0.93-0.197,0.801,1.696c0.408,0.895,0.96,0.852,0.23,2.303
					C381.526,279.583,380.714,280.211,380.283,280.334z"/>
				<polygon style="fill:#DF996D;" points="378.429,272.522 375.599,273.299 375.865,272.439 376.653,272.815 				"/>
			</g>
			<path style="fill:#DADADA;" d="M372.606,275.865l2.992,6.068c0,0-19.486,9.152-30.086,4.347
				c-5.342-2.422-2.529-10.757,4.083-8.421C355.836,280.065,372.606,275.865,372.606,275.865z"/>
		</g>
	</g>
	<g>
		<g>
			<g>
				<path style="fill:#EDEDED;" d="M299.475,344.131c0,2.274-1.844,4.119-4.119,4.119H123.729c-2.275,0-4.119-1.844-4.119-4.119
					v-66.592c0-2.274,1.844-4.119,4.119-4.119h171.628c2.274,0,4.119,1.845,4.119,4.119V344.131z"/>
				<path style="fill:#D4D4D4;" d="M296.369,273.561c0.181,0.463,0.289,0.964,0.289,1.492v66.591c0,2.275-1.844,4.119-4.119,4.119
					H120.912c-0.352,0-0.687-0.057-1.013-0.141c0.599,1.535,2.083,2.627,3.83,2.627h171.628c2.274,0,4.119-1.844,4.119-4.119
					v-66.592C299.475,275.615,298.151,274.013,296.369,273.561z"/>
				<g>
					<path style="fill:#5A4F5D;" d="M126.923,287.811h8.414c0.71,0,1.287-0.458,1.287-1.017v-2.613c0-0.561-0.576-1.018-1.287-1.018
						h-8.414c-0.712,0-1.286,0.456-1.286,1.018v2.613C125.637,287.353,126.21,287.811,126.923,287.811z"/>
					<path style="fill:#5A4F5D;" d="M138.813,287.811h8.413c0.712,0,1.288-0.458,1.288-1.017v-2.613
						c0-0.561-0.575-1.018-1.288-1.018h-8.413c-0.71,0-1.287,0.456-1.287,1.018v2.613
						C137.525,287.353,138.103,287.811,138.813,287.811z"/>
					<path style="fill:#5A4F5D;" d="M150.883,287.811h8.416c0.711,0,1.282-0.458,1.282-1.017v-2.613
						c0-0.561-0.571-1.018-1.282-1.018h-8.416c-0.71,0-1.287,0.456-1.287,1.018v2.613
						C149.597,287.353,150.174,287.811,150.883,287.811z"/>
					<path style="fill:#5A4F5D;" d="M162.956,287.811h8.415c0.709,0,1.284-0.458,1.284-1.017v-2.613
						c0-0.561-0.575-1.018-1.284-1.018h-8.415c-0.713,0-1.288,0.456-1.288,1.018v2.613
						C161.668,287.353,162.243,287.811,162.956,287.811z"/>
					<path style="fill:#5A4F5D;" d="M175.025,287.811h8.415c0.71,0,1.284-0.458,1.284-1.017v-2.613c0-0.561-0.574-1.018-1.284-1.018
						h-8.415c-0.711,0-1.284,0.456-1.284,1.018v2.613C173.741,287.353,174.314,287.811,175.025,287.811z"/>
					<path style="fill:#5A4F5D;" d="M187.097,287.811h8.417c0.708,0,1.281-0.458,1.281-1.017v-2.613
						c0-0.561-0.573-1.018-1.281-1.018h-8.417c-0.712,0-1.286,0.456-1.286,1.018v2.613
						C185.811,287.353,186.384,287.811,187.097,287.811z"/>
					<path style="fill:#5A4F5D;" d="M199.168,287.811h8.417c0.708,0,1.281-0.458,1.281-1.017v-2.613
						c0-0.561-0.573-1.018-1.281-1.018h-8.417c-0.712,0-1.287,0.456-1.287,1.018v2.613
						C197.881,287.353,198.456,287.811,199.168,287.811z"/>
					<path style="fill:#5A4F5D;" d="M211.237,287.811h8.414c0.713,0,1.288-0.458,1.288-1.017v-2.613
						c0-0.561-0.575-1.018-1.288-1.018h-8.414c-0.708,0-1.285,0.456-1.285,1.018v2.613
						C209.953,287.353,210.529,287.811,211.237,287.811z"/>
					<path style="fill:#5A4F5D;" d="M223.309,287.811h8.415c0.711,0,1.286-0.458,1.286-1.017v-2.613
						c0-0.561-0.575-1.018-1.286-1.018h-8.415c-0.71,0-1.284,0.456-1.284,1.018v2.613
						C222.025,287.353,222.599,287.811,223.309,287.811z"/>
					<path style="fill:#5A4F5D;" d="M235.383,287.811h8.413c0.708,0,1.285-0.458,1.285-1.017v-2.613
						c0-0.561-0.577-1.018-1.285-1.018h-8.413c-0.711,0-1.287,0.456-1.287,1.018v2.613
						C234.096,287.353,234.672,287.811,235.383,287.811z"/>
					<path style="fill:#5A4F5D;" d="M247.45,287.811h8.417c0.712,0,1.286-0.458,1.286-1.017v-2.613c0-0.561-0.574-1.018-1.286-1.018
						h-8.417c-0.71,0-1.285,0.456-1.285,1.018v2.613C246.165,287.353,246.74,287.811,247.45,287.811z"/>
					<path style="fill:#5A4F5D;" d="M259.522,287.811h8.416c0.711,0,1.284-0.458,1.284-1.017v-2.613
						c0-0.561-0.573-1.018-1.284-1.018h-8.416c-0.712,0-1.284,0.456-1.284,1.018v2.613
						C258.238,287.353,258.81,287.811,259.522,287.811z"/>
					<path style="fill:#5A4F5D;" d="M271.593,287.811h8.415c0.71,0,1.289-0.458,1.289-1.017v-2.613c0-0.561-0.579-1.018-1.289-1.018
						h-8.415c-0.709,0-1.285,0.456-1.285,1.018v2.613C270.308,287.353,270.884,287.811,271.593,287.811z"/>
					<path style="fill:#5A4F5D;" d="M283.667,287.811h8.415c0.708,0,1.282-0.458,1.282-1.017v-2.613
						c0-0.561-0.574-1.018-1.282-1.018h-8.415c-0.711,0-1.286,0.456-1.286,1.018v2.613
						C282.38,287.353,282.956,287.811,283.667,287.811z"/>
					<path style="fill:#5A4F5D;" d="M292.163,330.781h-8.416c-0.708,0-1.287,0.454-1.287,1.015v2.615
						c0,0.561,0.579,1.017,1.287,1.017h8.416c0.711,0,1.287-0.455,1.287-1.017v-2.615
						C293.449,331.235,292.874,330.781,292.163,330.781z"/>
					<path style="fill:#5A4F5D;" d="M279.639,328.137h-8.414c-0.71,0-1.284,0.456-1.284,1.019v2.612
						c0,0.562,0.574,1.017,1.284,1.017h8.414c0.71,0,1.288-0.455,1.288-1.017v-2.612
						C280.926,328.593,280.348,328.137,279.639,328.137z"/>
					<path style="fill:#5A4F5D;" d="M279.639,333.864h-8.414c-0.71,0-1.284,0.455-1.284,1.016v2.612
						c0,0.562,0.574,1.015,1.284,1.015h8.414c0.71,0,1.288-0.453,1.288-1.015v-2.612
						C280.926,334.318,280.348,333.864,279.639,333.864z"/>
					<path style="fill:#5A4F5D;" d="M267.125,330.781h-8.413c-0.711,0-1.287,0.454-1.287,1.015v2.615
						c0,0.561,0.576,1.017,1.287,1.017h8.413c0.713,0,1.289-0.455,1.289-1.017v-2.615
						C268.414,331.235,267.838,330.781,267.125,330.781z"/>
					<path style="fill:#5A4F5D;" d="M135.19,289.045h-8.286c-0.7,0-1.268,0.456-1.268,1.017v6.139c0,0.56,0.568,1.014,1.268,1.014
						h8.286c0.701,0,1.265-0.454,1.265-1.014v-6.139C136.454,289.5,135.891,289.045,135.19,289.045z"/>
					<path style="fill:#5A4F5D;" d="M138.615,297.214h8.286c0.698,0,1.268-0.454,1.268-1.014v-6.139
						c0-0.561-0.569-1.017-1.268-1.017h-8.286c-0.701,0-1.268,0.456-1.268,1.017v6.139
						C137.347,296.76,137.913,297.214,138.615,297.214z"/>
					<path style="fill:#5A4F5D;" d="M150.323,297.214h8.292c0.694,0,1.264-0.454,1.264-1.014v-6.139c0-0.561-0.57-1.017-1.264-1.017
						h-8.292c-0.698,0-1.267,0.456-1.267,1.017v6.139C149.056,296.76,149.624,297.214,150.323,297.214z"/>
					<path style="fill:#5A4F5D;" d="M162.038,297.214h8.285c0.699,0,1.267-0.454,1.267-1.014v-6.139
						c0-0.561-0.568-1.017-1.267-1.017h-8.285c-0.703,0-1.268,0.456-1.268,1.017v6.139
						C160.77,296.76,161.336,297.214,162.038,297.214z"/>
					<path style="fill:#5A4F5D;" d="M172.481,296.2c0,0.56,0.566,1.014,1.263,1.014h8.29c0.702,0,1.269-0.454,1.269-1.014v-6.139
						c0-0.561-0.566-1.017-1.269-1.017h-8.29c-0.697,0-1.263,0.456-1.263,1.017V296.2z"/>
					<path style="fill:#5A4F5D;" d="M184.191,290.061v6.139c0,0.56,0.567,1.014,1.266,1.014h8.291c0.695,0,1.264-0.454,1.264-1.014
						v-6.139c0-0.561-0.569-1.017-1.264-1.017h-8.291C184.758,289.045,184.191,289.5,184.191,290.061z"/>
					<path style="fill:#5A4F5D;" d="M195.902,290.061v6.139c0,0.56,0.568,1.014,1.269,1.014h8.286c0.699,0,1.269-0.454,1.269-1.014
						v-6.139c0-0.561-0.569-1.017-1.269-1.017h-8.286C196.47,289.045,195.902,289.5,195.902,290.061z"/>
					<path style="fill:#5A4F5D;" d="M207.612,290.061v6.139c0,0.56,0.569,1.014,1.269,1.014h8.287c0.701,0,1.266-0.454,1.266-1.014
						v-6.139c0-0.561-0.564-1.017-1.266-1.017h-8.287C208.181,289.045,207.612,289.5,207.612,290.061z"/>
					<path style="fill:#5A4F5D;" d="M228.876,289.045h-8.286c-0.698,0-1.266,0.456-1.266,1.017v6.139
						c0,0.56,0.568,1.014,1.266,1.014h8.286c0.703,0,1.27-0.454,1.27-1.014v-6.139C230.146,289.5,229.579,289.045,228.876,289.045z"
						/>
					<path style="fill:#5A4F5D;" d="M240.589,289.045h-8.288c-0.7,0-1.267,0.456-1.267,1.017v6.139c0,0.56,0.567,1.014,1.267,1.014
						h8.288c0.701,0,1.269-0.454,1.269-1.014v-6.139C241.858,289.5,241.29,289.045,240.589,289.045z"/>
					<path style="fill:#5A4F5D;" d="M252.3,297.214c0.698,0,1.265-0.454,1.265-1.014v-6.139c0-0.561-0.566-1.017-1.265-1.017h-8.286
						c-0.699,0-1.268,0.456-1.268,1.017v6.139c0,0.56,0.569,1.014,1.268,1.014H252.3z"/>
					<path style="fill:#5A4F5D;" d="M264.011,297.214c0.699,0,1.264-0.454,1.264-1.014v-6.139c0-0.561-0.565-1.017-1.264-1.017
						h-8.288c-0.698,0-1.265,0.456-1.265,1.017v6.139c0,0.56,0.567,1.014,1.265,1.014H264.011z"/>
					<path style="fill:#5A4F5D;" d="M275.723,289.045h-8.289c-0.701,0-1.265,0.456-1.265,1.017v6.139
						c0,0.56,0.564,1.014,1.265,1.014h8.289c0.701,0,1.267-0.454,1.267-1.014v-6.139C276.99,289.5,276.423,289.045,275.723,289.045z
						"/>
					<path style="fill:#5A4F5D;" d="M293.364,290.061c0-0.561-0.565-1.017-1.267-1.017h-12.952c-0.7,0-1.266,0.456-1.266,1.017
						v6.139c0,0.56,0.566,1.014,1.266,1.014h12.952c0.701,0,1.267-0.454,1.267-1.014V290.061z"/>
					<path style="fill:#5A4F5D;" d="M135.19,327.259h-8.286c-0.7,0-1.268,0.453-1.268,1.013v6.139c0,0.561,0.568,1.017,1.268,1.017
						h8.286c0.701,0,1.265-0.455,1.265-1.017v-6.139C136.454,327.712,135.891,327.259,135.19,327.259z"/>
					<path style="fill:#5A4F5D;" d="M146.901,327.259h-8.286c-0.701,0-1.268,0.453-1.268,1.013v6.139
						c0,0.561,0.566,1.017,1.268,1.017h8.286c0.698,0,1.268-0.455,1.268-1.017v-6.139
						C148.168,327.712,147.599,327.259,146.901,327.259z"/>
					<path style="fill:#5A4F5D;" d="M158.615,327.259h-8.292c-0.698,0-1.267,0.453-1.267,1.013v6.139
						c0,0.561,0.568,1.017,1.267,1.017h8.292c0.694,0,1.264-0.455,1.264-1.017v-6.139
						C159.879,327.712,159.309,327.259,158.615,327.259z"/>
					<path style="fill:#5A4F5D;" d="M224.665,327.259h-62.357c-0.699,0-1.263,0.453-1.263,1.013v6.139
						c0,0.561,0.563,1.017,1.263,1.017h62.357c0.7,0,1.266-0.455,1.266-1.017v-6.139
						C225.931,327.712,225.364,327.259,224.665,327.259z"/>
					<path style="fill:#5A4F5D;" d="M270.833,299.673v6.139c0,0.561,0.565,1.015,1.265,1.015h8.29c0.699,0,1.265-0.454,1.265-1.015
						v-6.139c0-0.561-0.566-1.015-1.265-1.015h-8.29C271.399,298.658,270.833,299.113,270.833,299.673z"/>
					<path style="fill:#5A4F5D;" d="M269.941,305.813v-6.139c0-0.561-0.565-1.015-1.266-1.015h-8.288
						c-0.698,0-1.266,0.455-1.266,1.015v6.139c0,0.561,0.568,1.015,1.266,1.015h8.288
						C269.375,306.827,269.941,306.373,269.941,305.813z"/>
					<path style="fill:#5A4F5D;" d="M258.232,305.813v-6.139c0-0.561-0.565-1.015-1.265-1.015h-8.288
						c-0.701,0-1.269,0.455-1.269,1.015v6.139c0,0.561,0.567,1.015,1.269,1.015h8.288
						C257.667,306.827,258.232,306.373,258.232,305.813z"/>
					<path style="fill:#5A4F5D;" d="M235.702,299.673v6.139c0,0.561,0.566,1.015,1.264,1.015h8.288c0.701,0,1.266-0.454,1.266-1.015
						v-6.139c0-0.561-0.564-1.015-1.266-1.015h-8.288C236.268,298.658,235.702,299.113,235.702,299.673z"/>
					<path style="fill:#5A4F5D;" d="M223.991,299.673v6.139c0,0.561,0.564,1.015,1.266,1.015h8.288c0.697,0,1.264-0.454,1.264-1.015
						v-6.139c0-0.561-0.567-1.015-1.264-1.015h-8.288C224.555,298.658,223.991,299.113,223.991,299.673z"/>
					<path style="fill:#5A4F5D;" d="M212.277,299.673v6.139c0,0.561,0.569,1.015,1.27,1.015h8.29c0.696,0,1.264-0.454,1.264-1.015
						v-6.139c0-0.561-0.568-1.015-1.264-1.015h-8.29C212.846,298.658,212.277,299.113,212.277,299.673z"/>
					<path style="fill:#5A4F5D;" d="M210.121,306.827c0.701,0,1.268-0.454,1.268-1.015v-6.139c0-0.561-0.566-1.015-1.268-1.015
						h-8.285c-0.703,0-1.266,0.455-1.266,1.015v6.139c0,0.561,0.563,1.015,1.266,1.015H210.121z"/>
					<path style="fill:#5A4F5D;" d="M198.411,306.827c0.699,0,1.267-0.454,1.267-1.015v-6.139c0-0.561-0.567-1.015-1.267-1.015
						h-8.288c-0.699,0-1.264,0.455-1.264,1.015v6.139c0,0.561,0.564,1.015,1.264,1.015H198.411z"/>
					<path style="fill:#5A4F5D;" d="M186.699,306.827c0.698,0,1.268-0.454,1.268-1.015v-6.139c0-0.561-0.569-1.015-1.268-1.015
						h-8.285c-0.701,0-1.27,0.455-1.27,1.015v6.139c0,0.561,0.568,1.015,1.27,1.015H186.699z"/>
					<path style="fill:#5A4F5D;" d="M174.991,306.827c0.699,0,1.264-0.454,1.264-1.015v-6.139c0-0.561-0.565-1.015-1.264-1.015
						h-8.29c-0.697,0-1.267,0.455-1.267,1.015v6.139c0,0.561,0.569,1.015,1.267,1.015H174.991z"/>
					<path style="fill:#5A4F5D;" d="M163.278,306.827c0.702,0,1.268-0.454,1.268-1.015v-6.139c0-0.561-0.565-1.015-1.268-1.015
						h-8.29c-0.697,0-1.262,0.455-1.262,1.015v6.139c0,0.561,0.565,1.015,1.262,1.015H163.278z"/>
					<path style="fill:#5A4F5D;" d="M152.833,305.813v-6.139c0-0.561-0.567-1.015-1.265-1.015h-8.29
						c-0.702,0-1.266,0.455-1.266,1.015v6.139c0,0.561,0.564,1.015,1.266,1.015h8.29
						C152.265,306.827,152.833,306.373,152.833,305.813z"/>
					<path style="fill:#5A4F5D;" d="M126.904,306.827h12.949c0.701,0,1.271-0.454,1.271-1.015v-6.139
						c0-0.561-0.57-1.015-1.271-1.015h-12.949c-0.7,0-1.268,0.455-1.268,1.015v6.139
						C125.637,306.373,126.204,306.827,126.904,306.827z"/>
					<path style="fill:#5A4F5D;" d="M293.364,309.994v-0.631v-9.689c0-0.561-0.565-1.015-1.267-1.015h-8.285
						c-0.699,0-1.267,0.455-1.267,1.015v8.674h-4.955c-0.703,0-1.267,0.453-1.267,1.015v6.138c0,0.561,0.564,1.015,1.267,1.015
						h14.507c0.701,0,1.267-0.454,1.267-1.015V309.994z"/>
					<path style="fill:#5A4F5D;" d="M265.878,316.516h8.289c0.7,0,1.267-0.454,1.267-1.015v-6.138c0-0.562-0.566-1.015-1.267-1.015
						h-8.289c-0.699,0-1.268,0.453-1.268,1.015v6.138C264.61,316.061,265.179,316.516,265.878,316.516z"/>
					<path style="fill:#5A4F5D;" d="M254.165,316.516h8.291c0.695,0,1.265-0.454,1.265-1.015v-6.138c0-0.562-0.57-1.015-1.265-1.015
						h-8.291c-0.698,0-1.265,0.453-1.265,1.015v6.138C252.901,316.061,253.467,316.516,254.165,316.516z"/>
					<path style="fill:#5A4F5D;" d="M252.011,315.5v-6.138c0-0.562-0.567-1.015-1.27-1.015h-8.288c-0.698,0-1.262,0.453-1.262,1.015
						v6.138c0,0.561,0.564,1.015,1.262,1.015h8.288C251.444,316.516,252.011,316.061,252.011,315.5z"/>
					<path style="fill:#5A4F5D;" d="M240.3,315.5v-6.138c0-0.562-0.568-1.015-1.268-1.015h-8.29c-0.699,0-1.267,0.453-1.267,1.015
						v6.138c0,0.561,0.568,1.015,1.267,1.015h8.29C239.732,316.516,240.3,316.061,240.3,315.5z"/>
					<path style="fill:#5A4F5D;" d="M228.589,315.5v-6.138c0-0.562-0.566-1.015-1.266-1.015h-8.286
						c-0.701,0-1.269,0.453-1.269,1.015v6.138c0,0.561,0.567,1.015,1.269,1.015h8.286
						C228.022,316.516,228.589,316.061,228.589,315.5z"/>
					<path style="fill:#5A4F5D;" d="M216.875,315.5v-6.138c0-0.562-0.562-1.015-1.265-1.015h-8.288
						c-0.699,0-1.267,0.453-1.267,1.015v6.138c0,0.561,0.567,1.015,1.267,1.015h8.288
						C216.313,316.516,216.875,316.061,216.875,315.5z"/>
					<path style="fill:#5A4F5D;" d="M205.167,315.5v-6.138c0-0.562-0.569-1.015-1.266-1.015h-8.288c-0.7,0-1.268,0.453-1.268,1.015
						v6.138c0,0.561,0.568,1.015,1.268,1.015h8.288C204.597,316.516,205.167,316.061,205.167,315.5z"/>
					<path style="fill:#5A4F5D;" d="M193.456,315.5v-6.138c0-0.562-0.57-1.015-1.268-1.015h-8.287c-0.701,0-1.267,0.453-1.267,1.015
						v6.138c0,0.561,0.565,1.015,1.267,1.015h8.287C192.886,316.516,193.456,316.061,193.456,315.5z"/>
					<path style="fill:#5A4F5D;" d="M181.744,315.5v-6.138c0-0.562-0.566-1.015-1.268-1.015h-8.286
						c-0.698,0-1.266,0.453-1.266,1.015v6.138c0,0.561,0.568,1.015,1.266,1.015h8.286
						C181.178,316.516,181.744,316.061,181.744,315.5z"/>
					<path style="fill:#5A4F5D;" d="M170.034,315.5v-6.138c0-0.562-0.568-1.015-1.266-1.015h-8.29c-0.698,0-1.264,0.453-1.264,1.015
						v6.138c0,0.561,0.565,1.015,1.264,1.015h8.29C169.466,316.516,170.034,316.061,170.034,315.5z"/>
					<path style="fill:#5A4F5D;" d="M158.322,315.5v-6.138c0-0.562-0.569-1.015-1.267-1.015h-8.287
						c-0.701,0-1.268,0.453-1.268,1.015v6.138c0,0.561,0.567,1.015,1.268,1.015h8.287
						C157.753,316.516,158.322,316.061,158.322,315.5z"/>
					<path style="fill:#5A4F5D;" d="M126.904,316.516h18.439c0.701,0,1.266-0.454,1.266-1.015v-6.138
						c0-0.562-0.565-1.015-1.266-1.015h-18.439c-0.7,0-1.268,0.453-1.268,1.015v6.138
						C125.637,316.061,126.204,316.516,126.904,316.516z"/>
					<path style="fill:#5A4F5D;" d="M267.853,317.992h-8.289c-0.698,0-1.266,0.456-1.266,1.019v6.137
						c0,0.563,0.567,1.014,1.266,1.014h8.289c0.7,0,1.268-0.452,1.268-1.014v-6.137
						C269.121,318.448,268.553,317.992,267.853,317.992z"/>
					<path style="fill:#5A4F5D;" d="M256.142,317.992h-8.288c-0.699,0-1.266,0.456-1.266,1.019v6.137
						c0,0.563,0.567,1.014,1.266,1.014h8.288c0.697,0,1.267-0.452,1.267-1.014v-6.137
						C257.409,318.448,256.839,317.992,256.142,317.992z"/>
					<path style="fill:#5A4F5D;" d="M236.142,326.162h8.29c0.696,0,1.265-0.452,1.265-1.014v-6.137c0-0.563-0.568-1.019-1.265-1.019
						h-8.29c-0.698,0-1.265,0.456-1.265,1.019v6.137C234.877,325.71,235.444,326.162,236.142,326.162z"/>
					<path style="fill:#5A4F5D;" d="M224.433,326.162h8.286c0.702,0,1.269-0.452,1.269-1.014v-6.137
						c0-0.563-0.566-1.019-1.269-1.019h-8.286c-0.699,0-1.267,0.456-1.267,1.019v6.137
						C223.167,325.71,223.734,326.162,224.433,326.162z"/>
					<path style="fill:#5A4F5D;" d="M212.719,326.162h8.288c0.701,0,1.27-0.452,1.27-1.014v-6.137c0-0.563-0.568-1.019-1.27-1.019
						h-8.288c-0.698,0-1.264,0.456-1.264,1.019v6.137C211.456,325.71,212.021,326.162,212.719,326.162z"/>
					<path style="fill:#5A4F5D;" d="M201.013,326.162h8.284c0.701,0,1.268-0.452,1.268-1.014v-6.137
						c0-0.563-0.567-1.019-1.268-1.019h-8.284c-0.703,0-1.27,0.456-1.27,1.019v6.137C199.744,325.71,200.31,326.162,201.013,326.162
						z"/>
					<path style="fill:#5A4F5D;" d="M189.302,326.162h8.288c0.696,0,1.262-0.452,1.262-1.014v-6.137
						c0-0.563-0.565-1.019-1.262-1.019h-8.288c-0.701,0-1.271,0.456-1.271,1.019v6.137
						C188.031,325.71,188.601,326.162,189.302,326.162z"/>
					<path style="fill:#5A4F5D;" d="M177.587,326.162h8.29c0.701,0,1.269-0.452,1.269-1.014v-6.137c0-0.563-0.567-1.019-1.269-1.019
						h-8.29c-0.699,0-1.265,0.456-1.265,1.019v6.137C176.322,325.71,176.888,326.162,177.587,326.162z"/>
					<path style="fill:#5A4F5D;" d="M165.875,326.162h8.289c0.7,0,1.268-0.452,1.268-1.014v-6.137c0-0.563-0.567-1.019-1.268-1.019
						h-8.289c-0.698,0-1.262,0.456-1.262,1.019v6.137C164.614,325.71,165.177,326.162,165.875,326.162z"/>
					<path style="fill:#5A4F5D;" d="M154.169,326.162h8.287c0.698,0,1.263-0.452,1.263-1.014v-6.137
						c0-0.563-0.565-1.019-1.263-1.019h-8.287c-0.701,0-1.269,0.456-1.269,1.019v6.137
						C152.901,325.71,153.468,326.162,154.169,326.162z"/>
					<path style="fill:#5A4F5D;" d="M142.275,317.992c-0.704,0-1.268,0.456-1.268,1.019v6.137c0,0.563,0.564,1.014,1.268,1.014
						h8.285c0.701,0,1.267-0.452,1.267-1.014v-6.137c0-0.563-0.565-1.019-1.267-1.019H142.275z"/>
					<path style="fill:#5A4F5D;" d="M126.904,326.162h11.743c0.7,0,1.266-0.452,1.266-1.014v-6.137c0-0.563-0.565-1.019-1.266-1.019
						h-11.743c-0.7,0-1.268,0.456-1.268,1.019v6.137C125.637,325.71,126.204,326.162,126.904,326.162z"/>
					<path style="fill:#5A4F5D;" d="M271.445,326.162h20.637c0.7,0,1.267-0.452,1.267-1.014v-6.137c0-0.563-0.567-1.019-1.267-1.019
						h-20.637c-0.7,0-1.266,0.456-1.266,1.019v6.137C270.179,325.71,270.745,326.162,271.445,326.162z"/>
					<path style="fill:#5A4F5D;" d="M252.846,327.259h-8.289c-0.697,0-1.264,0.453-1.264,1.013v6.139
						c0,0.561,0.567,1.017,1.264,1.017h8.289c0.703,0,1.268-0.455,1.268-1.017v-6.139
						C254.114,327.712,253.549,327.259,252.846,327.259z"/>
					<path style="fill:#5A4F5D;" d="M241.137,327.259h-12.679c-0.7,0-1.267,0.453-1.267,1.013v6.139
						c0,0.561,0.566,1.017,1.267,1.017h12.679c0.698,0,1.265-0.455,1.265-1.017v-6.139
						C242.402,327.712,241.835,327.259,241.137,327.259z"/>
				</g>
			</g>
			<g>
				<path style="fill:#A6A6A5;" d="M251.226,261.969c0,3.211-2.627,5.838-5.838,5.838h-63.801c-3.21,0-5.837-2.627-5.837-5.838
					v-7.553c0-3.211,2.627-5.838,5.837-5.838h63.801c3.211,0,5.838,2.627,5.838,5.838V261.969z"/>
				<path style="fill:#B2B2B2;" d="M245.926,260.742c0,2.918-2.409,5.304-5.353,5.304H182.07c-2.943,0-5.353-2.386-5.353-5.304
					v-6.861c0-2.917,2.41-5.304,5.353-5.304h58.503c2.944,0,5.353,2.387,5.353,5.304V260.742z"/>
				<path style="fill:#B2B2B2;" d="M292.732,243.42c-1.063,3.029-4.56,5.508-7.772,5.508H132.924c-3.212,0-6.797-2.447-7.967-5.436
					L96.576,178.39c-1.171-2.989,0.872-11.842,4.083-11.842h213.22c3.212,0,5.279,8.985,4.217,12.015L292.732,243.42z"/>
				<path style="fill:#D4D4D4;" d="M292.707,250.628c-1.064,3.029-4.561,5.508-7.772,5.508H132.898
					c-3.211,0-6.797-2.446-7.967-5.436l-28.008-71.509c-1.171-2.989,0.498-5.436,3.709-5.436h213.22
					c3.211,0,4.968,2.479,3.906,5.508L292.707,250.628z"/>
				<polygon style="fill:#FFFFFF;" points="287.736,248.277 129.982,248.277 103.198,177.496 311.42,177.496 				"/>
			</g>
		</g>
		<g>
			<polygon style="fill:#F6F6F6;" points="268.419,248.277 149.822,248.277 124.408,177.496 293.832,177.496 			"/>
			<polygon style="fill:#004B74;" points="291.563,183.816 126.677,183.816 124.408,177.496 293.832,177.496 			"/>
			<path style="fill:#FFFFFF;" d="M287.646,180.656c-0.318,0.947-1.954,1.715-3.65,1.715c-1.697,0-2.832-0.768-2.538-1.715
				c0.294-0.948,1.928-1.716,3.649-1.716C286.829,178.941,287.966,179.708,287.646,180.656z"/>
			<path style="fill:#FFFFFF;" d="M279.5,180.656c-0.286,0.947-1.893,1.715-3.59,1.715c-1.697,0-2.86-0.768-2.6-1.715
				c0.262-0.948,1.87-1.716,3.591-1.716C278.624,178.941,279.787,179.708,279.5,180.656z"/>
			<path style="fill:#FFFFFF;" d="M271.68,180.656c-0.254,0.947-1.835,1.715-3.533,1.715c-1.696,0-2.885-0.768-2.657-1.715
				c0.23-0.948,1.812-1.716,3.533-1.716C270.746,178.941,271.934,179.708,271.68,180.656z"/>
			<path style="fill:#FFFFFF;" d="M204.967,180.746c0.016,0.897-1.273,1.625-2.883,1.625h-66.708c-1.607,0-3.151-0.728-3.448-1.625
				l-0.061-0.18c-0.298-0.898,0.782-1.626,2.415-1.626h67.698c1.633,0,2.968,0.727,2.984,1.626L204.967,180.746z"/>
			<polygon style="fill:#D6E2EA;" points="282.746,208.372 135.494,208.372 126.677,183.816 291.563,183.816 			"/>
			<polygon style="fill:#F59D16;" points="185.688,217.04 148.64,217.04 146.972,211.623 185.042,211.623 			"/>
			<polygon style="fill:#D6E2EA;" points="186.206,221.374 149.975,221.374 149.141,218.665 185.882,218.665 			"/>
			<polygon style="fill:#D6E2EA;" points="181.082,225.708 151.309,225.708 150.475,222.998 180.677,222.998 			"/>
			<polygon style="fill:#BCC7CD;" points="263.34,234.103 153.894,234.103 152.227,228.686 264.978,228.686 			"/>
			<polygon style="fill:#D6E2EA;" points="262.031,238.436 155.229,238.436 154.395,235.728 262.849,235.728 			"/>
			<polygon style="fill:#D6E2EA;" points="244.129,242.77 156.564,242.77 155.73,240.063 244.685,240.063 			"/>
			<polygon style="fill:#55AEA3;" points="227.167,217.04 190.121,217.04 189.597,211.623 227.665,211.623 			"/>
			<polygon style="fill:#D6E2EA;" points="226.768,221.374 190.54,221.374 190.278,218.665 227.017,218.665 			"/>
			<polygon style="fill:#D6E2EA;" points="220.731,225.708 190.96,225.708 190.698,222.998 220.898,222.998 			"/>
			<polygon style="fill:#D48256;" points="268.5,217.04 231.453,217.04 232.068,211.623 270.137,211.623 			"/>
			<polygon style="fill:#D6E2EA;" points="267.19,221.374 230.959,221.374 231.268,218.665 268.008,218.665 			"/>
			<polygon style="fill:#D6E2EA;" points="260.238,225.708 230.466,225.708 230.775,222.998 260.975,222.998 			"/>
			<polygon style="fill:#F59D16;" points="177.932,202.232 155.759,202.232 152.337,188.689 175.932,188.689 			"/>
			<polygon style="fill:#55AEA3;" points="205.351,202.232 183.179,202.232 181.515,188.689 205.109,188.689 			"/>
			<polygon style="fill:#AE9DCC;" points="233.73,202.232 211.561,202.232 211.716,188.689 235.308,188.689 			"/>
			<polygon style="fill:#D48256;" points="261.521,202.232 239.349,202.232 241.288,188.689 264.881,188.689 			"/>
			<g>
				<path style="fill:#E3BBB6;" d="M166.05,195.864c2.83,0,4.885-1.359,4.592-3.036c-0.293-1.678-2.887-3.037-5.795-3.037
					c-2.909,0-4.964,1.359-4.593,3.037C160.626,194.505,163.22,195.864,166.05,195.864z"/>
				<path style="fill:#E3BBB6;" d="M166.172,196.48c-4.323,0-7.337,2.083-6.736,4.652h15.313
					C174.333,198.564,170.493,196.48,166.172,196.48z"/>
			</g>
			<g>
				<path style="fill:#E3BBB6;" d="M251.681,195.864c2.829,0,5.421-1.359,5.788-3.036c0.368-1.678-1.692-3.037-4.601-3.037
					c-2.909,0-5.5,1.359-5.789,3.037C246.792,194.505,248.85,195.864,251.681,195.864z"/>
				<path style="fill:#E3BBB6;" d="M251.56,196.48c-4.321,0-8.156,2.083-8.567,4.652h15.313
					C258.902,198.564,255.881,196.48,251.56,196.48z"/>
			</g>
			<g>
				<path style="fill:#92B7B7;" d="M193.815,195.864c2.832,0,5.061-1.359,4.982-3.036c-0.079-1.678-2.499-3.037-5.409-3.037
					c-2.907,0-5.136,1.359-4.978,3.037C188.567,194.505,190.987,195.864,193.815,195.864z"/>
				<path style="fill:#92B7B7;" d="M193.859,196.48c-4.32,0-7.6,2.083-7.327,4.652h15.312
					C201.756,198.564,198.183,196.48,193.859,196.48z"/>
			</g>
			<g>
				<path style="fill:#B78B98;" d="M223.051,195.864c2.832,0,5.244-1.359,5.392-3.036c0.146-1.678-2.092-3.037-5.002-3.037
					c-2.907,0-5.321,1.359-5.389,3.037C217.985,194.505,220.223,195.864,223.051,195.864z"/>
				<path style="fill:#B78B98;" d="M223.012,196.48c-4.319,0-7.881,2.083-7.953,4.652h15.312
					C230.629,198.564,227.335,196.48,223.012,196.48z"/>
			</g>
		</g>
	</g>
</g>
</svg>
